jomhuria-latin.sfdir
StartChar: exclam
Encoding: 33 33 1
Width: 505
Flags: HW
LayerCount: 2
Back
SplineSet
-10 90 m 128,-1,1
 -10 135 -10 135 23.5 166.5 c 128,-1,2
 57 198 57 198 102 198 c 128,-1,3
 147 198 147 198 178.5 166.5 c 128,-1,4
 210 135 210 135 210 90 c 128,-1,5
 210 45 210 45 178.5 11.5 c 128,-1,6
 147 -22 147 -22 102 -22 c 128,-1,7
 57 -22 57 -22 23.5 11.5 c 128,-1,0
 -10 45 -10 45 -10 90 c 128,-1,1
110 1284 m 0,8,9
 153 1284 153 1284 175.5 1248.5 c 128,-1,10
 198 1213 198 1213 198 1168 c 0,11,12
 198 1143 198 1143 190.5 1054.5 c 128,-1,13
 183 966 183 966 164 753.5 c 128,-1,14
 145 541 145 541 128 344 c 1,15,16
 116 320 116 320 96 318 c 1,17,18
 77 326 77 326 70 340 c 1,19,20
 10 1030 10 1030 10 1168 c 0,21,22
 10 1213 10 1213 37.5 1248.5 c 128,-1,23
 65 1284 65 1284 110 1284 c 0,8,9
EndSplineSet
Fore
SplineSet
217.705078125 370.16796875 m 4
 319.666992188 370.16796875 402.7890625 287.32421875 402.7890625 185.083984375 c 4
 402.7890625 82.8447265625 319.944335938 0 217.705078125 0 c 4
 115.46484375 0 32.6201171875 82.8447265625 32.6201171875 185.083984375 c 4
 32.6201171875 287.32421875 115.46484375 370.16796875 217.705078125 370.16796875 c 4
394.754882812 1216.88476562 m 4
 462.08203125 1132.10058594 426.89453125 1012.40527344 418.859375 989.409179688 c 4
 345.435546875 772.184570312 321.330078125 592.086914062 316.896484375 500.375976562 c 5
 116.018554688 500.375976562 l 5
 111.5859375 592.086914062 89.1435546875 772.461914062 15.99609375 989.131835938 c 4
 8.2373046875 1012.68261719 -26.6728515625 1132.65625 40.37890625 1216.88476562 c 4
 78.6142578125 1265.09570312 138.461914062 1289.47851562 217.427734375 1289.47851562 c 4
 296.670898438 1289.47851562 356.241210938 1265.09570312 394.754882812 1216.88476562 c 4
EndSplineSet
Colour: ffff00
EndChar
StartChar: quotedbl
Encoding: 34 34 2
Width: 623
Flags: HW
LayerCount: 2
Back
SplineSet
362 1398 m 0,0,1
 393 1398 393 1398 414 1372 c 1,2,3
 414 1328 414 1328 404.5 1194.5 c 128,-1,4
 395 1061 395 1061 386 984 c 1,5,6
 374 960 374 960 346 946 c 1,7,8
 334 946 334 946 328 958 c 1,9,10
 258 1198 258 1198 258 1258 c 0,11,12
 258 1305 258 1305 288 1351.5 c 128,-1,13
 318 1398 318 1398 362 1398 c 0,0,1
122 1398 m 0,14,15
 153 1398 153 1398 174 1372 c 1,16,17
 174 1328 174 1328 164.5 1194.5 c 128,-1,18
 155 1061 155 1061 146 984 c 1,19,20
 134 960 134 960 106 946 c 1,21,22
 94 946 94 946 88 958 c 1,23,24
 18 1198 18 1198 18 1258 c 0,25,26
 18 1305 18 1305 48 1351.5 c 128,-1,27
 78 1398 78 1398 122 1398 c 0,14,15
EndSplineSet
Fore
SplineSet
159.888671875 1768.81347656 m 0
 213.91796875 1768.81347656 242.732421875 1744.984375 257.41796875 1725.3125 c 0
 293.991210938 1675.44042969 275.427734375 1606.44824219 271.271484375 1593.14941406 c 0
 230.819335938 1463.47949219 224.723632812 1359.578125 224.169921875 1320.78710938 c 2
 223.614257812 1289.47851562 l 1
 96.162109375 1289.47851562 l 1
 95.607421875 1320.78710938 l 2
 95.0537109375 1359.578125 88.9580078125 1463.47949219 48.505859375 1592.87304688 c 0
 44.3486328125 1606.171875 25.5087890625 1674.88476562 62.359375 1725.03515625 c 0
 77.0439453125 1744.984375 106.13671875 1768.81347656 159.888671875 1768.81347656 c 0
561.088867188 1725.03515625 m 4
 597.939453125 1675.16308594 579.099609375 1606.171875 574.942382812 1593.14941406 c 4
 534.490234375 1463.47949219 528.39453125 1359.578125 527.83984375 1320.78710938 c 6
 527.286132812 1289.47851562 l 5
 399.833007812 1289.47851562 l 5
 399.278320312 1320.78710938 l 6
 398.724609375 1359.578125 392.62890625 1463.47949219 352.176757812 1592.87304688 c 4
 348.020507812 1606.171875 329.1796875 1674.88476562 366.030273438 1725.03515625 c 4
 380.715820312 1744.984375 409.807617188 1768.81347656 463.559570312 1768.81347656 c 4
 517.311523438 1768.81347656 546.404296875 1744.984375 561.088867188 1725.03515625 c 4
EndSplineSet
Colour: ffff00
EndChar
StartChar: numbersign
Encoding: 35 35 3
Width: 1275
UnlinkRmOvrlpSave: 1
Flags: HW
LayerCount: 2
Back
SplineSet
727 738 m 1,0,-1
 69 738 l 2,1,2
 58 738 58 738 57.5 761 c 128,-1,3
 57 784 57 784 66 808 c 128,-1,4
 75 832 75 832 87 836 c 1,5,-1
 739 836 l 2,6,7
 752 836 752 836 754 814 c 128,-1,8
 756 792 756 792 747.5 768 c 128,-1,9
 739 744 739 744 727 738 c 1,0,-1
671 356 m 1,10,-1
 13 356 l 1,11,12
 2 359 2 359 1.5 379.5 c 128,-1,13
 1 400 1 400 11 425 c 128,-1,14
 21 450 21 450 33 454 c 1,15,-1
 685 454 l 2,16,17
 698 454 698 454 699.5 432 c 128,-1,18
 701 410 701 410 692 386 c 128,-1,19
 683 362 683 362 671 356 c 1,10,-1
647 1056 m 1,20,-1
 503 154 l 2,21,22
 501 146 501 146 488 137 c 128,-1,23
 475 128 475 128 455 128 c 0,24,25
 446 128 446 128 440.5 130 c 128,-1,26
 435 132 435 132 434 134 c 2,27,-1
 433 136 l 1,28,-1
 577 1036 l 1,29,30
 580 1046 580 1046 581 1048 c 128,-1,31
 582 1050 582 1050 586.5 1055 c 128,-1,32
 591 1060 591 1060 599 1061 c 128,-1,33
 607 1062 607 1062 621 1062 c 0,34,35
 638 1062 638 1062 647 1056 c 1,20,-1
325 1056 m 1,36,-1
 179 154 l 2,37,38
 177 146 177 146 165 137 c 128,-1,39
 153 128 153 128 133 128 c 0,40,41
 124 128 124 128 118.5 130 c 128,-1,42
 113 132 113 132 112 134 c 2,43,-1
 111 136 l 1,44,-1
 255 1036 l 1,45,46
 258 1046 258 1046 259 1048 c 128,-1,47
 260 1050 260 1050 264.5 1055 c 128,-1,48
 269 1060 269 1060 277 1061 c 128,-1,49
 285 1062 285 1062 299 1062 c 0,50,51
 316 1062 316 1062 325 1056 c 1,36,-1
EndSplineSet
Fore
SplineSet
1184.94335938 740.455078125 m 1
 967.73046875 740.455078125 l 1
 918.333007812 545.528320312 l 1
 1135.46386719 545.528320312 l 1
 1084.48632812 344.448242188 l 1
 867.356445312 344.448242188 l 1
 780.0390625 0 l 1
 579.540039062 0 l 1
 666.857421875 344.448242188 l 1
 446.401367188 344.448242188 l 1
 359.083007812 0 l 1
 158.501953125 0 l 1
 245.819335938 344.448242188 l 1
 40 344.448242188 l 1
 90.9765625 545.528320312 l 1
 296.795898438 545.528320312 l 1
 346.193359375 740.455078125 l 1
 140.373046875 740.455078125 l 1
 191.350585938 941.53515625 l 1
 397.170898438 941.53515625 l 1
 484.48828125 1289.47851562 l 1
 685.0703125 1289.47851562 l 1
 597.752929688 941.53515625 l 1
 818.208007812 941.53515625 l 1
 905.52734375 1289.47851562 l 1
 1106.02441406 1289.47851562 l 1
 1018.70703125 941.53515625 l 1
 1235.91992188 941.53515625 l 1
 1184.94335938 740.455078125 l 1
717.751953125 545.528320312 m 1
 767.1484375 740.455078125 l 1
 546.69140625 740.455078125 l 1
 497.294921875 545.528320312 l 1
 717.751953125 545.528320312 l 1
EndSplineSet
Colour: ffff00
EndChar
StartChar: dollar
Encoding: 36 36 4
Width: 1025
Flags: HW
LayerCount: 2
Back
SplineSet
504 1366 m 1,0,1
 574 1366 574 1366 574 1352 c 1,2,-1
 560 1265 l 1,3,4
 583 1260 583 1260 635 1246 c 128,-1,5
 687 1232 687 1232 724 1224 c 1,6,7
 732 1189 732 1189 737.5 1143.5 c 128,-1,8
 743 1098 743 1098 744.5 1071.5 c 128,-1,9
 746 1045 746 1045 747 1000 c 128,-1,10
 748 955 748 955 748 952 c 1,11,12
 735 944 735 944 712 944 c 0,13,14
 694 944 694 944 684 954 c 1,15,16
 677 1009 677 1009 639.5 1072.5 c 128,-1,17
 602 1136 602 1136 545 1174 c 1,18,-1
 468 711 l 1,19,20
 470 710 470 710 475 707 c 128,-1,21
 480 704 480 704 482 702 c 0,22,23
 497 692 497 692 532 671 c 128,-1,24
 567 650 567 650 588 637 c 128,-1,25
 609 624 609 624 642.5 600.5 c 128,-1,26
 676 577 676 577 697 558 c 128,-1,27
 718 539 718 539 743 511.5 c 128,-1,28
 768 484 768 484 782 458 c 128,-1,29
 796 432 796 432 806 399.5 c 128,-1,30
 816 367 816 367 816 332 c 0,31,32
 816 230 816 230 758 148 c 128,-1,33
 700 66 700 66 609 23 c 128,-1,34
 518 -20 518 -20 414 -20 c 0,35,36
 381 -20 381 -20 348 -17 c 1,37,-1
 334 -104 l 1,38,39
 313 -104 313 -104 288.5 -99.5 c 128,-1,40
 264 -95 264 -95 264 -86 c 1,41,-1
 277 -8 l 1,42,43
 257 -5 257 -5 68 36 c 1,44,45
 52 114 52 114 37 212.5 c 128,-1,46
 22 311 22 311 22 330 c 1,47,48
 28 336 28 336 44.5 341 c 128,-1,49
 61 346 61 346 72 346 c 0,50,51
 89 346 89 346 94 336 c 1,52,53
 100 309 100 309 109.5 281.5 c 128,-1,54
 119 254 119 254 140 210.5 c 128,-1,55
 161 167 161 167 200 130 c 128,-1,56
 239 93 239 93 290 72 c 1,57,-1
 372 568 l 1,58,59
 326 595 326 595 298 612.5 c 128,-1,60
 270 630 270 630 228 660 c 128,-1,61
 186 690 186 690 160 717 c 128,-1,62
 134 744 134 744 108 779 c 128,-1,63
 82 814 82 814 70 854.5 c 128,-1,64
 58 895 58 895 58 940 c 0,65,66
 58 1038 58 1038 112 1117 c 128,-1,67
 166 1196 166 1196 251.5 1237 c 128,-1,68
 337 1278 337 1278 434 1278 c 0,69,70
 455 1278 455 1278 489 1276 c 1,71,-1
 504 1366 l 1,0,1
439 530 m 1,1,-1
 360 52 l 1,73,74
 384 48 384 48 418 48 c 0,75,76
 513 48 513 48 580.5 110 c 128,-1,77
 648 172 648 172 648 280 c 0,78,79
 648 303 648 303 644 324 c 128,-1,80
 640 345 640 345 635.5 361 c 128,-1,81
 631 377 631 377 618 394.5 c 128,-1,82
 605 412 605 412 598.5 422 c 128,-1,83
 592 432 592 432 572 447.5 c 128,-1,84
 552 463 552 463 544 469 c 128,-1,85
 536 475 536 475 510 490.5 c 128,-1,86
 484 506 484 506 476.5 510 c 128,-1,87
 469 514 469 514 439 530 c 1,1,-1
402 751 m 1,88,-1
 477 1205 l 1,89,90
 452 1212 452 1212 422 1212 c 0,91,92
 362 1212 362 1212 319 1192.5 c 128,-1,93
 276 1173 276 1173 253.5 1140 c 128,-1,94
 231 1107 231 1107 221.5 1072.5 c 128,-1,95
 212 1038 212 1038 212 1000 c 0,96,97
 212 956 212 956 226.5 919.5 c 128,-1,98
 241 883 241 883 271 852 c 128,-1,99
 301 821 301 821 329 800 c 128,-1,100
 357 779 357 779 402 751 c 1,88,-1
EndSplineSet
Fore
SplineSet
965.4453125 445.23828125 m 0
 965.4453125 260.955078125 800.954101562 113.34765625 580.33203125 87.568359375 c 1
 580.33203125 0 l 1
 435.6328125 0 l 1
 435.6328125 87.9833984375 l 1
 309.231445312 103.451171875 213.34765625 151.267578125 213.34765625 151.267578125 c 1
 213.34765625 83.0771484375 l 1
 86.6943359375 83.0771484375 l 1
 86.6943359375 426.194335938 l 1
 214.095703125 426.194335938 l 1
 214.095703125 426.194335938 202.786132812 264.19921875 435.6328125 253.5546875 c 1
 435.6328125 504.697265625 l 1
 359.29296875 527.981445312 274.552734375 553.927734375 207.276367188 599.831054688 c 0
 105.489257812 669.270507812 60 749.104492188 60 858.875 c 0
 60 1033.67675781 219.584960938 1181.53515625 435.6328125 1198.5 c 1
 435.6328125 1289.47851562 l 1
 580.33203125 1289.47851562 l 1
 580.33203125 1190.765625 l 1
 683.94921875 1172.22167969 750.809570312 1132.55371094 750.809570312 1132.55371094 c 1
 750.809570312 1200.24511719 l 1
 877.461914062 1200.24511719 l 1
 877.461914062 857.959960938 l 1
 750.060546875 857.959960938 l 1
 750.060546875 857.959960938 773.760742188 997.501953125 580.33203125 1025.44433594 c 1
 580.33203125 798.416992188 l 1
 649.104492188 779.790039062 722.784179688 761.079101562 782.077148438 732.388671875 c 0
 903.075195312 674.010742188 965.4453125 570.310546875 965.4453125 445.23828125 c 0
355.301757812 926.983398438 m 0
 358.377929688 888.23046875 387.235351562 860.953125 430.560546875 839.166015625 c 1
 430.560546875 1025.77636719 l 1
 385.571289062 1011.72167969 350.89453125 982.284179688 355.301757812 926.983398438 c 0
586.485351562 273.762695312 m 1
 632.223632812 297.794921875 655.008789062 337.213867188 645.612304688 390.436523438 c 0
 640.373046875 420.290039062 618.584960938 442.411132812 586.485351562 460.7890625 c 1
 586.485351562 273.762695312 l 1
EndSplineSet
Colour: ffff00
EndChar
StartChar: percent
Encoding: 37 37 5
Width: 1095
Flags: HW
LayerCount: 2
Back
SplineSet
272 1242 m 0,0,1
 216 1242 216 1242 177.5 1203 c 128,-1,2
 139 1164 139 1164 123.5 1109.5 c 128,-1,3
 108 1055 108 1055 108 992 c 0,4,5
 108 885 108 885 163.5 792.5 c 128,-1,6
 219 700 219 700 292 700 c 0,7,8
 333 700 333 700 364 722.5 c 128,-1,9
 395 745 395 745 411 783 c 128,-1,10
 427 821 427 821 434.5 863 c 128,-1,11
 442 905 442 905 442 952 c 0,12,13
 442 1021 442 1021 422 1086.5 c 128,-1,14
 402 1152 402 1152 362 1197 c 128,-1,15
 322 1242 322 1242 272 1242 c 0,0,1
280 1290 m 0,16,17
 408 1290 408 1290 491 1195.5 c 128,-1,18
 574 1101 574 1101 574 968 c 0,19,20
 574 887 574 887 539.5 815 c 128,-1,21
 505 743 505 743 436 696.5 c 128,-1,22
 367 650 367 650 280 650 c 0,23,24
 155 650 155 650 67.5 743 c 128,-1,25
 -20 836 -20 836 -20 968 c 0,26,27
 -20 1104 -20 1104 64.5 1197 c 128,-1,28
 149 1290 149 1290 280 1290 c 0,16,17
850 578 m 0,29,30
 794 578 794 578 755 539 c 128,-1,31
 716 500 716 500 700 445.5 c 128,-1,32
 684 391 684 391 684 328 c 0,33,34
 684 221 684 221 740.5 128.5 c 128,-1,35
 797 36 797 36 870 36 c 0,36,37
 911 36 911 36 941.5 58.5 c 128,-1,38
 972 81 972 81 988 119 c 128,-1,39
 1004 157 1004 157 1011 199 c 128,-1,40
 1018 241 1018 241 1018 288 c 0,41,42
 1018 357 1018 357 998.5 422.5 c 128,-1,43
 979 488 979 488 939.5 533 c 128,-1,44
 900 578 900 578 850 578 c 0,29,30
858 626 m 0,45,46
 986 626 986 626 1068 532 c 128,-1,47
 1150 438 1150 438 1150 304 c 0,48,49
 1150 177 1150 177 1069 81.5 c 128,-1,50
 988 -14 988 -14 856 -14 c 0,51,52
 731 -14 731 -14 643.5 79 c 128,-1,53
 556 172 556 172 556 304 c 0,54,55
 556 440 556 440 641 533 c 128,-1,56
 726 626 726 626 858 626 c 0,45,46
1096 1248 m 1,46,-1
 130 0 l 2,58,59
 124 -8 124 -8 102.5 -16 c 128,-1,60
 81 -24 81 -24 64 -24 c 0,61,62
 39 -24 39 -24 28 -2 c 1,63,-1
 992 1248 l 1,64,65
 1012 1272 1012 1272 1032 1272 c 0,66,67
 1053 1272 1053 1272 1064 1270.5 c 128,-1,68
 1075 1269 1075 1269 1078.5 1267.5 c 128,-1,69
 1082 1266 1082 1266 1087 1259 c 128,-1,70
 1092 1252 1092 1252 1096 1248 c 1,46,-1
EndSplineSet
Fore
SplineSet
248.232421875 696.881835938 m 4
 186.611328125 696.881835938 132.889648438 735.966796875 94.8857421875 792.099609375 c 4
 60.873046875 842.329101562 40 908.357421875 40 980.872070312 c 4
 40 1059.625 61.0400390625 1131.30859375 95.4677734375 1185.86132812 c 4
 133.970703125 1246.98339844 184.116210938 1289.47851562 251.142578125 1289.47851562 c 4
 316.83984375 1289.47851562 366.485351562 1250.14453125 404.489257812 1194.09375 c 4
 438.501953125 1143.86621094 459.375 1077.83691406 459.375 1005.32128906 c 4
 459.375 926.569335938 438.251953125 854.884765625 403.907226562 800.333007812 c 4
 365.404296875 739.2109375 309.936523438 696.881835938 248.232421875 696.881835938 c 4
212.473632812 1162.57617188 m 6
 212.473632812 823.6171875 l 6
 212.473632812 802.91015625 229.189453125 786.196289062 249.729492188 786.196289062 c 4
 270.270507812 786.196289062 286.984375 802.993164062 286.984375 823.6171875 c 6
 286.984375 1162.57617188 l 6
 286.984375 1183.28320312 270.270507812 1199.99804688 249.729492188 1199.99804688 c 4
 229.189453125 1199.99804688 212.473632812 1183.20019531 212.473632812 1162.57617188 c 6
1000.08007812 497.294921875 m 4
 1034.09277344 447.067382812 1054.96582031 381.0390625 1054.96582031 308.440429688 c 4
 1054.96582031 229.6875 1033.92578125 158.002929688 999.498046875 103.451171875 c 4
 960.995117188 42.3291015625 905.610351562 0 843.823242188 0 c 4
 782.202148438 0 728.48046875 39.16796875 690.4765625 95.2177734375 c 4
 656.463867188 145.447265625 635.590820312 211.475585938 635.590820312 283.990234375 c 4
 635.590820312 362.743164062 656.630859375 434.426757812 691.05859375 488.979492188 c 4
 729.561523438 550.1015625 779.70703125 592.596679688 846.733398438 592.596679688 c 4
 912.430664062 592.596679688 962.076171875 553.345703125 1000.08007812 497.294921875 c 4
882.4921875 126.901367188 m 6
 882.4921875 465.861328125 l 6
 882.4921875 486.567382812 865.776367188 503.283203125 845.236328125 503.283203125 c 4
 824.6953125 503.283203125 807.981445312 486.484375 807.981445312 465.861328125 c 6
 807.981445312 126.901367188 l 6
 807.981445312 106.194335938 824.6953125 89.48046875 845.236328125 89.48046875 c 4
 865.859375 89.48046875 882.4921875 106.278320312 882.4921875 126.901367188 c 6
826.181640625 1289.47851562 m 5
 1055.18164062 1289.47851562 l 5
 272.181640625 0 l 5
 42.994140625 0 l 5
 826.181640625 1289.47851562 l 5
EndSplineSet
Colour: ffff00
EndChar
StartChar: ampersand
Encoding: 38 38 6
Width: 1322
Flags: HW
LayerCount: 2
Back
SplineSet
672 190 m 1,0,1
 614 249 614 249 532 358.5 c 128,-1,2
 450 468 450 468 397 548 c 2,3,-1
 344 628 l 1,4,5
 300 598 300 598 279.5 583 c 128,-1,6
 259 568 259 568 226 538.5 c 128,-1,7
 193 509 193 509 178 484 c 128,-1,8
 163 459 163 459 150.5 422.5 c 128,-1,9
 138 386 138 386 138 344 c 0,10,11
 138 212 138 212 220 146 c 128,-1,12
 302 80 302 80 422 80 c 0,13,14
 484 80 484 80 554.5 110 c 128,-1,15
 625 140 625 140 672 190 c 1,0,1
486 1240 m 0,16,17
 420 1240 420 1240 374 1197 c 128,-1,18
 328 1154 328 1154 328 1086 c 0,19,20
 328 958 328 958 432 770 c 1,21,22
 501 810 501 810 540 843.5 c 128,-1,23
 579 877 579 877 604.5 931.5 c 128,-1,24
 630 986 630 986 630 1060 c 0,25,26
 630 1132 630 1132 590 1186 c 128,-1,27
 550 1240 550 1240 486 1240 c 0,16,17
476 1312 m 0,28,29
 610 1312 610 1312 688 1253.5 c 128,-1,30
 766 1195 766 1195 766 1088 c 0,31,32
 766 1023 766 1023 742.5 967 c 128,-1,33
 719 911 719 911 672.5 863.5 c 128,-1,34
 626 816 626 816 580.5 781.5 c 128,-1,35
 535 747 535 747 468 706 c 1,36,37
 585 509 585 509 764 308 c 1,38,39
 814 384 814 384 846 453.5 c 128,-1,40
 878 523 878 523 878 542 c 0,41,42
 878 560 878 560 860 567.5 c 128,-1,43
 842 575 842 575 815.5 576.5 c 128,-1,44
 789 578 789 578 788 578 c 0,45,46
 783 587 783 587 783.5 602.5 c 128,-1,47
 784 618 784 618 790 624 c 1,48,-1
 948 624 l 2,49,50
 979 624 979 624 1012 625.5 c 128,-1,51
 1045 627 1045 627 1089.5 630 c 128,-1,52
 1134 633 1134 633 1168 634 c 1,53,54
 1172 631 1172 631 1171.5 604.5 c 128,-1,55
 1171 578 1171 578 1166 578 c 0,56,57
 1140 578 1140 578 1092 566 c 128,-1,58
 1044 554 1044 554 1028 544 c 0,59,60
 1025 542 1025 542 999 498.5 c 128,-1,61
 973 455 973 455 923 381.5 c 128,-1,62
 873 308 873 308 820 246 c 1,63,64
 866 198 866 198 884 179.5 c 128,-1,65
 902 161 902 161 931.5 134.5 c 128,-1,66
 961 108 961 108 980 99 c 128,-1,67
 999 90 999 90 1016 90 c 0,68,69
 1044 90 1044 90 1077 123.5 c 128,-1,70
 1110 157 1110 157 1120 182 c 1,71,72
 1136 182 1136 182 1151 169.5 c 128,-1,73
 1166 157 1166 157 1166 146 c 1,74,75
 1161 134 1161 134 1155 123 c 128,-1,76
 1149 112 1149 112 1130 87.5 c 128,-1,77
 1111 63 1111 63 1089 45.5 c 128,-1,78
 1067 28 1067 28 1029 14 c 128,-1,79
 991 0 991 0 948 0 c 0,80,81
 915 0 915 0 879 15 c 128,-1,82
 843 30 843 30 815.5 51 c 128,-1,83
 788 72 788 72 765 93 c 128,-1,84
 742 114 742 114 730 129 c 2,85,-1
 718 144 l 1,86,87
 642 77 642 77 545.5 35.5 c 128,-1,88
 449 -6 449 -6 354 -6 c 0,89,90
 177 -6 177 -6 71.5 80 c 128,-1,91
 -34 166 -34 166 -34 316 c 0,92,93
 -34 385 -34 385 -7.5 443.5 c 128,-1,94
 19 502 19 502 70.5 549 c 128,-1,95
 122 596 122 596 173.5 629.5 c 128,-1,96
 225 663 225 663 298 700 c 1,97,98
 261 764 261 764 241 802.5 c 128,-1,99
 221 841 221 841 201.5 907.5 c 128,-1,100
 182 974 182 974 182 1038 c 0,101,102
 182 1153 182 1153 266.5 1232.5 c 128,-1,103
 351 1312 351 1312 476 1312 c 0,28,29
EndSplineSet
Fore
SplineSet
1262.65234375 626.05078125 m 1
 1262.65234375 372.330078125 l 1
 1094.41992188 263.557617188 l 1
 1152.63183594 159.108398438 l 1
 1226.97558594 159.108398438 l 1
 1226.97558594 0 l 1
 765.33203125 0 l 1
 721.61328125 80.60546875 l 1
 721.61328125 80.60546875 642.197265625 -35.984375 457.33203125 -35.984375 c 0
 232.301757812 -35.984375 39.953125 86.42578125 4.6103515625 323.265625 c 0
 -28.3212890625 544.3046875 118.705078125 744.38671875 333.091796875 780.39453125 c 1
 196.54296875 1053.4921875 358.538085938 1324.72070312 655.91796875 1324.72070312 c 4
 958.952148438 1324.72070312 1096.16601562 911.787109375 805.35546875 777.900390625 c 1
 989.8046875 449.668945312 l 1
 1262.65234375 626.05078125 l 1
311.220703125 331.498046875 m 0
 413.090820312 86.259765625 654.170898438 195.1171875 654.170898438 195.034179688 c 2
 401.865234375 645.34375 l 1
 341.490234375 624.719726562 249.931640625 479.0234375 311.220703125 331.498046875 c 0
755.459960938 866.71484375 m 1
 789.056640625 891.74609375 826.811523438 943.970703125 828.141601562 993.534179688 c 0
 829.805664062 1056.65136719 790.553710938 1117.27539062 727.3515625 1118.93847656 c 0
 687.685546875 1119.93652344 639.369140625 1085.42578125 673.879882812 1011.91210938 c 1
 755.459960938 866.71484375 l 1
EndSplineSet
Colour: ffff00
EndChar
StartChar: quotesingle
Encoding: 39 39 7
Width: 319
Flags: HW
LayerCount: 2
Back
SplineSet
122 1398 m 0,0,1
 153 1398 153 1398 174 1372 c 1,2,3
 174 1328 174 1328 164.5 1194.5 c 128,-1,4
 155 1061 155 1061 146 984 c 1,5,6
 134 960 134 960 106 946 c 1,7,8
 94 946 94 946 88 958 c 1,9,10
 18 1198 18 1198 18 1258 c 0,11,12
 18 1305 18 1305 48 1351.5 c 128,-1,13
 78 1398 78 1398 122 1398 c 0,0,1
EndSplineSet
Fore
SplineSet
257.41796875 1725.03515625 m 4
 294.268554688 1675.16308594 275.428710938 1606.171875 271.271484375 1593.14941406 c 4
 230.819335938 1463.47949219 224.723632812 1359.578125 224.168945312 1320.78710938 c 6
 223.615234375 1289.47851562 l 5
 96.162109375 1289.47851562 l 5
 95.607421875 1320.78710938 l 6
 95.0537109375 1359.578125 88.9580078125 1463.47949219 48.505859375 1592.87304688 c 4
 44.349609375 1606.171875 25.5087890625 1674.88476562 62.359375 1725.03515625 c 4
 77.044921875 1744.984375 106.13671875 1768.81347656 159.888671875 1768.81347656 c 4
 213.640625 1768.81347656 242.733398438 1744.984375 257.41796875 1725.03515625 c 4
EndSplineSet
Colour: ffff00
EndChar
StartChar: parenleft
Encoding: 40 40 8
Width: 444
Flags: HW
HStem: -589.104 143.535<274.326 404> 1491.46 143.535<274.36 404>
VStem: 0 201.423<-368.943 -100 1145.9 1414.84>
LayerCount: 2
Back
SplineSet
80 570 m 128,-1,1
 80 324 80 324 158 92 c 128,-1,2
 236 -140 236 -140 372 -260 c 0,3,4
 373 -260 373 -260 366.5 -268 c 128,-1,5
 360 -276 360 -276 350 -286 c 128,-1,6
 340 -296 340 -296 334 -300 c 1,7,8
 150 -155 150 -155 42 67.5 c 128,-1,9
 -66 290 -66 290 -66 570 c 0,10,11
 -66 851 -66 851 41.5 1072 c 128,-1,12
 149 1293 149 1293 334 1438 c 1,13,14
 340 1434 340 1434 350 1424 c 128,-1,15
 360 1414 360 1414 366.5 1406 c 128,-1,16
 373 1398 373 1398 372 1398 c 0,17,18
 236 1277 236 1277 158 1046.5 c 128,-1,0
 80 816 80 816 80 570 c 128,-1,1
EndSplineSet
Fore
SplineSet
0 -100 m 6
 0 -427.483398438 53.2314453125 -589.104492188 404 -589.104492188 c 5
 404 -445.569335938 l 5
 290.154296875 -445.569335938 201.422851562 -361.578125 201.422851562 -256.463867188 c 6
 201.422851562 1302.359375 l 6
 201.422851562 1407.47363281 290.237304688 1491.46484375 404 1491.46484375 c 5
 404 1635 l 5
 53.2314453125 1635 0 1473.37890625 0 1145.89550781 c 6
 0 -100 l 6
EndSplineSet
Colour: ffff00
EndChar
StartChar: parenright
Encoding: 41 41 9
Width: 444
Flags: HW
LayerCount: 2
Back
SplineSet
400 570 m 0,0,1
 400 290 400 290 292 67.5 c 128,-1,2
 184 -155 184 -155 0 -300 c 1,3,4
 -6 -296 -6 -296 -16 -286 c 128,-1,5
 -26 -276 -26 -276 -32.5 -268 c 128,-1,6
 -39 -260 -39 -260 -38 -260 c 0,7,8
 98 -140 98 -140 176 92 c 128,-1,9
 254 324 254 324 254 570 c 128,-1,10
 254 816 254 816 176 1046.5 c 128,-1,11
 98 1277 98 1277 -38 1398 c 0,12,13
 -39 1398 -39 1398 -32.5 1406 c 128,-1,14
 -26 1414 -26 1414 -16 1424 c 128,-1,15
 -6 1434 -6 1434 0 1438 c 1,16,17
 185 1293 185 1293 292.5 1072 c 128,-1,18
 400 851 400 851 400 570 c 0,0,1
EndSplineSet
Fore
SplineSet
404 -100 m 6
 404 -427.483398438 350.768554688 -589.104492188 0 -589.104492188 c 5
 0 -445.569335938 l 5
 113.845703125 -445.569335938 202.577148438 -361.578125 202.577148438 -256.463867188 c 6
 202.577148438 1302.359375 l 6
 202.577148438 1407.47363281 113.762695312 1491.46484375 0 1491.46484375 c 5
 0 1635 l 5
 350.768554688 1635 404 1473.37890625 404 1145.89550781 c 6
 404 -100 l 6
EndSplineSet
Colour: ffff00
EndChar
StartChar: plus
Encoding: 43 43 11
Width: 1148
Flags: HW
LayerCount: 2
Back
SplineSet
424 948 m 1,0,1
 483 970 483 970 510 970 c 0,2,3
 519 970 519 970 525.5 967 c 128,-1,4
 532 964 532 964 534 961 c 2,5,-1
 536 958 l 1,6,-1
 536 548 l 1,7,-1
 944 548 l 2,8,9
 951 548 951 548 956.5 541.5 c 128,-1,10
 962 535 962 535 962 524 c 0,11,12
 962 500 962 500 952.5 474.5 c 128,-1,13
 943 449 943 449 930 436 c 1,14,-1
 536 436 l 1,15,-1
 536 32 l 1,16,17
 507 10 507 10 450 10 c 0,18,19
 440 10 440 10 432 16 c 128,-1,20
 424 22 424 22 424 28 c 2,21,-1
 424 436 l 1,22,-1
 14 436 l 2,23,24
 2 436 2 436 2 456 c 0,25,26
 2 469 2 469 10.5 503.5 c 128,-1,27
 19 538 19 538 32 548 c 1,28,-1
 424 548 l 1,29,-1
 424 948 l 1,0,1
EndSplineSet
Fore
SplineSet
1068.04101562 594.596679688 m 5
 1068.04101562 393.720703125 l 5
 674.598632812 393.720703125 l 5
 674.598632812 0 l 5
 473.443359375 0 l 5
 473.443359375 393.720703125 l 5
 80 393.720703125 l 5
 80 594.596679688 l 5
 473.443359375 594.596679688 l 5
 473.443359375 986.5 l 5
 674.598632812 986.5 l 5
 674.598632812 594.596679688 l 5
 1068.04101562 594.596679688 l 5
EndSplineSet
Colour: ffff00
EndChar
StartChar: comma
Encoding: 44 44 12
Width: 415
Flags: HW
LayerCount: 2
Back
SplineSet
142 246 m 0,0,1
 170 246 170 246 194 232 c 1,2,3
 230 170 230 170 230 92 c 0,4,5
 230 8 230 8 151 -113.5 c 128,-1,6
 72 -235 72 -235 -6 -278 c 1,7,8
 -16 -278 -16 -278 -26 -262 c 128,-1,9
 -36 -246 -36 -246 -36 -236 c 1,10,11
 -13 -219 -13 -219 2 -205.5 c 128,-1,12
 17 -192 17 -192 41 -163.5 c 128,-1,13
 65 -135 65 -135 77.5 -97 c 128,-1,14
 90 -59 90 -59 90 -14 c 0,15,16
 90 18 90 18 57 63 c 128,-1,17
 24 108 24 108 24 148 c 0,18,19
 24 183 24 183 57.5 214.5 c 128,-1,20
 91 246 91 246 142 246 c 0,0,1
EndSplineSet
Fore
SplineSet
40 163.473632812 m 0
 40 254.629882812 113.978515625 328.608398438 205.134765625 328.608398438 c 0
 296.291015625 328.608398438 367.499023438 254.352539062 374.703125 163.473632812 c 0
 385.509765625 22.9970703125 279.389648438 -64.55859375 233.119140625 -106.671875 c 1
 66.8759765625 -106.671875 l 1
 103.171875 -83.12109375 161.081054688 -41.837890625 186.848632812 0 c 1
 104.557617188 9.1435546875 40 78.412109375 40 163.473632812 c 0
EndSplineSet
Colour: ffff00
EndChar
StartChar: slash
Encoding: 47 47 14
Width: 1052
Flags: HW
LayerCount: 2
Back
SplineSet
618 1522 m 0,0,1
 638 1522 638 1522 644 1504 c 1,2,-1
 54 -24 l 2,3,4
 48 -39 48 -39 27 -54.5 c 128,-1,5
 6 -70 6 -70 -24 -70 c 0,6,7
 -37 -70 -37 -70 -46 -66.5 c 1,8,9
 -56 -64 -56 -64 -58 -60 c 2,10,-1
 -60 -56 l 1,11,-1
 538 1492 l 2,12,13
 539 1496 539 1496 548.5 1502.5 c 128,-1,14
 558 1509 558 1509 577 1515.5 c 128,-1,15
 596 1522 596 1522 618 1522 c 0,0,1
EndSplineSet
Fore
SplineSet
803.1875 1289.47851562 m 5
 1032.1875 1289.47851562 l 5
 249.1875 0 l 5
 20 0 l 5
 803.1875 1289.47851562 l 5
EndSplineSet
Colour: ffff00
EndChar
StartChar: one
Encoding: 49 49 16
Width: 655
Flags: HW
LayerCount: 2
Back
SplineSet
354 232 m 2,0,-1
 354 1040 l 2,1,2
 354 1082 354 1082 344 1099 c 128,-1,3
 334 1116 334 1116 312 1116 c 0,4,5
 279 1116 279 1116 172 1076 c 1,6,7
 152 1092 152 1092 152 1110 c 0,8,9
 152 1121 152 1121 156 1122 c 0,10,11
 225 1153 225 1153 313.5 1195 c 128,-1,12
 402 1237 402 1237 452 1260.5 c 128,-1,13
 502 1284 502 1284 504 1284 c 2,14,-1
 508 1284 l 2,15,16
 522 1284 522 1284 528 1252 c 1,17,18
 512 1180 512 1180 512 1058 c 2,19,-1
 512 232 l 2,20,21
 512 116 512 116 522 84 c 0,22,23
 526 70 526 70 573.5 61 c 128,-1,24
 621 52 621 52 650 52 c 1,25,26
 656 44 656 44 656.5 23 c 128,-1,27
 657 2 657 2 650 -6 c 1,28,29
 445 4 445 4 428 4 c 0,30,31
 419 4 419 4 214 -6 c 1,32,33
 207 2 207 2 207.5 23 c 128,-1,34
 208 44 208 44 214 52 c 1,35,36
 243 52 243 52 290.5 61 c 128,-1,37
 338 70 338 70 342 84 c 0,38,39
 354 122 354 122 354 232 c 2,0,-1
EndSplineSet
Fore
SplineSet
370.086914062 1289.49121094 m 5
 565.704101562 1289.49121094 l 5
 565.704101562 0 l 5
 180.591796875 0 l 5
 180.591796875 897.947265625 l 5
 0 897.947265625 l 5
 0 1092.45214844 l 5
 0 1092.45214844 296.069335938 1107.78710938 370.086914062 1289.49121094 c 5
EndSplineSet
Colour: ffff00
EndChar
StartChar: two
Encoding: 50 50 17
Width: 1024
VWidth: -35
Flags: HW
LayerCount: 2
Back
SplineSet
886 300 m 1,0,1
 842 193 842 193 778 0 c 1,2,-1
 86 0 l 1,3,4
 80 3 80 3 73 12.5 c 128,-1,5
 66 22 66 22 66 28 c 1,6,7
 383 379 383 379 542 612 c 0,8,9
 599 696 599 696 618.5 763 c 128,-1,10
 638 830 638 830 638 912 c 0,11,12
 638 1016 638 1016 576 1085 c 128,-1,13
 514 1154 514 1154 418 1154 c 0,14,15
 362 1154 362 1154 310.5 1133.5 c 128,-1,16
 259 1113 259 1113 223 1082 c 128,-1,17
 187 1051 187 1051 165.5 1026.5 c 128,-1,18
 144 1002 144 1002 132 982 c 1,19,20
 121 982 121 982 107.5 994.5 c 128,-1,21
 94 1007 94 1007 94 1014 c 1,22,23
 100 1037 100 1037 129 1078 c 128,-1,24
 158 1119 158 1119 203.5 1167 c 128,-1,25
 249 1215 249 1215 319 1249.5 c 128,-1,26
 389 1284 389 1284 462 1284 c 0,27,28
 603 1284 603 1284 705.5 1182 c 128,-1,29
 808 1080 808 1080 808 950 c 0,30,31
 808 788 808 788 694 648 c 0,32,33
 540 460 540 460 258 146 c 1,34,-1
 654 146 l 2,35,36
 712 146 712 146 750.5 183 c 128,-1,37
 789 220 789 220 822 300 c 0,38,39
 827 312 827 312 846 312 c 0,40,41
 870 312 870 312 886 300 c 1,0,1
EndSplineSet
Fore
SplineSet
782.943359375 223.443359375 m 2
 783.5 387.895507812 l 1
 934.0390625 387.895507812 l 1
 934.0390625 0 l 1
 90.630859375 0 l 1
 90.630859375 0 -15.943359375 207.861328125 255.361328125 462.19140625 c 0
 403.952148438 601.322265625 484.647460938 713.182617188 516.647460938 810.57421875 c 0
 578.978515625 999.512695312 509.413085938 1116.66113281 367.778320312 1106.921875 c 0
 240.61328125 1098.29589844 193.30859375 948.870117188 272.334960938 799.443359375 c 1
 92.2998046875 799.443359375 l 1
 10.4912109375 1064.34765625 186.630859375 1308.70117188 498.838867188 1308.70117188 c 4
 715.8828125 1308.70117188 934.0390625 1182.88671875 934.0390625 913.530273438 c 0
 934.0390625 704.556640625 794.630859375 569.322265625 640.1953125 482.504882812 c 0
 433.7265625 366.748046875 307.395507812 284.661132812 224.473632812 180.870117188 c 1
 732.856445312 180.870117188 l 1
 769.030273438 185.043945312 782.943359375 202.852539062 782.943359375 223.443359375 c 2
EndSplineSet
Colour: ffff00
EndChar
StartChar: four
Encoding: 52 52 19
Width: 1143
VWidth: -35
Flags: HW
LayerCount: 2
Back
SplineSet
742 1288 m 0,0,1
 756 1288 756 1288 764 1277 c 128,-1,2
 772 1266 772 1266 772 1252 c 2,3,-1
 772 462 l 1,4,-1
 890 462 l 2,5,6
 899 462 899 462 908.5 436 c 128,-1,7
 918 410 918 410 918 380 c 0,8,9
 918 360 918 360 910 348 c 1,10,-1
 772 348 l 1,11,-1
 772 -2 l 1,12,13
 764 -12 764 -12 686 -12 c 0,14,15
 614 -12 614 -12 614 4 c 2,16,-1
 614 348 l 1,17,-1
 50 348 l 1,18,19
 30 359 30 359 30 386 c 1,20,-1
 682 1238 l 2,21,22
 694 1254 694 1254 712.5 1271 c 128,-1,23
 731 1288 731 1288 742 1288 c 0,0,1
614 1048 m 1,1,-1
 166 462 l 1,2,-1
 614 462 l 1,3,-1
 614 1048 l 1,1,-1
EndSplineSet
Fore
SplineSet
1053.98339844 518.122070312 m 1
 1053.98339844 321.948242188 l 1
 923.200195312 321.948242188 l 1
 923.200195312 0 l 1
 538.086914062 0 l 1
 538.086914062 321.669921875 l 1
 40 321.669921875 l 1
 40 519.235351562 l 1
 581 1289.47851562 l 1
 923.200195312 1289.47851562 l 5
 923.200195312 518.122070312 l 1
 1053.98339844 518.122070312 l 1
285.426757812 518.122070312 m 1
 538.086914062 518.122070312 l 1
 538.086914062 877.078125 l 1
 285.426757812 518.122070312 l 1
EndSplineSet
Colour: ffff00
EndChar
StartChar: five
Encoding: 53 53 20
Width: 944
VWidth: -37
Flags: HW
LayerCount: 2
Back
SplineSet
474 790 m 0,0,1
 559 790 559 790 631.5 758.5 c 128,-1,2
 704 727 704 727 751 676.5 c 128,-1,3
 798 626 798 626 824 563 c 128,-1,4
 850 500 850 500 850 436 c 0,5,6
 850 337 850 337 806 251.5 c 128,-1,7
 762 166 762 166 690 109.5 c 128,-1,8
 618 53 618 53 527 21.5 c 128,-1,9
 436 -10 436 -10 342 -10 c 0,10,11
 230 -10 230 -10 138 36 c 1,12,13
 126 44 126 44 112 67.5 c 128,-1,14
 98 91 98 91 98 112 c 0,15,16
 98 154 98 154 123 181 c 128,-1,17
 148 208 148 208 182 208 c 0,18,19
 207 208 207 208 226 195 c 128,-1,20
 245 182 245 182 266 154.5 c 128,-1,21
 287 127 287 127 294 120 c 0,22,23
 344 70 344 70 442 70 c 0,24,25
 484 70 484 70 524 86.5 c 128,-1,26
 564 103 564 103 599.5 137.5 c 128,-1,27
 635 172 635 172 656.5 234.5 c 128,-1,28
 678 297 678 297 678 380 c 0,29,30
 678 419 678 419 667.5 459 c 128,-1,31
 657 499 657 499 632 538.5 c 128,-1,32
 607 578 607 578 571 609 c 128,-1,33
 535 640 535 640 480 659 c 128,-1,34
 425 678 425 678 358 678 c 0,35,36
 324 678 324 678 268.5 668.5 c 128,-1,37
 213 659 213 659 190 648 c 1,38,39
 184 648 184 648 179 657 c 128,-1,40
 174 666 174 666 174 676 c 1,41,42
 282 1228 282 1228 290 1270 c 1,43,-1
 586 1270 l 2,44,45
 622 1270 622 1270 668 1274.5 c 0,46,47
 714 1280 714 1280 742 1284 c 2,48,-1
 770 1288 l 1,49,50
 773 1286 773 1286 778.5 1282.5 c 128,-1,51
 784 1279 784 1279 786.5 1277.5 c 128,-1,52
 789 1276 789 1276 791.5 1273 c 128,-1,53
 794 1270 794 1270 794 1266 c 0,54,55
 794 1251 794 1251 775.5 1201 c 128,-1,56
 757 1151 757 1151 734 1124 c 1,57,58
 622 1112 622 1112 502 1112 c 2,59,-1
 334 1112 l 1,60,61
 326 1072 326 1072 311.5 997 c 128,-1,62
 297 922 297 922 285 862 c 128,-1,63
 273 802 273 802 262 752 c 1,64,65
 302 768 302 768 366.5 779 c 128,-1,66
 431 790 431 790 474 790 c 0,0,1
EndSplineSet
Fore
SplineSet
216.973632812 805.486328125 m 1
 401.182617188 900.094726562 854.19140625 848.060546875 854.19140625 437.625976562 c 0
 854.19140625 205.833984375 683.6171875 -19.982421875 378.365234375 -19.982421875 c 4
 243.408203125 -19.982421875 146.294921875 23.294921875 74.50390625 69.486328125 c 1
 74.50390625 233.381835938 l 1
 112.34765625 204.443359375 163.826171875 181.069335938 232.278320312 181.069335938 c 0
 342.469726562 181.069335938 440.6953125 270.668945312 458.50390625 377.799804688 c 0
 482.15625 519.15625 386.991210938 656.6171875 225.04296875 656.6171875 c 2
 40 656.895507812 l 1
 154.365234375 1289.49121094 l 1
 847.365234375 1289.49121094 l 1
 738.15625 1001.93847656 l 1
 251.477539062 1001.38183594 l 1
 216.973632812 805.486328125 l 1
EndSplineSet
Colour: ffff00
EndChar
StartChar: seven
Encoding: 55 55 22
Width: 913
VWidth: -37
Flags: HW
LayerCount: 2
Back
SplineSet
716 1266 m 2,0,1
 747 1266 747 1266 799 1269 c 128,-1,2
 851 1272 851 1272 852 1272 c 0,3,4
 864 1272 864 1272 864 1254 c 0,5,6
 864 1245 864 1245 858.5 1229 c 128,-1,7
 853 1213 853 1213 846.5 1199 c 128,-1,8
 840 1185 840 1185 827.5 1159.5 c 128,-1,9
 815 1134 815 1134 808 1120 c 2,10,-1
 280 -4 l 1,11,12
 274 -10 274 -10 260 -10 c 0,13,14
 235 -10 235 -10 203.5 1.5 c 128,-1,15
 172 13 172 13 172 26 c 1,16,17
 264 165 264 165 406 438.5 c 128,-1,18
 548 712 548 712 644 916 c 2,19,-1
 740 1120 l 1,20,-1
 232 1120 l 2,21,22
 174 1120 174 1120 142.5 1084.5 c 128,-1,23
 111 1049 111 1049 88 966 c 1,24,25
 86 954 86 954 64 954 c 0,26,27
 40 954 40 954 24 966 c 1,28,29
 84 1157 84 1157 108 1266 c 1,30,-1
 716 1266 l 2,0,1
EndSplineSet
Fore
SplineSet
40 1289.49121094 m 5
 823.861328125 1289.49121094 l 5
 823.861328125 980.622070312 l 5
 823.861328125 980.622070312 456.556640625 691.756835938 499.130859375 0 c 5
 93.705078125 0 l 5
 130.9921875 378.991210938 431.791992188 855.404296875 677.217773438 991.473632812 c 5
 231.444335938 991.473632812 l 5
 199.444335938 986.743164062 186.365234375 970.326171875 186.365234375 951.125976562 c 6
 186.365234375 894.361328125 l 5
 186.086914062 894.361328125 l 5
 40 894.361328125 l 5
 40 1289.49121094 l 5
EndSplineSet
Colour: ffff00
EndChar
StartChar: eight
Encoding: 56 56 23
Width: 1005
VWidth: -37
Flags: HW
LayerCount: 2
Back
SplineSet
474 54 m 0,0,1
 573 54 573 54 631.5 114 c 128,-1,2
 690 174 690 174 690 276 c 0,3,4
 690 323 690 323 665 371.5 c 128,-1,5
 640 420 640 420 609 453.5 c 128,-1,6
 578 487 578 487 535 520.5 c 128,-1,7
 492 554 492 554 472 567 c 128,-1,8
 452 580 452 580 434 590 c 0,9,10
 426 594 426 594 422 594 c 0,11,12
 416 594 416 594 414 592 c 0,13,14
 331 539 331 539 293.5 474 c 128,-1,15
 256 409 256 409 256 314 c 0,16,17
 256 197 256 197 322.5 125.5 c 128,-1,18
 389 54 389 54 474 54 c 0,0,1
474 1216 m 0,19,20
 402 1216 402 1216 352 1151 c 128,-1,21
 302 1086 302 1086 302 996 c 0,22,23
 302 944 302 944 320.5 900.5 c 128,-1,24
 339 857 339 857 374.5 824 c 128,-1,25
 410 791 410 791 436 773.5 c 128,-1,26
 462 756 462 756 501 733 c 0,27,28
 507 730 507 730 510 728 c 0,29,30
 518 724 518 724 522 724 c 0,31,32
 528 724 528 724 534 728 c 0,33,34
 670 818 670 818 670 972 c 0,35,36
 670 1065 670 1065 615 1140.5 c 128,-1,37
 560 1216 560 1216 474 1216 c 0,19,20
486 1286 m 0,38,39
 625 1286 625 1286 719.5 1206.5 c 128,-1,40
 814 1127 814 1127 814 992 c 0,41,42
 814 937 814 937 793.5 888.5 c 128,-1,43
 773 840 773 840 734.5 801.5 c 128,-1,44
 696 763 696 763 665.5 739.5 c 128,-1,45
 635 716 635 716 590 688 c 1,46,47
 577 685 577 685 590 676 c 1,48,49
 695 617 695 617 773.5 525 c 128,-1,50
 852 433 852 433 852 334 c 0,51,52
 852 187 852 187 737.5 84.5 c 128,-1,53
 623 -18 623 -18 470 -18 c 0,54,55
 305 -18 305 -18 201.5 72.5 c 128,-1,56
 98 163 98 163 98 308 c 0,57,58
 98 334 98 334 104 359 c 128,-1,59
 110 384 110 384 117 404.5 c 128,-1,60
 124 425 124 425 140 447.5 c 128,-1,61
 156 470 156 470 166.5 485 c 128,-1,62
 177 500 177 500 199.5 520 c 128,-1,63
 222 540 222 540 232.5 549.5 c 128,-1,64
 243 559 243 559 268 576.5 c 128,-1,65
 293 594 293 594 300 599 c 128,-1,66
 307 604 307 604 332 620 c 128,-1,67
 357 636 357 636 358 636 c 0,68,69
 368 643 368 643 358 648 c 0,70,71
 280 695 280 695 217 777.5 c 128,-1,72
 154 860 154 860 154 960 c 0,73,74
 154 1088 154 1088 254 1187 c 128,-1,75
 354 1286 354 1286 486 1286 c 0,38,39
EndSplineSet
Fore
SplineSet
742.833984375 679.008789062 m 5
 776.50390625 658.6953125 854.138671875 600.817382812 894.208007812 529.860351562 c 4
 930.381835938 466.416992188 950.6953125 382.104492188 920.365234375 277.200195312 c 4
 866.66015625 100.782226562 696.365234375 -19.982421875 482.381835938 -19.982421875 c 4
 207.182617188 -19.982421875 70 163.947265625 70 325.338867188 c 4
 70 451.947265625 142.625976562 570.486328125 233.6171875 628.643554688 c 5
 153.19921875 689.860351562 70 798.3828125 70 906.904296875 c 4
 70 1137.02539062 258.381835938 1308.43457031 508.260742188 1308.71289062 c 4
 772.88671875 1308.71289062 904.782226562 1131.73925781 904.782226562 976.748046875 c 4
 904.782226562 855.704101562 829.373046875 735.216796875 742.833984375 679.008789062 c 5
471.530273438 180.921875 m 4
 550 180.921875 605.373046875 237.96484375 605.095703125 319.216796875 c 4
 604.5390625 438.034179688 435.356445312 524.573242188 353.547851562 561.303710938 c 5
 207.182617188 465.58203125 248.642578125 180.921875 471.530273438 180.921875 c 4
632.086914062 740.782226562 m 5
 772.88671875 832.608398438 733.095703125 1106.41699219 518.833984375 1106.41699219 c 4
 443.147460938 1106.41699219 390 1051.87792969 390.278320312 973.686523438 c 4
 390.555664062 859.321289062 553.338867188 776.12109375 632.086914062 740.782226562 c 5
EndSplineSet
Colour: ffff00
EndChar
StartChar: colon
Encoding: 58 58 25
Width: 409
Flags: HW
LayerCount: 2
Back
SplineSet
56 90 m 128,-1,1
 56 135 56 135 89.5 166.5 c 128,-1,2
 123 198 123 198 168 198 c 128,-1,3
 213 198 213 198 244.5 166.5 c 128,-1,4
 276 135 276 135 276 90 c 128,-1,5
 276 45 276 45 244.5 11.5 c 128,-1,6
 213 -22 213 -22 168 -22 c 128,-1,7
 123 -22 123 -22 89.5 11.5 c 128,-1,0
 56 45 56 45 56 90 c 128,-1,1
56 754 m 128,-1,9
 56 799 56 799 89.5 830.5 c 128,-1,10
 123 862 123 862 168 862 c 128,-1,11
 213 862 213 862 244.5 830.5 c 128,-1,12
 276 799 276 799 276 754 c 128,-1,13
 276 709 276 709 244.5 675.5 c 128,-1,14
 213 642 213 642 168 642 c 128,-1,15
 123 642 123 642 89.5 675.5 c 128,-1,8
 56 709 56 709 56 754 c 128,-1,9
EndSplineSet
Fore
SplineSet
204.581054688 329.161132812 m 4
 295.737304688 329.161132812 369.162109375 255.459960938 369.162109375 164.580078125 c 4
 369.162109375 73.7001953125 295.4609375 0 204.581054688 0 c 4
 113.701171875 0 40 73.7001953125 40 164.580078125 c 4
 40 255.459960938 113.701171875 329.161132812 204.581054688 329.161132812 c 4
204.581054688 433.89453125 m 4
 113.701171875 433.89453125 40 507.873046875 40 598.475585938 c 4
 40 689.35546875 113.701171875 763.056640625 204.581054688 763.056640625 c 4
 295.4609375 763.056640625 369.162109375 689.35546875 369.162109375 598.475585938 c 4
 369.162109375 507.595703125 295.4609375 433.89453125 204.581054688 433.89453125 c 4
EndSplineSet
Colour: ffff00
EndChar
StartChar: greater
Encoding: 62 62 29
Width: 641
Flags: HW
LayerCount: 2
Back
SplineSet
-44 70 m 0,0,1
 -44 74 -44 74 -42.5 77 c 0,2,3
 -42 80 -42 80 -40 81 c 2,4,-1
 -38 82 l 1,5,-1
 624 418 l 1,6,-1
 -26 748 l 2,7,8
 -32 750 -32 750 -32 764 c 0,9,10
 -32 789 -32 789 -19.5 824.5 c 128,-1,11
 -7 860 -7 860 0 860 c 0,12,13
 2 860 2 860 10 856 c 2,14,-1
 750 482 l 2,15,16
 784 465 784 465 784 434 c 0,17,18
 784 372 784 372 750 354 c 2,19,-1
 0 -26 l 2,20,21
 -8 -30 -8 -30 -10 -30 c 0,22,23
 -18 -30 -18 -30 -31 12.5 c 128,-1,24
 -44 55 -44 55 -44 70 c 0,0,1
EndSplineSet
Fore
SplineSet
354.59375 494.051757812 m 5
 2.484375 986.5 l 5
 246.484375 986.5 l 5
 601.994140625 494.051757812 l 5
 247.484375 0 l 5
 0 0 l 5
 354.59375 494.051757812 l 5
EndSplineSet
Colour: ffff00
EndChar
StartChar: question
Encoding: 63 63 30
Width: 848
Flags: HW
LayerCount: 2
Back
SplineSet
26 90 m 128,-1,1
 26 135 26 135 59.5 166.5 c 128,-1,2
 93 198 93 198 138 198 c 128,-1,3
 183 198 183 198 214.5 166.5 c 128,-1,4
 246 135 246 135 246 90 c 128,-1,5
 246 45 246 45 214.5 11.5 c 128,-1,6
 183 -22 183 -22 138 -22 c 128,-1,7
 93 -22 93 -22 59.5 11.5 c 128,-1,0
 26 45 26 45 26 90 c 128,-1,1
100 1096 m 0,8,9
 73 1096 73 1096 42.5 1124 c 128,-1,10
 12 1152 12 1152 12 1196 c 0,11,12
 12 1245 12 1245 30 1270 c 1,13,14
 58 1284 58 1284 126 1284 c 0,15,16
 167 1284 167 1284 218 1268.5 c 128,-1,17
 269 1253 269 1253 322 1221 c 128,-1,18
 375 1189 375 1189 419.5 1146 c 128,-1,19
 464 1103 464 1103 492 1042 c 128,-1,20
 520 981 520 981 520 914 c 0,21,22
 520 811 520 811 474.5 741.5 c 128,-1,23
 429 672 429 672 318 608 c 0,24,25
 276 583 276 583 223.5 541.5 c 128,-1,26
 171 500 171 500 162 484 c 0,27,28
 156 473 156 473 153 453.5 c 128,-1,29
 150 434 150 434 149.5 420.5 c 128,-1,30
 149 407 149 407 149.5 379 c 128,-1,31
 150 351 150 351 150 344 c 1,32,33
 138 320 138 320 118 318 c 1,34,35
 99 326 99 326 92 340 c 1,36,37
 76 407 76 407 76 522 c 0,38,39
 76 562 76 562 86.5 596.5 c 128,-1,40
 97 631 97 631 109.5 653 c 128,-1,41
 122 675 122 675 147 698 c 128,-1,42
 172 721 172 721 187.5 732 c 128,-1,43
 203 743 203 743 232 761 c 0,44,45
 242 767 242 767 246 770 c 0,46,47
 287 796 287 796 303.5 807 c 128,-1,48
 320 818 320 818 348.5 840.5 c 128,-1,49
 377 863 377 863 388.5 879.5 c 128,-1,50
 400 896 400 896 410 921 c 128,-1,51
 420 946 420 946 420 974 c 0,52,53
 420 1049 420 1049 376 1093.5 c 128,-1,54
 332 1138 332 1138 272 1138 c 128,-1,55
 212 1138 212 1138 165.5 1117 c 128,-1,56
 119 1096 119 1096 100 1096 c 0,8,9
EndSplineSet
Fore
SplineSet
432.138671875 370.169921875 m 4
 534.37890625 370.169921875 617.22265625 287.325195312 617.22265625 185.0859375 c 4
 617.22265625 82.845703125 534.37890625 0 432.138671875 0 c 4
 329.899414062 0 247.0546875 82.845703125 247.0546875 185.0859375 c 4
 247.0546875 287.325195312 329.899414062 370.169921875 432.138671875 370.169921875 c 4
374.23046875 1289.47851562 m 4
 619.994140625 1289.47851562 765.1796875 1122.95898438 757.975585938 960.31640625 c 4
 752.98828125 855.860351562 690.647460938 787.701171875 648.532226562 751.958007812 c 4
 485.05859375 612.868164062 531.607421875 501.485351562 531.607421875 501.485351562 c 5
 330.73046875 501.485351562 l 6
 330.73046875 502.0390625 264.509765625 610.096679688 362.592773438 808.7578125 c 4
 468.435546875 1022.65722656 396.950195312 1097.74511719 303.022460938 1095.25097656 c 4
 198.567382812 1092.48046875 168.366210938 984.421875 209.649414062 864.450195312 c 5
 43.12890625 936.765625 l 5
 15.14453125 1139.58203125 178.89453125 1289.47851562 374.23046875 1289.47851562 c 4
EndSplineSet
Colour: ffff00
EndChar
StartChar: A
Encoding: 65 65 32
Width: 1254
Flags: HW
HStem: 0 21G<0 207.831 797.156 1184.97> 280.951 195.336<363.179 640.805> 1099.7 189.778<255.951 375.923>
LayerCount: 2
Back
SplineSet
50 278 m 0,0,1
 314 957 314 957 436 1268 c 1,2,3
 444 1283 444 1283 471.5 1304.5 c 128,-1,4
 499 1326 499 1326 512 1326 c 0,5,6
 515 1326 515 1326 518.5 1323.5 c 128,-1,7
 522 1321 522 1321 524 1320 c 1,8,-1
 931 252 l 2,9,10
 981 123 981 123 982 120 c 0,11,12
 995 89 995 89 1044.5 70.5 c 128,-1,13
 1094 52 1094 52 1118 52 c 1,14,15
 1124 43 1124 43 1124 22.5 c 128,-1,16
 1124 2 1124 2 1122 -6 c 1,17,18
 922 4 922 4 902 4 c 0,19,20
 861 4 861 4 825.5 2.5 c 128,-1,21
 790 1 790 1 746 -2 c 128,-1,22
 702 -5 702 -5 670 -6 c 1,23,24
 663 2 663 2 663.5 23 c 128,-1,25
 664 44 664 44 672 52 c 1,26,27
 695 52 695 52 733.5 59.5 c 128,-1,28
 772 67 772 67 784 78 c 0,29,30
 792 86 792 86 792 106 c 0,31,32
 792 133 792 133 758 230.5 c 128,-1,33
 724 328 724 328 690 412 c 2,34,-1
 656 496 l 1,35,36
 650 504 650 504 644 504 c 0,37,38
 618 506 618 506 446 506 c 0,39,40
 320 506 320 506 230 500 c 1,41,-1
 220 494 l 1,42,43
 164 346 164 346 130 250 c 0,44,45
 102 168 102 168 102 108 c 0,46,47
 102 91 102 91 120.5 79 c 128,-1,48
 139 67 139 67 165.5 61.5 c 128,-1,49
 192 56 192 56 211 54 c 128,-1,50
 230 52 230 52 240 52 c 1,51,52
 244 48 244 48 245.5 25.5 c 128,-1,53
 247 3 247 3 244 -6 c 1,54,55
 215 -5 215 -5 181 -2 c 128,-1,56
 147 1 147 1 118 2.5 c 128,-1,57
 89 4 89 4 50 4 c 0,58,59
 9 4 9 4 -22.5 2.5 c 128,-1,60
 -54 1 -54 1 -92 -2 c 128,-1,61
 -130 -5 -130 -5 -164 -6 c 1,62,63
 -168 -2 -168 -2 -168 20 c 128,-1,64
 -168 42 -168 42 -164 52 c 1,65,66
 -139 52 -139 52 -98 62.5 c 128,-1,67
 -57 73 -57 73 -44 90 c 0,68,69
 -2 145 -2 145 50 278 c 0,0,1
442 1084 m 1,1,-1
 258 596 l 1,71,72
 258 588 258 588 262 588 c 0,73,74
 366 584 366 584 444 584 c 0,75,76
 519 584 519 584 612 590 c 0,77,78
 614 590 614 590 615.5 592.5 c 0,79,80
 618 596 618 596 618 598 c 2,81,-1
 618 600 l 1,82,-1
 442 1084 l 1,1,-1
EndSplineSet
Fore
SplineSet
754 1289.47851562 m 5
 1184.97460938 0 l 5
 804 0 l 5
 707.85546875 280.951171875 l 5
 296.958007812 280.951171875 l 5
 201 0 l 5
 0 0 l 5
 375.922851562 1099.70019531 l 5
 255.951171875 1099.70019531 l 5
 255.951171875 1289.47851562 l 5
 754 1289.47851562 l 5
363.178710938 476.287109375 m 5
 640.8046875 476.287109375 l 5
 501.71484375 882.751953125 l 5
 363.178710938 476.287109375 l 5
EndSplineSet
Colour: ffff00
EndChar
StartChar: C
Encoding: 67 67 34
Width: 1170
Flags: HW
LayerCount: 2
Back
SplineSet
712 1334 m 0,0,1
 942 1334 942 1334 1136 1292 c 1,2,3
 1182 1016 1182 1016 1182 996 c 1,4,5
 1183 987 1183 987 1168 978.5 c 128,-1,6
 1153 970 1153 970 1138 970 c 128,-1,7
 1123 970 1123 970 1114 976 c 1,8,9
 1057 1268 1057 1268 722 1268 c 0,10,11
 580 1268 580 1268 466 1180 c 128,-1,12
 352 1092 352 1092 293 960 c 128,-1,13
 234 828 234 828 234 686 c 0,14,15
 234 591 234 591 254.5 500.5 c 128,-1,16
 275 410 275 410 317.5 329 c 128,-1,17
 360 248 360 248 420.5 187 c 128,-1,18
 481 126 481 126 567 90 c 128,-1,19
 653 54 653 54 754 54 c 0,20,21
 909 54 909 54 1018 150 c 1,22,23
 1108 231 1108 231 1140 382 c 1,24,25
 1175 385 1175 385 1204 366 c 1,26,27
 1204 328 1204 328 1178.5 211 c 128,-1,28
 1153 94 1153 94 1134 78 c 1,29,30
 974 -12 974 -12 704 -12 c 0,31,32
 559 -12 559 -12 433 41 c 128,-1,33
 307 94 307 94 221 183 c 128,-1,34
 135 272 135 272 85.5 392 c 128,-1,35
 36 512 36 512 36 644 c 0,36,37
 36 783 36 783 87 909.5 c 128,-1,38
 138 1036 138 1036 226 1129.5 c 128,-1,39
 314 1223 314 1223 441 1278.5 c 128,-1,40
 568 1334 568 1334 712 1334 c 0,0,1
EndSplineSet
Fore
SplineSet
956.658203125 379.625976562 m 5
 1090.20703125 245.5234375 l 5
 1027.58789062 104.215820312 864.669921875 -35.982421875 663.791992188 -35.982421875 c 4
 341.834960938 -35.982421875 80 256.606445312 80 616.247070312 c 4
 80 1006.91796875 328.811523438 1324.72070312 654.09375 1324.72070312 c 4
 826.987304688 1324.72070312 914.265625 1242.4296875 914.54296875 1242.15234375 c 6
 914.54296875 1324.72070312 l 5
 1061.9453125 1324.72070312 l 5
 1061.9453125 908.002929688 l 5
 913.711914062 908.002929688 l 5
 913.711914062 908.002929688 911.771484375 1117.46972656 707.291992188 1117.46972656 c 4
 593.416015625 1117.46972656 500.873046875 1029.91503906 500.873046875 918.532226562 c 6
 500.873046875 371.037109375 l 6
 500.873046875 259.654296875 594.5234375 169.328125 707.291992188 169.328125 c 4
 896.810546875 169.328125 950.5625 355.798828125 956.658203125 379.625976562 c 5
EndSplineSet
Colour: ffff00
EndChar
StartChar: E
Encoding: 69 69 36
Width: 1118
Flags: HW
LayerCount: 2
Back
SplineSet
187 1314 m 0,0,1
 277 1314 277 1314 497.5 1321 c 128,-1,2
 718 1328 718 1328 831 1328 c 1,3,4
 839 1270 839 1270 861.5 1175 c 128,-1,5
 884 1080 884 1080 889 1056 c 1,6,7
 879 1046 879 1046 853 1046 c 0,8,9
 828 1046 828 1046 825 1060 c 0,10,11
 794 1171 794 1171 738.5 1209.5 c 128,-1,12
 683 1248 683 1248 593 1248 c 2,13,-1
 421 1248 l 2,14,15
 290 1248 290 1248 283 1226 c 0,16,17
 271 1188 271 1188 273 1084 c 1,18,-1
 273 710 l 1,19,20
 272 703 272 703 296 700.5 c 128,-1,21
 320 698 320 698 359 698 c 2,22,-1
 465 698 l 2,23,24
 515 698 515 698 543 699 c 128,-1,25
 571 700 571 700 595.5 705 c 128,-1,26
 620 710 620 710 631 718 c 128,-1,27
 642 726 642 726 652 740.5 c 128,-1,28
 662 755 662 755 667.5 775 c 128,-1,29
 673 795 673 795 681 825 c 0,30,31
 683 836 683 836 685 842 c 0,32,33
 688 856 688 856 715 856 c 0,34,35
 739 856 739 856 749 846 c 1,36,-1
 749 468 l 1,37,38
 741 460 741 460 717 460 c 0,39,40
 691 460 691 460 685 476 c 1,41,42
 664 555 664 555 654 576.5 c 128,-1,43
 644 598 644 598 629 608 c 0,44,45
 604 624 604 624 417 624 c 0,46,47
 397 624 397 624 386 624 c 128,-1,48
 375 624 375 624 355 623.5 c 128,-1,49
 335 623 335 623 323 622 c 128,-1,50
 311 621 311 621 298 619 c 128,-1,51
 285 617 285 617 279 613.5 c 128,-1,52
 273 610 273 610 273 606 c 2,53,-1
 273 226 l 1,54,55
 272 191 272 191 274.5 143 c 128,-1,56
 277 95 277 95 285 88 c 0,57,58
 303 74 303 74 329.5 71 c 128,-1,59
 356 68 356 68 427 68 c 2,60,-1
 523 68 l 2,61,62
 595 68 595 68 664.5 82.5 c 128,-1,63
 734 97 734 97 775 122 c 0,64,65
 818 148 818 148 844 194.5 c 128,-1,66
 870 241 870 241 901 324 c 1,67,68
 904 336 904 336 929 336 c 0,69,70
 967 336 967 336 979 324 c 1,71,72
 970 298 970 298 949 241 c 128,-1,73
 928 184 928 184 915.5 148.5 c 128,-1,74
 903 113 903 113 889.5 68 c 128,-1,75
 876 23 876 23 871 -8 c 1,76,77
 768 -8 768 -8 548 -4 c 128,-1,78
 328 0 328 0 189 0 c 0,79,80
 140 0 140 0 64 -3 c 128,-1,81
 -12 -6 -12 -6 -49 -6 c 1,82,83
 -56 2 -56 2 -55.5 23 c 128,-1,84
 -55 44 -55 44 -49 52 c 1,85,86
 -19 52 -19 52 33 61 c 128,-1,87
 85 70 85 70 89 84 c 0,88,89
 99 116 99 116 99 232 c 2,90,-1
 99 1086 l 2,91,92
 99 1202 99 1202 89 1234 c 0,93,94
 85 1248 85 1248 33 1257 c 128,-1,95
 -19 1266 -19 1266 -49 1266 c 1,96,97
 -55 1274 -55 1274 -55.5 1295 c 128,-1,98
 -56 1316 -56 1316 -49 1324 c 1,99,100
 156 1314 156 1314 187 1314 c 0,0,1
EndSplineSet
Fore
SplineSet
883.306640625 393.442382812 m 5
 1028.76855469 393.442382812 l 5
 1028.76855469 0 l 5
 105.563476562 0 l 5
 105.563476562 1098.86914062 l 5
 0 1098.86914062 l 5
 0 1289.47851562 l 5
 975.293945312 1289.47851562 l 5
 975.293945312 889.956054688 l 5
 829.831054688 889.956054688 l 5
 829.553710938 1037.08105469 l 6
 829.553710938 1081.96679688 810.713867188 1097.76074219 789.1015625 1098.86914062 c 6
 488.754882812 1098.86914062 l 5
 488.754882812 775.248046875 l 5
 624.520507812 775.525390625 l 5
 624.520507812 841.19140625 l 5
 769.983398438 841.19140625 l 5
 769.983398438 513.69140625 l 5
 624.520507812 513.69140625 l 5
 624.520507812 580.188476562 l 5
 488.754882812 580.188476562 l 5
 488.754882812 184.252929688 l 5
 834.541992188 184.252929688 l 6
 869.452148438 188.131835938 883.029296875 205.310546875 883.029296875 225.259765625 c 6
 883.306640625 393.442382812 l 5
EndSplineSet
Colour: ffff00
EndChar
StartChar: F
Encoding: 70 70 37
Width: 1065
Flags: HW
LayerCount: 2
Back
SplineSet
187 1314 m 0,0,1
 277 1314 277 1314 497.5 1321 c 128,-1,2
 718 1328 718 1328 831 1328 c 1,3,4
 839 1270 839 1270 861.5 1175 c 128,-1,5
 884 1080 884 1080 889 1056 c 1,6,7
 879 1046 879 1046 853 1046 c 0,8,9
 828 1046 828 1046 825 1060 c 0,10,11
 794 1171 794 1171 738.5 1209.5 c 128,-1,12
 683 1248 683 1248 593 1248 c 2,13,-1
 421 1248 l 2,14,15
 290 1248 290 1248 283 1226 c 0,16,17
 273 1194 273 1194 273 1084 c 2,18,-1
 273 710 l 1,19,20
 272 703 272 703 296 700.5 c 128,-1,21
 320 698 320 698 359 698 c 2,22,-1
 465 698 l 2,23,24
 515 698 515 698 543 699 c 128,-1,25
 571 700 571 700 595.5 705 c 128,-1,26
 620 710 620 710 631 718 c 128,-1,27
 642 726 642 726 652 740.5 c 128,-1,28
 662 755 662 755 667.5 775 c 128,-1,29
 673 795 673 795 681 825 c 0,30,31
 683 836 683 836 685 842 c 0,32,33
 688 856 688 856 715 856 c 0,34,35
 739 856 739 856 749 846 c 1,36,-1
 749 468 l 1,37,38
 741 460 741 460 717 460 c 0,39,40
 691 460 691 460 685 476 c 1,41,42
 664 555 664 555 654 576.5 c 128,-1,43
 644 598 644 598 629 608 c 0,44,45
 604 624 604 624 417 624 c 0,46,47
 273 624 273 624 273 606 c 2,48,-1
 273 232 l 2,49,50
 273 116 273 116 283 84 c 0,51,52
 287 70 287 70 347.5 61 c 128,-1,53
 408 52 408 52 441 52 c 1,54,55
 447 44 447 44 447.5 23 c 128,-1,56
 448 2 448 2 441 -6 c 1,57,58
 236 4 236 4 187 4 c 128,-1,59
 138 4 138 4 63 -1 c 128,-1,60
 -12 -6 -12 -6 -49 -6 c 1,61,62
 -56 2 -56 2 -55.5 23 c 128,-1,63
 -55 44 -55 44 -49 52 c 1,64,65
 -19 52 -19 52 33 61 c 128,-1,66
 85 70 85 70 89 84 c 0,67,68
 99 116 99 116 99 232 c 2,69,-1
 99 1086 l 2,70,71
 99 1202 99 1202 89 1234 c 0,72,73
 85 1248 85 1248 33 1257 c 128,-1,74
 -19 1266 -19 1266 -49 1266 c 1,75,76
 -55 1274 -55 1274 -55.5 1295 c 128,-1,77
 -56 1316 -56 1316 -49 1324 c 1,78,79
 156 1314 156 1314 187 1314 c 0,0,1
EndSplineSet
Fore
SplineSet
0 1289.47851562 m 5
 975.294921875 1289.47851562 l 1
 975.294921875 889.956054688 l 1
 829.831054688 889.956054688 l 1
 829.5546875 1037.08105469 l 2
 829.5546875 1081.96777344 810.713867188 1097.75976562 789.102539062 1098.86914062 c 2
 488.754882812 1098.86914062 l 1
 488.754882812 753.635742188 l 1
 624.521484375 753.913085938 l 1
 624.521484375 819.579101562 l 1
 769.983398438 819.579101562 l 1
 769.983398438 492.080078125 l 1
 624.521484375 492.080078125 l 1
 624.521484375 558.577148438 l 1
 488.754882812 558.577148438 l 1
 488.754882812 0 l 1
 105.564453125 0 l 1
 105.564453125 1099.14550781 l 1
 0 1099.14550781 l 1
 0 1289.47851562 l 5
EndSplineSet
Colour: ffff00
EndChar
StartChar: G
Encoding: 71 71 38
Width: 1308
Flags: HW
LayerCount: 2
Back
SplineSet
1010 350 m 2,0,1
 1010 466 1010 466 1000 498 c 0,2,3
 996 512 996 512 945 521 c 128,-1,4
 894 530 894 530 864 530 c 1,5,6
 858 538 858 538 857.5 559 c 128,-1,7
 857 580 857 580 864 588 c 1,8,9
 1069 578 1069 578 1098 578 c 0,10,11
 1117 578 1117 578 1322 588 c 1,12,13
 1329 580 1329 580 1328.5 559 c 128,-1,14
 1328 538 1328 538 1322 530 c 1,15,16
 1293 530 1293 530 1244.5 521 c 128,-1,17
 1196 512 1196 512 1192 498 c 0,18,19
 1182 466 1182 466 1182 350 c 2,20,-1
 1182 208 l 2,21,22
 1182 184 1182 184 1192 159.5 c 128,-1,23
 1202 135 1202 135 1202 128 c 0,24,25
 1202 119 1202 119 1194.5 112 c 128,-1,26
 1187 105 1187 105 1162 92 c 0,27,28
 1102 60 1102 60 1061.5 42.5 c 128,-1,29
 1021 25 1021 25 923.5 6.5 c 128,-1,30
 826 -12 826 -12 704 -12 c 0,31,32
 559 -12 559 -12 433 41 c 128,-1,33
 307 94 307 94 221 183 c 128,-1,34
 135 272 135 272 85.5 392 c 128,-1,35
 36 512 36 512 36 644 c 0,36,37
 36 783 36 783 87 909.5 c 128,-1,38
 138 1036 138 1036 226 1129.5 c 128,-1,39
 314 1223 314 1223 441 1278.5 c 128,-1,40
 568 1334 568 1334 712 1334 c 0,41,42
 942 1334 942 1334 1136 1292 c 1,43,44
 1182 1016 1182 1016 1182 996 c 1,45,46
 1183 987 1183 987 1168 978.5 c 128,-1,47
 1153 970 1153 970 1138 970 c 128,-1,48
 1123 970 1123 970 1114 976 c 1,49,50
 1057 1268 1057 1268 722 1268 c 0,51,52
 580 1268 580 1268 466 1180 c 128,-1,53
 352 1092 352 1092 293 960 c 128,-1,54
 234 828 234 828 234 686 c 0,55,56
 234 591 234 591 254 500.5 c 128,-1,57
 274 410 274 410 316.5 329 c 128,-1,58
 359 248 359 248 419.5 187 c 128,-1,59
 480 126 480 126 566 90 c 128,-1,60
 652 54 652 54 754 54 c 0,61,62
 868 54 868 54 996 118 c 0,63,64
 1010 125 1010 125 1010 148 c 2,65,-1
 1010 350 l 2,0,1
EndSplineSet
Fore
SplineSet
1228.46386719 694.1015625 m 5
 1228.1875 694.1015625 l 5
 1228.1875 545.58984375 l 5
 1090.20605469 545.58984375 l 5
 1090.20605469 245.521484375 l 5
 1027.58789062 104.213867188 864.66796875 -35.984375 663.791992188 -35.984375 c 4
 341.833007812 -35.984375 80 256.604492188 80 616.244140625 c 4
 80 1006.91601562 331.58203125 1324.71875 660.744140625 1324.71875 c 4
 823.662109375 1324.71875 914.264648438 1242.42773438 914.541992188 1242.14941406 c 6
 914.541992188 1324.71875 l 5
 1061.390625 1324.71875 l 5
 1061.390625 908.278320312 l 5
 913.7109375 908.278320312 l 5
 913.7109375 908.278320312 904.290039062 1118.57617188 707.291992188 1118.57617188 c 4
 593.415039062 1118.57617188 500.872070312 1029.91308594 500.872070312 918.530273438 c 6
 500.872070312 371.03515625 l 6
 500.872070312 259.65234375 594.522460938 169.326171875 707.291992188 169.326171875 c 4
 708.676757812 169.326171875 743.034179688 169.326171875 775.728515625 169.326171875 c 5
 775.728515625 545.58984375 l 5
 637.74609375 545.58984375 l 5
 637.74609375 694.1015625 l 5
 1228.46386719 694.1015625 l 5
EndSplineSet
Colour: ffff00
EndChar
StartChar: I
Encoding: 73 73 40
Width: 734
Flags: HW
HStem: 0 184.53<50 155.563 539.032 644.873> 1099.15 190.332<50 155.563 539.032 644.873>
VStem: 155.563 383.469<184.53 1099.15>
LayerCount: 2
Back
SplineSet
237 1314 m 0,0,1
 266 1314 266 1314 471 1324 c 1,2,3
 478 1316 478 1316 477.5 1295 c 128,-1,4
 477 1274 477 1274 471 1266 c 1,5,6
 441 1266 441 1266 389 1257 c 128,-1,7
 337 1248 337 1248 333 1234 c 0,8,9
 323 1202 323 1202 323 1086 c 2,10,-1
 323 232 l 2,11,12
 323 116 323 116 333 84 c 0,13,14
 337 70 337 70 389 61 c 128,-1,15
 441 52 441 52 471 52 c 1,16,17
 477 44 477 44 477.5 23 c 128,-1,18
 478 2 478 2 471 -6 c 1,19,20
 266 4 266 4 237 4 c 0,21,22
 206 4 206 4 1 -6 c 1,23,24
 -6 2 -6 2 -5.5 23 c 128,-1,25
 -5 44 -5 44 1 52 c 1,26,27
 31 52 31 52 83 61 c 128,-1,28
 135 70 135 70 139 84 c 0,29,30
 149 116 149 116 149 232 c 2,31,-1
 149 1086 l 2,32,33
 149 1202 149 1202 139 1234 c 0,34,35
 135 1248 135 1248 83 1257 c 128,-1,36
 31 1266 31 1266 1 1266 c 1,37,38
 -5 1274 -5 1274 -5.5 1295 c 128,-1,39
 -6 1316 -6 1316 1 1324 c 1,40,41
 206 1314 206 1314 237 1314 c 0,0,1
EndSplineSet
Fore
SplineSet
644.873046875 1099.14648438 m 1
 539.032226562 1099.14648438 l 1
 539.032226562 184.530273438 l 1
 644.873046875 184.530273438 l 1
 644.873046875 0 l 1
 50 0 l 1
 50 184.530273438 l 1
 155.563476562 184.530273438 l 1
 155.563476562 1099.14648438 l 1
 50 1099.14648438 l 1
 50 1289.47851562 l 1
 644.873046875 1289.47851562 l 1
 644.873046875 1099.14648438 l 1
EndSplineSet
Colour: ffff00
EndChar
StartChar: K
Encoding: 75 75 42
Width: 1325
Flags: HW
LayerCount: 2
Back
SplineSet
187 1314 m 0,0,1
 216 1314 216 1314 421 1324 c 1,2,3
 428 1316 428 1316 427.5 1292 c 128,-1,4
 427 1268 427 1268 421 1260 c 1,5,6
 391 1260 391 1260 339 1251 c 128,-1,7
 287 1242 287 1242 283 1228 c 0,8,9
 271 1190 271 1190 273 1080 c 1,10,-1
 273 682 l 1,11,12
 325 714 325 714 499 884 c 1,13,14
 615 999 615 999 661 1048 c 128,-1,15
 707 1097 707 1097 753 1156 c 0,16,17
 781 1193 781 1193 781 1218 c 0,18,19
 781 1226 781 1226 778 1232.5 c 128,-1,20
 775 1239 775 1239 769 1243.5 c 128,-1,21
 763 1248 763 1248 756 1251.5 c 128,-1,22
 749 1255 749 1255 740 1257 c 128,-1,23
 731 1259 731 1259 723.5 1260 c 128,-1,24
 716 1261 716 1261 706 1261.5 c 128,-1,25
 696 1262 696 1262 690.5 1262 c 128,-1,26
 685 1262 685 1262 677.5 1262 c 128,-1,27
 670 1262 670 1262 669 1262 c 0,28,29
 664 1271 664 1271 664 1290.5 c 128,-1,30
 664 1310 664 1310 669 1324 c 1,31,32
 692 1323 692 1323 740.5 1319.5 c 128,-1,33
 789 1316 789 1316 827.5 1314 c 128,-1,34
 866 1312 866 1312 899 1312 c 0,35,36
 951 1312 951 1312 1024 1317.5 c 128,-1,37
 1097 1323 1097 1323 1115 1324 c 1,38,39
 1119 1315 1119 1315 1118.5 1288.5 c 128,-1,40
 1118 1262 1118 1262 1111 1262 c 2,41,-1
 1095 1261 l 2,42,43
 1079 1260 1079 1260 1066 1258.5 c 128,-1,44
 1053 1257 1053 1257 1031 1252 c 128,-1,45
 1009 1247 1009 1247 990.5 1239.5 c 128,-1,46
 972 1232 972 1232 950.5 1219 c 128,-1,47
 929 1206 929 1206 913 1188 c 0,48,49
 852 1122 852 1122 789 1057.5 c 128,-1,50
 726 993 726 993 686 954 c 128,-1,51
 646 915 646 915 568.5 841 c 128,-1,52
 491 767 491 767 450 728 c 1,53,54
 445 720 445 720 450 712 c 1,55,56
 463 697 463 697 506 646.5 c 128,-1,57
 549 596 549 596 563 580 c 128,-1,58
 577 564 577 564 615.5 519.5 c 128,-1,59
 654 475 654 475 670 456.5 c 128,-1,60
 686 438 686 438 720 399.5 c 128,-1,61
 754 361 754 361 772.5 341 c 128,-1,62
 791 321 791 321 820 289.5 c 128,-1,63
 849 258 849 258 870 236.5 c 128,-1,64
 891 215 891 215 915.5 190.5 c 128,-1,65
 940 166 940 166 963 144 c 0,66,67
 1006 104 1006 104 1055.5 81 c 128,-1,68
 1105 58 1105 58 1181 52 c 1,69,70
 1187 41 1187 41 1184.5 20.5 c 128,-1,71
 1182 0 1182 0 1179 -6 c 1,72,73
 958 -6 958 -6 895 16 c 0,74,75
 817 44 817 44 759 102 c 0,76,77
 704 156 704 156 309 608 c 0,78,79
 305 614 305 614 291 614 c 0,80,81
 281 614 281 614 273 610 c 1,82,-1
 273 238 l 2,83,84
 273 122 273 122 283 90 c 0,85,86
 287 76 287 76 339 67 c 128,-1,87
 391 58 391 58 421 58 c 1,88,89
 427 50 427 50 427.5 26 c 128,-1,90
 428 2 428 2 421 -6 c 1,91,92
 216 4 216 4 187 4 c 0,93,94
 156 4 156 4 -49 -6 c 1,95,96
 -56 2 -56 2 -55.5 26 c 128,-1,97
 -55 50 -55 50 -49 58 c 1,98,99
 -19 58 -19 58 33 67 c 128,-1,100
 85 76 85 76 89 90 c 0,101,102
 99 122 99 122 99 238 c 2,103,-1
 99 1080 l 2,104,105
 99 1196 99 1196 89 1228 c 0,106,107
 85 1242 85 1242 33 1251 c 128,-1,108
 -19 1260 -19 1260 -49 1260 c 1,109,110
 -55 1268 -55 1268 -55.5 1292 c 128,-1,111
 -56 1316 -56 1316 -49 1324 c 1,112,113
 156 1314 156 1314 187 1314 c 0,0,1
EndSplineSet
Fore
SplineSet
1255.34082031 1289.47851562 m 1
 883.029296875 874.994140625 l 1
 1175.34082031 0 l 1
 795.474609375 0 l 1
 602.631835938 563.288085938 l 1
 489.032226562 436.666015625 l 1
 489.032226562 0 l 1
 105.840820312 0 l 1
 105.840820312 1099.14648438 l 1
 0 1099.14648438 l 1
 0 1289.47851562 l 1
 489.032226562 1289.20117188 l 1
 489.032226562 722.604492188 l 1
 999.340820312 1289.47851562 l 1
 1255.34082031 1289.47851562 l 1
EndSplineSet
Colour: ffff00
EndChar
StartChar: L
Encoding: 76 76 43
Width: 1118
Flags: HW
LayerCount: 2
Back
SplineSet
273 232 m 2,0,1
 273 98 273 98 285 88 c 0,2,3
 303 74 303 74 329.5 71 c 128,-1,4
 356 68 356 68 427 68 c 2,5,-1
 541 68 l 2,6,7
 604 68 604 68 670 81.5 c 128,-1,8
 736 95 736 95 775 122 c 0,9,10
 857 178 857 178 901 324 c 0,11,12
 904 336 904 336 929 336 c 0,13,14
 967 336 967 336 979 324 c 1,15,16
 970 298 970 298 949 241 c 128,-1,17
 928 184 928 184 915.5 148.5 c 128,-1,18
 903 113 903 113 889.5 68 c 128,-1,19
 876 23 876 23 871 -8 c 1,20,21
 768 -8 768 -8 548 -4 c 128,-1,22
 328 0 328 0 189 0 c 0,23,24
 140 0 140 0 64 -3 c 128,-1,25
 -12 -6 -12 -6 -49 -6 c 1,26,27
 -56 2 -56 2 -55.5 23 c 128,-1,28
 -55 44 -55 44 -49 52 c 1,29,30
 -19 52 -19 52 33 61 c 128,-1,31
 85 70 85 70 89 84 c 0,32,33
 99 116 99 116 99 232 c 2,34,-1
 99 1086 l 2,35,36
 99 1202 99 1202 89 1234 c 0,37,38
 85 1248 85 1248 33 1257 c 128,-1,39
 -19 1266 -19 1266 -49 1266 c 1,40,41
 -55 1274 -55 1274 -55.5 1295 c 128,-1,42
 -56 1316 -56 1316 -49 1324 c 1,43,44
 156 1314 156 1314 187 1314 c 0,45,46
 216 1314 216 1314 421 1324 c 1,47,48
 428 1316 428 1316 427.5 1295 c 128,-1,49
 427 1274 427 1274 421 1266 c 1,50,51
 391 1266 391 1266 339 1257 c 128,-1,52
 287 1248 287 1248 283 1234 c 0,53,54
 271 1196 271 1196 273 1086 c 1,55,-1
 273 232 l 2,0,1
EndSplineSet
Fore
SplineSet
883.306640625 393.165039062 m 1
 883.306640625 393.442382812 l 1
 1028.76855469 393.442382812 l 1
 1028.76855469 0 l 1
 105.563476562 0 l 1
 105.563476562 1098.86914062 l 1
 0 1098.86914062 l 1
 0 1289.47851562 l 1
 488.754882812 1289.47851562 l 1
 488.754882812 183.975585938 l 1
 834.541992188 183.975585938 l 2
 869.452148438 187.854492188 883.029296875 205.033203125 883.029296875 224.982421875 c 2
 883.306640625 393.165039062 l 1
EndSplineSet
Colour: ffff00
EndChar
StartChar: N
Encoding: 78 78 45
Width: 1232
Flags: HW
LayerCount: 2
Back
SplineSet
146 1320 m 0,0,1
 242 1320 242 1320 298 1324 c 1,2,3
 348 1246 348 1246 658 868.5 c 128,-1,4
 968 491 968 491 1082 332 c 1,5,-1
 1082 448 l 1,6,-1
 1082 1090 l 2,7,8
 1082 1152 1082 1152 1079 1179 c 128,-1,9
 1076 1206 1076 1206 1062 1228 c 0,10,11
 1054 1242 1054 1242 996.5 1255 c 128,-1,12
 939 1268 939 1268 910 1268 c 1,13,14
 903 1278 903 1278 902.5 1298 c 128,-1,15
 902 1318 902 1318 906 1326 c 1,16,17
 1106 1316 1106 1316 1136 1316 c 0,18,19
 1177 1316 1177 1316 1208.5 1317.5 c 128,-1,20
 1240 1319 1240 1319 1278 1322 c 128,-1,21
 1316 1325 1316 1325 1350 1326 c 1,22,23
 1365 1301 1365 1301 1350 1268 c 1,24,25
 1322 1268 1322 1268 1262.5 1256 c 128,-1,26
 1203 1244 1203 1244 1194 1228 c 0,27,28
 1181 1207 1181 1207 1177.5 1180 c 128,-1,29
 1174 1153 1174 1153 1174 1092 c 2,30,-1
 1174 278 l 2,31,32
 1174 106 1174 106 1178 2 c 1,33,34
 1176 -10 1176 -10 1152 -10 c 0,35,36
 1141 -10 1141 -10 1120.5 1 c 128,-1,37
 1100 12 1100 12 1082 36 c 2,38,-1
 210 1138 l 1,39,-1
 210 230 l 2,40,41
 210 168 210 168 213 141 c 128,-1,42
 216 114 216 114 230 92 c 0,43,44
 238 78 238 78 294.5 65 c 128,-1,45
 351 52 351 52 380 52 c 1,46,47
 387 42 387 42 387.5 22 c 128,-1,48
 388 2 388 2 384 -6 c 1,49,50
 184 4 184 4 156 4 c 0,51,52
 115 4 115 4 83.5 2.5 c 128,-1,53
 52 1 52 1 14 -2 c 128,-1,54
 -24 -5 -24 -5 -58 -6 c 1,55,56
 -73 19 -73 19 -58 52 c 1,57,58
 -30 52 -30 52 29.5 64 c 128,-1,59
 89 76 89 76 98 92 c 0,60,61
 111 113 111 113 114.5 140 c 128,-1,62
 118 167 118 167 118 228 c 2,63,-1
 118 1096 l 2,64,65
 118 1157 118 1157 114.5 1184 c 128,-1,66
 111 1211 111 1211 98 1232 c 0,67,68
 89 1248 89 1248 29.5 1260 c 128,-1,69
 -30 1272 -30 1272 -58 1272 c 1,70,71
 -73 1305 -73 1305 -58 1330 c 1,72,73
 -26 1329 -26 1329 41 1324.5 c 128,-1,74
 108 1320 108 1320 146 1320 c 0,0,1
EndSplineSet
Fore
SplineSet
941.768554688 1289.47851562 m 5
 1142.92285156 1289.47851562 l 5
 1142.92285156 0 l 5
 877.48828125 0 l 5
 307.827148438 840.083984375 l 5
 307.827148438 0 l 5
 106.672851562 0 l 5
 106.672851562 1099.14648438 l 5
 0 1099.14648438 l 5
 0 1289.47851562 l 5
 431.922851562 1289.47851562 l 5
 941.768554688 539.18359375 l 5
 941.768554688 1289.47851562 l 5
EndSplineSet
Colour: ffff00
EndChar
StartChar: Q
Encoding: 81 81 48
Width: 1297
Flags: HW
LayerCount: 2
Back
SplineSet
656 1266 m 0,0,1
 569 1266 569 1266 497.5 1232.5 c 128,-1,2
 426 1199 426 1199 378.5 1144 c 128,-1,3
 331 1089 331 1089 298 1015 c 128,-1,4
 265 941 265 941 250.5 862 c 128,-1,5
 236 783 236 783 236 700 c 0,6,7
 236 582 236 582 268.5 467 c 128,-1,8
 301 352 301 352 360 258 c 128,-1,9
 419 164 419 164 512.5 106 c 128,-1,10
 606 48 606 48 718 48 c 0,11,12
 805 48 805 48 877 81.5 c 128,-1,13
 949 115 949 115 996.5 170.5 c 128,-1,14
 1044 226 1044 226 1077.5 300.5 c 128,-1,15
 1111 375 1111 375 1125.5 455 c 128,-1,16
 1140 535 1140 535 1140 618 c 0,17,18
 1140 736 1140 736 1107 850.5 c 128,-1,19
 1074 965 1074 965 1014.5 1058 c 128,-1,20
 955 1151 955 1151 861.5 1208.5 c 128,-1,21
 768 1266 768 1266 656 1266 c 0,0,1
686 1334 m 0,22,23
 817 1334 817 1334 936 1283.5 c 128,-1,24
 1055 1233 1055 1233 1144 1145 c 128,-1,25
 1233 1057 1233 1057 1285.5 929.5 c 128,-1,26
 1338 802 1338 802 1338 656 c 0,27,28
 1338 430 1338 430 1206.5 251 c 128,-1,29
 1075 72 1075 72 872 8 c 1,30,31
 927 -18 927 -18 990.5 -56 c 128,-1,32
 1054 -94 1054 -94 1088 -113 c 128,-1,33
 1122 -132 1122 -132 1179.5 -147 c 128,-1,34
 1237 -162 1237 -162 1310 -162 c 0,35,36
 1410 -162 1410 -162 1452 -150 c 1,37,38
 1479 -150 1479 -150 1488 -164 c 0,39,40
 1490 -168 1490 -168 1490 -170 c 1,41,42
 1394 -221 1394 -221 1318 -246.5 c 128,-1,43
 1242 -272 1242 -272 1158 -272 c 0,44,45
 1098 -272 1098 -272 1036.5 -250.5 c 128,-1,46
 975 -229 975 -229 917 -195 c 128,-1,47
 859 -161 859 -161 801 -125 c 128,-1,48
 743 -89 743 -89 670 -53.5 c 128,-1,49
 597 -18 597 -18 526 0 c 0,50,51
 312 54 312 54 175 232.5 c 128,-1,52
 38 411 38 411 38 656 c 0,53,54
 38 794 38 794 90 919.5 c 128,-1,55
 142 1045 142 1045 229.5 1135.5 c 128,-1,56
 317 1226 317 1226 436.5 1280 c 128,-1,57
 556 1334 556 1334 686 1334 c 0,22,23
EndSplineSet
Fore
SplineSet
1068.59472656 1105.55566406 m 4
 1160.85839844 990.294921875 1217.65820312 838.458007812 1217.38183594 671.938476562 c 4
 1217.38183594 491.009765625 1160.3046875 326.151367188 1066.93164062 200.915039062 c 4
 987.965820312 94.796875 882.677734375 13.6142578125 763.813476562 -19.912109375 c 5
 838.069335938 -109.12890625 949.73046875 -78.373046875 949.73046875 -78.373046875 c 5
 950.284179688 -223.004882812 l 5
 848.043945312 -240.737304688 723.084960938 -217.186523438 634.975585938 -128.80078125 c 4
 605.051757812 -98.599609375 581.5 -64.7978515625 563.213867188 -28.5009765625 c 5
 430.49609375 -4.671875 314.95703125 74.84765625 229.064453125 182.07421875 c 4
 136.799804688 297.3359375 80 449.171875 80 615.692382812 c 4
 80 796.62109375 137.077148438 961.479492188 230.450195312 1086.71582031 c 4
 334.90625 1227.19042969 470.948242188 1324.72070312 652.708007812 1324.72070312 c 4
 830.866210938 1324.72070312 965.522460938 1234.39550781 1068.59472656 1105.55566406 c 4
500.595703125 970.899414062 m 6
 500.595703125 316.455078125 l 6
 500.595703125 234.717773438 566.815429688 168.498046875 648.552734375 168.498046875 c 4
 730.288085938 168.498046875 796.508789062 234.717773438 796.508789062 316.455078125 c 6
 796.508789062 970.899414062 l 6
 796.508789062 1052.63574219 730.288085938 1118.85546875 648.552734375 1118.85546875 c 4
 566.815429688 1118.85546875 500.595703125 1052.63574219 500.595703125 970.899414062 c 6
EndSplineSet
Colour: ffff00
EndChar
StartChar: R
Encoding: 82 82 49
Width: 1206
Flags: HW
LayerCount: 2
Back
SplineSet
470 1318 m 0,0,1
 540 1318 540 1318 610.5 1295.5 c 128,-1,2
 681 1273 681 1273 741.5 1231 c 128,-1,3
 802 1189 802 1189 839.5 1121.5 c 128,-1,4
 877 1054 877 1054 877 972 c 0,5,6
 877 869 877 869 793.5 773.5 c 128,-1,7
 710 678 710 678 604 642 c 1,8,9
 733 427 733 427 927 172 c 0,10,11
 972 113 972 113 1022.5 85.5 c 128,-1,12
 1073 58 1073 58 1153 52 c 1,13,14
 1159 41 1159 41 1156.5 20.5 c 128,-1,15
 1154 0 1154 0 1151 -6 c 1,16,17
 956 -6 956 -6 887 18 c 0,18,19
 823 41 823 41 789 72 c 0,20,21
 772 87 772 87 757 106 c 0,22,23
 731 141 731 141 628.5 293 c 128,-1,24
 526 445 526 445 439 580 c 0,25,26
 423 604 423 604 379 604 c 2,27,-1
 273 604 l 1,28,-1
 273 232 l 2,29,30
 273 116 273 116 283 84 c 0,31,32
 287 70 287 70 339 61 c 128,-1,33
 391 52 391 52 421 52 c 1,34,35
 427 44 427 44 427.5 23 c 128,-1,36
 428 2 428 2 421 -6 c 1,37,38
 216 4 216 4 187 4 c 0,39,40
 156 4 156 4 -49 -6 c 1,41,42
 -56 2 -56 2 -55.5 23 c 128,-1,43
 -55 44 -55 44 -49 52 c 1,44,45
 -19 52 -19 52 33 61 c 128,-1,46
 85 70 85 70 89 84 c 0,47,48
 97 109 97 109 99 232 c 1,49,-1
 98 1086 l 2,50,51
 98 1202 98 1202 88 1234 c 0,52,53
 84 1248 84 1248 32 1257 c 128,-1,54
 -20 1266 -20 1266 -50 1266 c 1,55,56
 -56 1274 -56 1274 -56.5 1295 c 128,-1,57
 -57 1316 -57 1316 -50 1324 c 1,58,59
 155 1314 155 1314 186 1314 c 0,60,61
 220 1314 220 1314 313 1316 c 128,-1,62
 406 1318 406 1318 470 1318 c 0,0,1
690 954 m 0,63,64
 690 1093 690 1093 615.5 1173.5 c 128,-1,65
 541 1254 541 1254 382 1254 c 0,66,67
 291 1254 291 1254 282 1234 c 0,68,69
 272 1210 272 1210 272 1084 c 2,70,-1
 273 666 l 1,71,-1
 380 666 l 2,72,73
 503 666 503 666 596.5 746.5 c 128,-1,74
 690 827 690 827 690 954 c 0,63,64
EndSplineSet
Fore
SplineSet
1106.03222656 0 m 1
 713.032226562 0 l 1
 489.309570312 495.405273438 l 1
 489.032226562 0 l 1
 106.119140625 0 l 1
 106.119140625 1099.14648438 l 1
 0 1099.14648438 l 1
 0 1289.47851562 l 1
 689.6328125 1289.47851562 l 2
 927.638671875 1289.47851562 1126.02148438 1111.05957031 1126.02148438 897.713867188 c 0
 1126.02148438 725.65234375 1019.34960938 587.670898438 868.899414062 526.4375 c 1
 1106.03222656 0 l 1
489.309570312 1089.44824219 m 1
 489.309570312 691.018554688 l 1
 625.62890625 691.018554688 l 2
 689.6328125 691.018554688 743.385742188 748.650390625 743.385742188 817.086914062 c 2
 743.385742188 963.379882812 l 2
 743.385742188 1031.81738281 689.356445312 1089.44824219 625.62890625 1089.44824219 c 2
 489.309570312 1089.44824219 l 1
EndSplineSet
Colour: ffff00
EndChar
StartChar: V
Encoding: 86 86 53
Width: 1356
Flags: HW
LayerCount: 2
Back
SplineSet
79 1314 m 0,0,1
 127 1314 127 1314 327 1324 c 1,2,3
 330 1315 330 1315 329.5 1291 c 128,-1,4
 329 1267 329 1267 323 1266 c 1,5,6
 314 1266 314 1266 297 1263.5 c 128,-1,7
 280 1261 280 1261 257.5 1254.5 c 128,-1,8
 235 1248 235 1248 219 1233.5 c 128,-1,9
 203 1219 203 1219 203 1200 c 0,10,11
 203 1159 203 1159 238 1064 c 0,12,13
 425 554 425 554 536 258 c 1,14,15
 543 272 543 272 595 399.5 c 128,-1,16
 647 527 647 527 723.5 716 c 128,-1,17
 800 905 800 905 855 1046 c 0,18,19
 891 1138 891 1138 891 1186 c 0,20,21
 891 1208 891 1208 874.5 1225 c 128,-1,22
 858 1242 858 1242 833.5 1249.5 c 128,-1,23
 809 1257 809 1257 790 1260.5 c 128,-1,24
 771 1264 771 1264 759 1264 c 1,25,26
 752 1267 752 1267 752 1290.5 c 128,-1,27
 752 1314 752 1314 759 1322 c 1,28,29
 907 1314 907 1314 967 1314 c 0,30,31
 1008 1314 1008 1314 1037.5 1315.5 c 128,-1,32
 1067 1317 1067 1317 1100.5 1320 c 128,-1,33
 1134 1323 1134 1323 1163 1324 c 1,34,35
 1167 1316 1167 1316 1165.5 1291 c 128,-1,36
 1164 1266 1164 1266 1159 1266 c 0,37,38
 1137 1266 1137 1266 1095 1253 c 128,-1,39
 1053 1240 1053 1240 1031 1214 c 0,40,41
 993 1170 993 1170 931 1012 c 0,42,43
 763 590 763 590 543 64 c 0,44,45
 515 -4 515 -4 467 -4 c 0,46,47
 463 -4 463 -4 459.5 1.5 c 0,48,49
 456 8 456 8 452 18 c 2,50,-1
 447 28 l 1,51,52
 407 132 407 132 280.5 469 c 128,-1,53
 154 806 154 806 67 1028 c 0,54,55
 19 1153 19 1153 -25 1220 c 0,56,57
 -39 1241 -39 1241 -83 1253.5 c 128,-1,58
 -127 1266 -127 1266 -153 1266 c 0,59,60
 -156 1266 -156 1266 -156 1293.5 c 128,-1,61
 -156 1321 -156 1321 -153 1324 c 1,62,63
 -121 1323 -121 1323 -77 1320 c 128,-1,64
 -33 1317 -33 1317 2.5 1315.5 c 128,-1,65
 38 1314 38 1314 79 1314 c 0,0,1
EndSplineSet
Fore
SplineSet
1066.89160156 1289.47851562 m 1
 1266.89160156 1289.47851562 l 1
 827.891601562 0 l 1
 472.891601562 0 l 1
 103.90234375 1099.14550781 l 5
 0 1099.9765625 l 5
 0 1289.47851562 l 1
 447.891601562 1289.47851562 l 1
 758.0703125 387.900390625 l 1
 1066.89160156 1289.47851562 l 1
EndSplineSet
Colour: ffff00
EndChar
StartChar: W
Encoding: 87 87 54
Width: 2043
Flags: HW
LayerCount: 2
Back
SplineSet
95 1314 m 0,0,1
 134 1314 134 1314 168 1315.5 c 128,-1,2
 202 1317 202 1317 243.5 1320 c 128,-1,3
 285 1323 285 1323 311 1324 c 1,4,5
 314 1315 314 1315 313.5 1291 c 128,-1,6
 313 1267 313 1267 307 1266 c 1,7,8
 298 1266 298 1266 281 1263.5 c 128,-1,9
 264 1261 264 1261 241.5 1254.5 c 128,-1,10
 219 1248 219 1248 203 1233.5 c 128,-1,11
 187 1219 187 1219 187 1200 c 128,-1,12
 187 1181 187 1181 217 1070 c 0,13,14
 242 979 242 979 328 698.5 c 128,-1,15
 414 418 414 418 450 296 c 1,16,17
 500 462 500 462 612.5 815.5 c 128,-1,18
 725 1169 725 1169 752 1258 c 0,19,20
 760 1285 760 1285 783 1304.5 c 128,-1,21
 806 1324 806 1324 824 1324 c 0,22,23
 833 1324 833 1324 848 1292 c 1,24,25
 1111 464 1111 464 1166 302 c 1,26,27
 1195 406 1195 406 1237.5 554 c 128,-1,28
 1280 702 1280 702 1311 812 c 128,-1,29
 1342 922 1342 922 1375 1048 c 1,30,31
 1399 1144 1399 1144 1399 1188 c 0,32,33
 1399 1210 1399 1210 1381.5 1227 c 128,-1,34
 1364 1244 1364 1244 1339.5 1251.5 c 128,-1,35
 1315 1259 1315 1259 1295 1262.5 c 128,-1,36
 1275 1266 1275 1266 1263 1266 c 1,37,38
 1256 1269 1256 1269 1256 1292.5 c 128,-1,39
 1256 1316 1256 1316 1263 1324 c 1,40,41
 1448 1314 1448 1314 1479 1314 c 0,42,43
 1520 1314 1520 1314 1548 1315.5 c 128,-1,44
 1576 1317 1576 1317 1608 1320 c 128,-1,45
 1640 1323 1640 1323 1669 1324 c 1,46,47
 1673 1316 1673 1316 1671.5 1291 c 128,-1,48
 1670 1266 1670 1266 1665 1266 c 0,49,50
 1648 1266 1648 1266 1606 1251 c 128,-1,51
 1564 1236 1564 1236 1538 1214 c 0,52,53
 1501 1183 1501 1183 1466 1062 c 0,54,55
 1420 904 1420 904 1328.5 582.5 c 128,-1,56
 1237 261 1237 261 1179 64 c 0,57,58
 1172 38 1172 38 1147.5 17 c 128,-1,59
 1123 -4 1123 -4 1103 -4 c 0,60,61
 1098 -4 1098 -4 1091.5 8 c 128,-1,62
 1085 20 1085 20 1083 28 c 0,63,64
 1055 109 1055 109 1011.5 240.5 c 128,-1,65
 968 372 968 372 924.5 503.5 c 128,-1,66
 881 635 881 635 843 751 c 128,-1,67
 805 867 805 867 780 943.5 c 128,-1,68
 755 1020 755 1020 756 1016 c 1,69,70
 703 841 703 841 606.5 544.5 c 128,-1,71
 510 248 510 248 455 64 c 0,72,73
 448 38 448 38 423.5 17 c 128,-1,74
 399 -4 399 -4 379 -4 c 0,75,76
 374 -4 374 -4 367.5 8 c 128,-1,77
 361 20 361 20 359 28 c 0,78,79
 292 241 292 241 184.5 591.5 c 128,-1,80
 77 942 77 942 39 1064 c 0,81,82
 37 1072 37 1072 30 1095.5 c 128,-1,83
 23 1119 23 1119 21 1125.5 c 128,-1,84
 19 1132 19 1132 13 1149.5 c 128,-1,85
 7 1167 7 1167 3.5 1173.5 c 128,-1,86
 0 1180 0 1180 -6 1191.5 c 128,-1,87
 -12 1203 -12 1203 -18.5 1210.5 c 128,-1,88
 -25 1218 -25 1218 -33 1226 c 0,89,90
 -52 1244 -52 1244 -89.5 1255 c 128,-1,91
 -127 1266 -127 1266 -149 1266 c 0,92,93
 -152 1266 -152 1266 -152 1293.5 c 128,-1,94
 -152 1321 -152 1321 -149 1324 c 1,95,96
 81 1314 81 1314 95 1314 c 0,0,1
EndSplineSet
Fore
SplineSet
1753 1289.47851562 m 1
 1953 1289.47851562 l 5
 1580 0 l 1
 1209.5546875 0 l 1
 1005.07617188 721.7734375 l 1
 797.271484375 0 l 1
 414.634765625 0 l 1
 102.650390625 1099.14648438 l 1
 0.6875 1099.14648438 l 1
 0 1289.47851562 l 1
 423 1289.47851562 l 1
 692.260742188 325.282226562 l 1
 971 1289.47851562 l 1
 1215 1289.47851562 l 1
 1481.36328125 343.5703125 l 1
 1753 1289.47851562 l 1
EndSplineSet
Colour: ffff00
EndChar
StartChar: X
Encoding: 88 88 55
Width: 1288
Flags: HW
LayerCount: 2
Back
SplineSet
179 1314 m 0,0,1
 235 1314 235 1314 435 1324 c 1,2,3
 439 1315 439 1315 438.5 1290.5 c 128,-1,4
 438 1266 438 1266 431 1266 c 0,5,6
 412 1266 412 1266 387 1261.5 c 128,-1,7
 362 1257 362 1257 336.5 1241.5 c 128,-1,8
 311 1226 311 1226 311 1202 c 0,9,10
 311 1176 311 1176 335 1142 c 1,11,-1
 567 786 l 1,12,13
 599 829 599 829 654 901.5 c 128,-1,14
 709 974 709 974 740.5 1015.5 c 128,-1,15
 772 1057 772 1057 806 1104.5 c 128,-1,16
 840 1152 840 1152 858 1180 c 0,17,18
 867 1194 867 1194 867 1212 c 0,19,20
 867 1223 867 1223 857.5 1233.5 c 128,-1,21
 848 1244 848 1244 816 1254 c 128,-1,22
 784 1264 784 1264 732 1264 c 1,23,24
 726 1265 726 1265 724.5 1288.5 c 128,-1,25
 723 1312 723 1312 728 1322 c 1,26,27
 861 1312 861 1312 935 1312 c 0,28,29
 1035 1312 1035 1312 1155 1322 c 1,30,31
 1160 1315 1160 1315 1159.5 1293.5 c 128,-1,32
 1159 1272 1159 1272 1151 1264 c 1,33,34
 1136 1264 1136 1264 1110.5 1259.5 c 128,-1,35
 1085 1255 1085 1255 1042.5 1235 c 128,-1,36
 1000 1215 1000 1215 973 1184 c 0,37,38
 791 968 791 968 605 720 c 1,39,-1
 999 132 l 2,40,41
 1025 92 1025 92 1081.5 72 c 128,-1,42
 1138 52 1138 52 1195 52 c 1,43,44
 1200 43 1200 43 1199.5 21 c 128,-1,45
 1199 -1 1199 -1 1197 -6 c 1,46,47
 1170 -5 1170 -5 1130.5 -2 c 128,-1,48
 1091 1 1091 1 1059.5 2.5 c 128,-1,49
 1028 4 1028 4 991 4 c 0,50,51
 941 4 941 4 896 2.5 c 128,-1,52
 851 1 851 1 794 -2 c 128,-1,53
 737 -5 737 -5 699 -6 c 1,54,55
 692 2 692 2 692 27 c 128,-1,56
 692 52 692 52 699 52 c 0,57,58
 726 52 726 52 770.5 67.5 c 128,-1,59
 815 83 815 83 815 108 c 0,60,61
 815 112 815 112 805 132 c 1,62,-1
 500 602 l 1,63,64
 404 474 404 474 297 323 c 128,-1,65
 190 172 190 172 169 132 c 1,66,67
 159 102 159 102 159 100 c 0,68,69
 159 87 159 87 173.5 76.5 c 128,-1,70
 188 66 188 66 224 59 c 128,-1,71
 260 52 260 52 313 52 c 1,72,73
 319 44 319 44 319.5 21 c 128,-1,74
 320 -2 320 -2 317 -6 c 1,75,76
 132 4 132 4 91 4 c 0,77,78
 45 4 45 4 -155 -6 c 1,79,80
 -159 4 -159 4 -157 25.5 c 128,-1,81
 -155 47 -155 47 -151 52 c 1,82,83
 -117 52 -117 52 -45 73 c 128,-1,84
 27 94 27 94 63 140 c 0,85,86
 130 226 130 226 193 310.5 c 128,-1,87
 256 395 256 395 330 495.5 c 128,-1,88
 404 596 404 596 455 664 c 1,89,-1
 173 1096 l 2,90,91
 137 1152 137 1152 109.5 1181.5 c 128,-1,92
 82 1211 82 1211 41 1234 c 0,93,94
 17 1248 17 1248 -17 1257 c 128,-1,95
 -51 1266 -51 1266 -71 1266 c 0,96,97
 -78 1266 -78 1266 -78 1291 c 128,-1,98
 -78 1316 -78 1316 -71 1324 c 1,99,100
 -37 1323 -37 1323 11 1320 c 128,-1,101
 59 1317 59 1317 97 1315.5 c 128,-1,102
 135 1314 135 1314 179 1314 c 0,0,1
EndSplineSet
Fore
SplineSet
1198.06054688 0 m 1
 783.006835938 0 l 1
 531.702148438 406.465820312 l 1
 241.330078125 0 l 1
 7.4814453125 0 l 1
 422.53515625 579.635742188 l 1
 99.19140625 1099.14648438 l 1
 0 1099.14648438 l 1
 0 1289.47851562 l 1
 401.060546875 1289.47851562 l 1
 646.686523438 891.619140625 l 1
 930.060546875 1289.47851562 l 1
 1164.06054688 1289.47851562 l 5
 754.745117188 717.063476562 l 1
 1198.06054688 0 l 1
EndSplineSet
Colour: ffff00
EndChar
StartChar: Y
Encoding: 89 89 56
Width: 1410
Flags: HW
LayerCount: 2
Back
SplineSet
382 232 m 2,0,-1
 382 534 l 2,1,2
 382 562 382 562 368 590 c 1,3,4
 306 703 306 703 221.5 852 c 128,-1,5
 137 1001 137 1001 84 1096 c 0,6,7
 53 1150 53 1150 24.5 1179.5 c 128,-1,8
 -4 1209 -4 1209 -48 1234 c 0,9,10
 -72 1248 -72 1248 -106 1257 c 128,-1,11
 -140 1266 -140 1266 -160 1266 c 0,12,13
 -168 1266 -168 1266 -168 1291 c 128,-1,14
 -168 1316 -168 1316 -160 1324 c 1,15,16
 -126 1323 -126 1323 -78 1320 c 128,-1,17
 -30 1317 -30 1317 8 1315.5 c 128,-1,18
 46 1314 46 1314 90 1314 c 0,19,20
 146 1314 146 1314 346 1324 c 1,21,22
 350 1315 350 1315 349.5 1290.5 c 128,-1,23
 349 1266 349 1266 342 1266 c 0,24,25
 323 1266 323 1266 298 1261.5 c 128,-1,26
 273 1257 273 1257 247.5 1241.5 c 128,-1,27
 222 1226 222 1226 222 1202 c 0,28,29
 222 1181 222 1181 246 1142 c 1,30,-1
 524 662 l 1,31,32
 592 784 592 784 675.5 951.5 c 128,-1,33
 759 1119 759 1119 784 1180 c 0,34,35
 790 1194 790 1194 790 1210 c 0,36,37
 790 1222 790 1222 779.5 1233 c 128,-1,38
 769 1244 769 1244 735.5 1254 c 128,-1,39
 702 1264 702 1264 650 1264 c 0,40,41
 646 1264 646 1264 644.5 1291 c 128,-1,42
 643 1318 643 1318 646 1322 c 1,43,44
 831 1312 831 1312 846 1312 c 0,45,46
 893 1312 893 1312 927.5 1313.5 c 128,-1,47
 962 1315 962 1315 1001 1318 c 128,-1,48
 1040 1321 1040 1321 1066 1322 c 1,49,50
 1069 1313 1069 1313 1067.5 1288.5 c 128,-1,51
 1066 1264 1066 1264 1062 1264 c 0,52,53
 1048 1264 1048 1264 1032.5 1262.5 c 128,-1,54
 1017 1261 1017 1261 986 1254.5 c 128,-1,55
 955 1248 955 1248 927.5 1230 c 128,-1,56
 900 1212 900 1212 884 1184 c 0,57,58
 823 1077 823 1077 568 602 c 0,59,60
 558 584 558 584 558 540 c 2,61,-1
 556 232 l 2,62,63
 556 116 556 116 566 84 c 0,64,65
 570 70 570 70 622 61 c 128,-1,66
 674 52 674 52 704 52 c 1,67,68
 710 44 710 44 710.5 23 c 128,-1,69
 711 2 711 2 704 -6 c 1,70,71
 499 4 499 4 470 4 c 0,72,73
 439 4 439 4 234 -6 c 1,74,75
 227 2 227 2 227.5 23 c 128,-1,76
 228 44 228 44 234 52 c 1,77,78
 264 52 264 52 316 61 c 128,-1,79
 368 70 368 70 372 84 c 0,80,81
 382 116 382 116 382 232 c 2,0,-1
EndSplineSet
Fore
SplineSet
1320.17578125 1289.47851562 m 5
 869.17578125 457.169921875 l 5
 869.17578125 0 l 5
 485.985351562 0 l 5
 485.985351562 396.490234375 l 5
 101.685546875 1098.31445312 l 5
 0 1099.14648438 l 5
 0 1289.47851562 l 5
 404.17578125 1289.47851562 l 5
 754.46875 646.1328125 l 5
 1102.17578125 1289.47851562 l 5
 1320.17578125 1289.47851562 l 5
EndSplineSet
Colour: ffff00
EndChar
StartChar: Z
Encoding: 90 90 57
Width: 1201
Flags: HW
LayerCount: 2
Back
SplineSet
412 1252 m 2,0,1
 312 1252 312 1252 243 1183.5 c 128,-1,2
 174 1115 174 1115 140 990 c 1,3,4
 135 982 135 982 118 982 c 0,5,6
 105 982 105 982 88 987.5 c 128,-1,7
 71 993 71 993 66 998 c 1,8,9
 113 1126 113 1126 132 1338 c 1,10,11
 244 1322 244 1322 296 1322 c 2,12,-1
 684 1322 l 2,13,14
 824 1322 824 1322 1104 1342 c 1,15,16
 1111 1340 1111 1340 1125.5 1324.5 c 128,-1,17
 1140 1309 1140 1309 1140 1298 c 1,18,19
 1138 1291 1138 1291 926.5 984 c 1,20,21
 714 678 714 678 504 374 c 2,22,-1
 294 70 l 1,23,-1
 816 70 l 2,24,25
 933 70 933 70 1002 141 c 0,26,27
 1012 152 1012 152 1022 164.5 c 128,-1,28
 1032 177 1032 177 1039 187.5 c 128,-1,29
 1046 198 1046 198 1055 214.5 c 128,-1,30
 1064 231 1064 231 1068 239 c 128,-1,31
 1072 247 1072 247 1080 266 c 128,-1,32
 1088 285 1088 285 1090 290 c 128,-1,33
 1092 295 1092 295 1100 316 c 128,-1,34
 1108 337 1108 337 1108 338 c 0,35,36
 1111 344 1111 344 1136 344 c 0,37,38
 1166 344 1166 344 1184 326 c 1,39,40
 1170 281 1170 281 1152.5 224.5 c 128,-1,41
 1135 168 1135 168 1126.5 139.5 c 128,-1,42
 1118 111 1118 111 1107 73.5 c 128,-1,43
 1096 36 1096 36 1088 0 c 1,44,-1
 86 0 l 2,45,46
 69 0 69 0 56.5 9.5 c 128,-1,47
 44 19 44 19 50 28 c 2,48,-1
 900 1252 l 1,49,-1
 412 1252 l 2,0,1
EndSplineSet
Fore
SplineSet
173.474609375 1289.47851562 m 1
 1052.62597656 1289.47851562 l 1
 1051.51660156 1134.33300781 l 1
 519.260742188 183.421875 l 1
 887.213867188 183.975585938 l 2
 922.124023438 187.854492188 935.701171875 205.033203125 935.701171875 224.982421875 c 2
 935.978515625 393.442382812 l 1
 1081.44140625 393.442382812 l 1
 1081.44140625 0 l 1
 120 0 l 1
 120 195.3359375 l 1
 622.885742188 1097.75976562 l 1
 367.703125 1098.59179688 l 2
 332.791015625 1094.71191406 319.21484375 1077.53320312 319.21484375 1057.58398438 c 2
 318.938476562 889.956054688 l 1
 173.474609375 889.956054688 l 1
 173.474609375 1289.47851562 l 1
EndSplineSet
Colour: ffff00
EndChar
StartChar: backslash
Encoding: 92 92 59
Width: 1052
Flags: HW
LayerCount: 2
Back
SplineSet
-58 1500 m 1,0,1
 -50 1514 -50 1514 -18 1514 c 0,2,3
 -2 1514 -2 1514 16 1504 c 128,-1,4
 34 1494 34 1494 38 1482 c 0,5,6
 618 -22 618 -22 618 -34 c 1,7,8
 616 -41 616 -41 602.5 -48.5 c 128,-1,9
 589 -56 589 -56 572 -56 c 0,10,11
 561 -56 561 -56 547.5 -47 c 128,-1,12
 534 -38 534 -38 530 -28 c 0,13,14
 24 1288 24 1288 -58 1500 c 1,0,1
EndSplineSet
Fore
SplineSet
803.1875 0 m 5
 1032.1875 0 l 5
 249.1875 1289.47851562 l 5
 20 1289.47851562 l 5
 803.1875 0 l 5
EndSplineSet
Colour: ffff00
EndChar
StartChar: bracketright
Encoding: 93 93 60
Width: 430
Flags: HW
LayerCount: 2
Back
SplineSet
274 1436 m 0,0,1
 290 1436 290 1436 299.5 1424 c 128,-1,2
 309 1412 309 1412 310.5 1403.5 c 128,-1,3
 312 1395 312 1395 312 1390 c 2,4,-1
 312 -230 l 2,5,6
 312 -235 312 -235 310.5 -243.5 c 128,-1,7
 309 -252 309 -252 299.5 -264 c 128,-1,8
 290 -276 290 -276 274 -276 c 0,9,10
 201 -276 201 -276 124.5 -279 c 128,-1,11
 48 -282 48 -282 8 -285 c 2,12,-1
 -32 -288 l 1,13,14
 -38 -282 -38 -282 -38 -270 c 0,15,16
 -38 -245 -38 -245 -18 -238 c 0,17,18
 16 -226 16 -226 74.5 -214.5 c 0,19,20
 132 -204 132 -204 174 -198 c 2,21,-1
 216 -192 l 1,22,-1
 216 1352 l 1,23,24
 58 1372 58 1372 -18 1398 c 0,25,26
 -38 1405 -38 1405 -38 1430 c 0,27,28
 -38 1435 -38 1435 -36.5 1439.5 c 0,29,30
 -36 1444 -36 1444 -34 1446 c 2,31,-1
 -32 1448 l 1,32,33
 110 1436 110 1436 274 1436 c 0,0,1
EndSplineSet
Fore
SplineSet
0 1629.47851562 m 5
 380.884765625 1629.47851562 l 5
 380.884765625 -595 l 5
 0 -595 l 5
 0 -451.383789062 l 5
 177.962890625 -451.383789062 l 5
 177.962890625 1485.86132812 l 5
 0 1485.86132812 l 5
 0 1629.47851562 l 5
EndSplineSet
Colour: ffff00
EndChar
StartChar: a
Encoding: 97 97 64
Width: 1186
Flags: HW
LayerCount: 2
Back
SplineSet
294 92 m 0,0,1
 343 92 343 92 405.5 124.5 c 128,-1,2
 468 157 468 157 468 174 c 2,3,-1
 468 446 l 1,4,5
 313 400 313 400 282 388 c 0,6,7
 225 366 225 366 192.5 326.5 c 128,-1,8
 160 287 160 287 160 232 c 0,9,10
 160 176 160 176 199 134 c 128,-1,11
 238 92 238 92 294 92 c 0,0,1
402 872 m 0,12,13
 489 872 489 872 554.5 792 c 128,-1,14
 620 712 620 712 620 598 c 2,15,-1
 620 186 l 2,16,17
 620 92 620 92 682 92 c 0,18,19
 691 92 691 92 699.5 93.5 c 128,-1,20
 708 95 708 95 714 97.5 c 128,-1,21
 720 100 720 100 726.5 103.5 c 128,-1,22
 733 107 733 107 736.5 109.5 c 128,-1,23
 740 112 740 112 743.5 115 c 128,-1,24
 747 118 747 118 748 118 c 0,25,26
 756 118 756 118 756 102 c 0,27,28
 756 81 756 81 746 64 c 1,29,30
 723 43 723 43 673.5 15.5 c 128,-1,31
 624 -12 624 -12 596 -12 c 0,32,33
 554 -12 554 -12 519 28.5 c 128,-1,34
 484 69 484 69 474 118 c 1,35,36
 445 89 445 89 359.5 36.5 c 128,-1,37
 274 -16 274 -16 228 -16 c 0,38,39
 129 -16 129 -16 61.5 50.5 c 128,-1,40
 -6 117 -6 117 -6 214 c 0,41,42
 -6 271 -6 271 25.5 315.5 c 128,-1,43
 57 360 57 360 94 374 c 0,44,45
 127 386 127 386 214 416 c 128,-1,46
 301 446 301 446 359.5 467 c 128,-1,47
 418 488 418 488 444 500 c 0,48,49
 459 506 459 506 463.5 515 c 128,-1,50
 468 524 468 524 468 550 c 2,51,-1
 468 604 l 2,52,53
 468 675 468 675 417.5 735.5 c 128,-1,54
 367 796 367 796 296 796 c 0,55,56
 246 796 246 796 221.5 765.5 c 128,-1,57
 197 735 197 735 186 672 c 0,58,59
 169 576 169 576 92 576 c 0,60,61
 62 576 62 576 43 602 c 128,-1,62
 24 628 24 628 24 660 c 0,63,64
 24 668 24 668 28.5 684.5 c 128,-1,65
 33 701 33 701 38 708 c 1,66,67
 100 766 100 766 202.5 819 c 128,-1,68
 305 872 305 872 402 872 c 0,12,13
EndSplineSet
Fore
SplineSet
1031.13769531 557.192382812 m 6
 1031.13769531 171.784179688 l 5
 1136.70410156 171.784179688 l 5
 1136.70410156 0 l 5
 661.247070312 0 l 5
 661.247070312 98.9150390625 l 5
 661.247070312 98.9150390625 592.533203125 -22.9970703125 402.184570312 -22.9970703125 c 4
 236.495117188 -22.9970703125 60 75.36328125 60 257.123046875 c 4
 60 650.842773438 661.80078125 661.09375 661.80078125 661.09375 c 5
 661.80078125 661.09375 654.043945312 817.639648438 465.633789062 817.639648438 c 4
 386.9453125 817.639648438 279.995117188 783.837890625 232.338867188 689.91015625 c 5
 125.666015625 798.522460938 l 5
 202.692382812 935.396484375 351.479492188 1010.48242188 545.430664062 1010.48242188 c 4
 881.243164062 1010.48242188 1031.13769531 870.560546875 1031.13769531 557.192382812 c 6
661.5234375 197.275390625 m 5
 661.5234375 549.7109375 l 5
 653.211914062 547.494140625 l 6
 650.99609375 546.940429688 447.624023438 492.080078125 447.624023438 333.594726562 c 4
 447.624023438 255.18359375 501.099609375 170.399414062 587.268554688 170.399414062 c 4
 635.202148438 170.399414062 659.307617188 195.05859375 659.584960938 195.334960938 c 6
 661.5234375 197.275390625 l 5
EndSplineSet
Colour: ffff00
EndChar
StartChar: b
Encoding: 98 98 65
Width: 1165
Flags: HW
LayerCount: 2
Back
SplineSet
283 -14 m 0,0,1
 240 -14 240 -14 135 16 c 0,2,3
 130 17 130 17 114 22 c 128,-1,4
 98 27 98 27 91.5 28.5 c 128,-1,5
 85 30 85 30 71 32.5 c 128,-1,6
 57 35 57 35 48.5 35 c 128,-1,7
 40 35 40 35 28 33.5 c 128,-1,8
 16 32 16 32 5 28 c 1,9,10
 -2 28 -2 28 -11.5 45.5 c 128,-1,11
 -21 63 -21 63 -21 72 c 1,12,13
 3 125 3 125 3 220 c 2,14,-1
 3 1116 l 2,15,16
 3 1196 3 1196 -7 1220 c 0,17,18
 -22 1256 -22 1256 -129 1256 c 0,19,20
 -130 1256 -130 1256 -131 1268.5 c 128,-1,21
 -132 1281 -132 1281 -131.5 1294 c 128,-1,22
 -131 1307 -131 1307 -127 1308 c 0,23,24
 11 1322 11 1322 157 1388 c 1,25,26
 164 1388 164 1388 171.5 1377.5 c 128,-1,27
 179 1367 179 1367 179 1356 c 1,28,29
 157 1292 157 1292 157 1182 c 2,30,-1
 157 788 l 2,31,32
 157 782 157 782 157 779 c 128,-1,33
 157 776 157 776 158.5 770.5 c 128,-1,34
 160 765 160 765 162 765.5 c 128,-1,35
 164 766 164 766 169 768 c 1,36,37
 210 798 210 798 286 837 c 128,-1,38
 362 876 362 876 411 876 c 0,39,40
 497 876 497 876 568.5 838 c 128,-1,41
 640 800 640 800 684.5 739 c 128,-1,42
 729 678 729 678 753 607 c 128,-1,43
 777 536 777 536 777 466 c 0,44,45
 777 369 777 369 739.5 280.5 c 128,-1,46
 702 192 702 192 637 127.5 c 128,-1,47
 572 63 572 63 479.5 24.5 c 128,-1,48
 387 -14 387 -14 283 -14 c 0,0,1
315 758 m 0,49,50
 279 758 279 758 231 739 c 128,-1,51
 183 720 183 720 167 704 c 0,52,53
 157 694 157 694 157 682 c 2,54,-1
 157 196 l 2,55,56
 157 135 157 135 215 94.5 c 128,-1,57
 273 54 273 54 343 54 c 128,-1,58
 413 54 413 54 475 103.5 c 128,-1,59
 537 153 537 153 573 230.5 c 128,-1,60
 609 308 609 308 609 388 c 0,61,62
 609 561 609 561 529.5 659.5 c 128,-1,63
 450 758 450 758 315 758 c 0,49,50
EndSplineSet
Fore
SplineSet
699.608398438 1010.48339844 m 4
 926.807617188 1010.48339844 1085.56933594 810.712890625 1085.29199219 524.775390625 c 4
 1085.29199219 127.73046875 888.017578125 -13.0224609375 719.002929688 -13.0224609375 c 4
 570.21484375 -13.0224609375 475.733398438 93.0966796875 475.733398438 93.0966796875 c 5
 475.45703125 0 l 5
 105.565429688 0 l 5
 105.565429688 1112.4453125 l 5
 0 1112.4453125 l 5
 0 1289.47851562 l 5
 475.45703125 1289.47851562 l 5
 475.733398438 911.291015625 l 5
 475.733398438 911.291015625 546.6640625 1010.48339844 699.608398438 1010.48339844 c 4
673.5625 320.573242188 m 6
 673.5625 686.862304688 l 6
 673.5625 764.442382812 610.390625 827.337890625 533.087890625 827.337890625 c 6
 475.733398438 828.168945312 l 5
 475.733398438 178.989257812 l 5
 533.087890625 180.096679688 l 6
 610.666992188 180.096679688 673.5625 242.9921875 673.5625 320.573242188 c 6
EndSplineSet
Colour: ffff00
EndChar
StartChar: c
Encoding: 99 99 66
Width: 1134
Flags: HW
LayerCount: 2
Back
SplineSet
704 772 m 0,0,1
 704 723 704 723 681 699.5 c 128,-1,2
 658 676 658 676 628 676 c 0,3,4
 608 676 608 676 588 689 c 128,-1,5
 568 702 568 702 545.5 722.5 c 128,-1,6
 523 743 523 743 512 750 c 0,7,8
 478 773 478 773 456.5 780.5 c 128,-1,9
 435 788 435 788 398 788 c 0,10,11
 312 788 312 788 243 695.5 c 128,-1,12
 174 603 174 603 174 454 c 0,13,14
 174 286 174 286 264.5 201 c 128,-1,15
 355 116 355 116 498 116 c 0,16,17
 570 116 570 116 624.5 149 c 128,-1,18
 679 182 679 182 710 218 c 0,19,20
 711 218 711 218 715 214.5 c 128,-1,21
 719 211 719 211 722.5 204 c 128,-1,22
 726 197 726 197 726 190 c 0,23,24
 726 174 726 174 714 154 c 0,25,26
 698 128 698 128 674 102 c 128,-1,27
 650 76 650 76 614 48 c 128,-1,28
 578 20 578 20 527.5 2 c 128,-1,29
 477 -16 477 -16 422 -16 c 0,30,31
 305 -16 305 -16 211 42 c 128,-1,32
 117 100 117 100 67.5 191.5 c 128,-1,33
 18 283 18 283 18 388 c 0,34,35
 18 472 18 472 48.5 550 c 128,-1,36
 79 628 79 628 129.5 686 c 128,-1,37
 180 744 180 744 243 787.5 c 128,-1,38
 306 831 306 831 373.5 853.5 c 128,-1,39
 441 876 441 876 504 876 c 0,40,41
 612 876 612 876 684 828 c 1,42,43
 691 821 691 821 697.5 803.5 c 128,-1,44
 704 786 704 786 704 772 c 0,0,1
EndSplineSet
Fore
SplineSet
487.296875 376.666992188 m 6
 487.296875 261.958984375 582.88671875 168.30859375 700.642578125 168.30859375 c 4
 838.346679688 168.30859375 906.229492188 264.453125 935.875976562 328.178710938 c 5
 1054.18652344 209.869140625 l 5
 1010.1328125 136.168945312 886.557617188 -23.42578125 641.625976562 -23.42578125 c 4
 290.020507812 -23.42578125 80 169.693359375 80 493.037109375 c 4
 80 847.966796875 352.084960938 1009.5 605.052734375 1009.5 c 4
 799.002929688 1009.5 914.541992188 921.9453125 914.541992188 921.9453125 c 5
 914.541992188 1009.5 l 5
 1045.59765625 1009.5 l 5
 1045.59765625 605.805664062 l 5
 912.87890625 605.805664062 l 5
 908.447265625 641.547851562 877.69140625 817.765625 700.365234375 817.765625 c 4
 582.88671875 817.765625 487.296875 724.393554688 487.296875 609.684570312 c 6
 487.296875 376.666992188 l 6
EndSplineSet
Colour: ffff00
EndChar
StartChar: d
Encoding: 100 100 67
Width: 1139
Flags: HW
LayerCount: 2
Back
SplineSet
494 876 m 0,0,1
 524 876 524 876 570 869 c 128,-1,2
 616 862 616 862 632 856 c 1,3,4
 642 856 642 856 642 898 c 2,5,-1
 642 1116 l 2,6,7
 642 1196 642 1196 632 1220 c 0,8,9
 617 1256 617 1256 510 1256 c 0,10,11
 509 1256 509 1256 508 1268.5 c 128,-1,12
 507 1281 507 1281 507.5 1294 c 128,-1,13
 508 1307 508 1307 512 1308 c 0,14,15
 650 1322 650 1322 796 1388 c 1,16,17
 803 1388 803 1388 810.5 1377.5 c 128,-1,18
 818 1367 818 1367 818 1356 c 1,19,20
 796 1292 796 1292 796 1182 c 2,21,-1
 796 326 l 2,22,23
 796 163 796 163 810 130 c 0,24,25
 816 118 816 118 835 110 c 128,-1,26
 854 102 854 102 873 99.5 c 128,-1,27
 892 97 892 97 909.5 95.5 c 128,-1,28
 927 94 927 94 928 94 c 0,29,30
 934 91 934 91 934 70 c 0,31,32
 934 64 934 64 929 52 c 128,-1,33
 924 40 924 40 918 40 c 0,34,35
 889 38 889 38 851.5 32 c 128,-1,36
 814 26 814 26 781.5 18 c 128,-1,37
 749 10 749 10 721 2 c 0,38,39
 694 -6 694 -6 676 -11 c 2,40,-1
 658 -16 l 1,41,42
 642 -16 642 -16 642 22 c 2,43,-1
 642 92 l 1,44,45
 640 105 640 105 636 104 c 1,46,47
 606 72 606 72 520 28 c 128,-1,48
 434 -16 434 -16 370 -16 c 0,49,50
 230 -16 230 -16 124 108.5 c 128,-1,51
 18 233 18 233 18 412 c 0,52,53
 18 505 18 505 67 594 c 128,-1,54
 116 683 116 683 188.5 743 c 128,-1,55
 261 803 261 803 343.5 839.5 c 128,-1,56
 426 876 426 876 494 876 c 0,0,1
430 792 m 0,57,58
 321 792 321 792 253.5 692.5 c 128,-1,59
 186 593 186 593 186 460 c 0,60,61
 186 312 186 312 261.5 210 c 128,-1,62
 337 108 337 108 468 108 c 0,63,64
 532 108 532 108 587 135 c 128,-1,65
 642 162 642 162 642 188 c 2,66,-1
 642 694 l 2,67,68
 642 729 642 729 577 760.5 c 128,-1,69
 512 792 512 792 430 792 c 0,57,58
EndSplineSet
Fore
SplineSet
584.270507812 1289.47851562 m 5
 1059.45117188 1289.47851562 l 5
 1059.72753906 0 l 5
 689.8359375 0 l 5
 689.559570312 94.4814453125 l 5
 689.559570312 94.4814453125 609.76171875 -13.0224609375 446.2890625 -13.0224609375 c 4
 175.8671875 -13.0224609375 80 276.794921875 80 524.775390625 c 4
 80 810.713867188 238.762695312 1010.20703125 465.961914062 1010.20703125 c 4
 618.350585938 1010.20703125 689.8359375 911.014648438 689.8359375 911.014648438 c 5
 689.8359375 1112.16796875 l 5
 584.270507812 1112.16796875 l 5
 584.270507812 1289.47851562 l 5
689.8359375 178.989257812 m 5
 689.559570312 178.989257812 l 5
 689.559570312 828.168945312 l 5
 632.204101562 827.337890625 l 6
 554.625 827.337890625 491.729492188 764.166015625 491.729492188 686.86328125 c 6
 491.729492188 320.573242188 l 6
 491.729492188 242.9921875 554.901367188 180.096679688 632.204101562 180.096679688 c 6
 689.8359375 178.989257812 l 5
EndSplineSet
Colour: ffff00
EndChar
StartChar: e
Encoding: 101 101 68
Width: 1136
Flags: HW
LayerCount: 2
Back
SplineSet
172 570 m 2,0,-1
 498 570 l 2,1,2
 541 570 541 570 544 616 c 0,3,4
 545 636 545 636 536 666 c 128,-1,5
 527 696 527 696 509 728 c 128,-1,6
 491 760 491 760 457 782 c 128,-1,7
 423 804 423 804 380 804 c 0,8,9
 333 804 333 804 294 780 c 128,-1,10
 255 756 255 756 232.5 721.5 c 128,-1,11
 210 687 210 687 195.5 652.5 c 128,-1,12
 181 618 181 618 175.5 594 c 128,-1,13
 170 570 170 570 172 570 c 2,0,-1
162 496 m 1,14,15
 158 313 158 313 252.5 212.5 c 128,-1,16
 347 112 347 112 488 112 c 0,17,18
 560 112 560 112 618.5 147 c 128,-1,19
 677 182 677 182 708 218 c 0,20,21
 709 218 709 218 713 214.5 c 128,-1,22
 717 211 717 211 720.5 204 c 128,-1,23
 724 197 724 197 724 190 c 0,24,25
 724 174 724 174 712 154 c 0,26,27
 696 128 696 128 672 102 c 128,-1,28
 648 76 648 76 612 48 c 128,-1,29
 576 20 576 20 525.5 2 c 128,-1,30
 475 -16 475 -16 420 -16 c 0,31,32
 245 -16 245 -16 132.5 102.5 c 128,-1,33
 20 221 20 221 20 400 c 0,34,35
 20 497 20 497 57 587 c 128,-1,36
 94 677 94 677 151 739 c 128,-1,37
 208 801 208 801 278 838.5 c 128,-1,38
 348 876 348 876 414 876 c 0,39,40
 482 876 482 876 537 855 c 128,-1,41
 592 834 592 834 624 803.5 c 128,-1,42
 656 773 656 773 677 734 c 128,-1,43
 698 695 698 695 706 663 c 128,-1,44
 714 631 714 631 714 604 c 0,45,46
 714 558 714 558 703.5 534.5 c 128,-1,47
 693 511 693 511 666 510 c 0,48,49
 625 507 625 507 406.5 501.5 c 128,-1,50
 188 496 188 496 162 496 c 1,14,15
EndSplineSet
Fore
SplineSet
487.573242188 376.943359375 m 6
 487.573242188 262.236328125 583.163085938 168.5859375 700.641601562 168.30859375 c 4
 838.345703125 168.30859375 906.228515625 264.453125 935.875976562 328.178710938 c 5
 1054.18554688 209.869140625 l 5
 962.197265625 54.986328125 816.458007812 -23.42578125 621.122070312 -23.42578125 c 4
 222.137695312 -23.42578125 80 243.39453125 80 493.037109375 c 4
 80 847.966796875 352.083984375 1009.5 605.05078125 1009.5 c 4
 782.377929688 1009.5 910.662109375 950.483398438 986.580078125 834.11328125 c 4
 1050.02929688 737.137695312 1055.29394531 631.296875 1055.57128906 601.095703125 c 6
 1056.125 456.186523438 l 5
 487.573242188 456.186523438 l 5
 487.573242188 376.943359375 l 6
656 818.3203125 m 4
 472 818.3203125 487.573242188 619.795898438 487.573242188 619.795898438 c 5
 799 619.795898438 l 5
 799 619.795898438 815 818.3203125 656 818.3203125 c 4
EndSplineSet
Colour: ffff00
EndChar
StartChar: f
Encoding: 102 102 69
Width: 777
Flags: HW
LayerCount: 2
Back
SplineSet
469 1394 m 0,0,1
 512 1394 512 1394 525.5 1390 c 128,-1,2
 539 1386 539 1386 563 1370 c 1,3,4
 570 1363 570 1363 576.5 1345.5 c 128,-1,5
 583 1328 583 1328 583 1314 c 0,6,7
 583 1289 583 1289 574.5 1271.5 c 128,-1,8
 566 1254 566 1254 552 1246.5 c 128,-1,9
 538 1239 538 1239 526.5 1236.5 c 128,-1,10
 515 1234 515 1234 503 1234 c 0,11,12
 485 1234 485 1234 445 1256 c 0,13,14
 412 1274 412 1274 387 1274 c 0,15,16
 338 1274 338 1274 307 1224.5 c 128,-1,17
 276 1175 276 1175 277 1086 c 1,18,-1
 277 838 l 1,19,-1
 513 838 l 2,20,21
 523 838 523 838 523 816 c 0,22,23
 523 784 523 784 495 756 c 1,24,-1
 277 756 l 1,25,-1
 277 232 l 2,26,27
 277 116 277 116 287 84 c 0,28,29
 291 70 291 70 341 61 c 128,-1,30
 391 52 391 52 421 52 c 1,31,32
 427 44 427 44 427.5 23 c 128,-1,33
 428 2 428 2 421 -6 c 1,34,35
 216 4 216 4 199 4 c 0,36,37
 164 4 164 4 131.5 2.5 c 128,-1,38
 99 1 99 1 57 -2 c 128,-1,39
 15 -5 15 -5 -13 -6 c 1,40,41
 -20 2 -20 2 -19.5 23 c 128,-1,42
 -19 44 -19 44 -13 52 c 1,43,44
 16 52 16 52 62.5 61 c 128,-1,45
 109 70 109 70 113 84 c 0,46,47
 123 116 123 116 123 232 c 2,48,-1
 123 756 l 1,49,-1
 7 756 l 2,50,51
 -3 756 -3 756 -3 774 c 0,52,53
 -3 779 -3 779 19 804.5 c 128,-1,54
 41 830 41 830 49 838 c 1,55,-1
 123 838 l 1,56,-1
 123 876 l 2,57,58
 123 979 123 979 160 1078.5 c 128,-1,59
 197 1178 197 1178 250.5 1245 c 128,-1,60
 304 1312 304 1312 363.5 1353 c 128,-1,61
 423 1394 423 1394 469 1394 c 0,0,1
EndSplineSet
Fore
SplineSet
180.829101562 1041.23730469 m 6
 180.177734375 1088.33105469 195.514648438 1324.72070312 482.561523438 1324.72070312 c 4
 603.641601562 1324.72070312 690.918945312 1269.54492188 707.266601562 1258.74023438 c 5
 707.266601562 1149.84960938 l 5
 690.365234375 1162.59570312 665.982421875 1170.90820312 642.708984375 1170.90820312 c 4
 619.989257812 1170.90820312 546.010742188 1160.93261719 546.010742188 1034.58789062 c 6
 546.010742188 981.11328125 l 5
 653.514648438 981.11328125 l 5
 653.514648438 809.327148438 l 5
 546.010742188 809.327148438 l 5
 546.287109375 0 l 5
 176.672851562 0 l 5
 176.672851562 809.327148438 l 5
 70 809.327148438 l 5
 70 981.11328125 l 5
 181.661132812 981.11328125 l 5
 180.829101562 1041.23730469 l 6
EndSplineSet
Colour: ffff00
EndChar
StartChar: g
Encoding: 103 103 70
Width: 1206
Flags: HW
LayerCount: 2
Back
SplineSet
360 818 m 0,0,1
 279 818 279 818 231.5 747 c 128,-1,2
 184 676 184 676 184 584 c 0,3,4
 184 486 184 486 236.5 410 c 128,-1,5
 289 334 289 334 376 334 c 0,6,7
 454 334 454 334 500 403.5 c 128,-1,8
 546 473 546 473 546 562 c 0,9,10
 546 664 546 664 496.5 741 c 128,-1,11
 447 818 447 818 360 818 c 0,0,1
440 -8 m 0,12,13
 272 -8 272 -8 254 -18 c 0,14,15
 210 -43 210 -43 172 -80 c 128,-1,16
 134 -117 134 -117 134 -152 c 0,17,18
 134 -252 134 -252 205.5 -314 c 128,-1,19
 277 -376 277 -376 402 -376 c 0,20,21
 470 -376 470 -376 540.5 -346 c 128,-1,22
 611 -316 611 -316 657.5 -265.5 c 128,-1,23
 704 -215 704 -215 704 -162 c 0,24,25
 704 -139 704 -139 689 -113.5 c 128,-1,26
 674 -88 674 -88 644 -63.5 c 128,-1,27
 614 -39 614 -39 560.5 -23.5 c 128,-1,28
 507 -8 507 -8 440 -8 c 0,12,13
532 134 m 2,29,30
 652 134 652 134 747 70.5 c 128,-1,31
 842 7 842 7 842 -76 c 0,32,33
 842 -137 842 -137 799 -204 c 128,-1,34
 756 -271 756 -271 686.5 -326 c 128,-1,35
 617 -381 617 -381 519.5 -417 c 128,-1,36
 422 -453 422 -453 322 -454 c 0,37,38
 237 -455 237 -455 160 -429 c 128,-1,39
 83 -403 83 -403 29.5 -345.5 c 128,-1,40
 -24 -288 -24 -288 -24 -210 c 0,41,42
 -24 -179 -24 -179 -1.5 -146 c 128,-1,43
 21 -113 21 -113 57.5 -85 c 128,-1,44
 94 -57 94 -57 125.5 -37.5 c 128,-1,45
 157 -18 157 -18 188 -2 c 1,46,47
 125 18 125 18 74.5 67 c 128,-1,48
 24 116 24 116 24 184 c 1,49,50
 47 211 47 211 104.5 255 c 128,-1,51
 162 299 162 299 196 320 c 1,52,53
 122 361 122 361 76 432 c 128,-1,54
 30 503 30 503 30 576 c 0,55,56
 30 697 30 697 128.5 787.5 c 128,-1,57
 227 878 227 878 368 878 c 0,58,59
 392 878 392 878 415 875.5 c 128,-1,60
 438 873 438 873 460.5 866 c 128,-1,61
 483 859 483 859 493.5 856 c 0,62,63
 504 854 504 854 527 844 c 2,64,-1
 550 834 l 1,65,66
 576 824 576 824 596 820 c 1,67,-1
 810 850 l 1,68,69
 830 844 830 844 830 830 c 0,70,71
 830 817 830 817 814 786.5 c 128,-1,72
 798 756 798 756 784 748 c 1,73,-1
 652 756 l 2,74,75
 644 756 644 756 644 750 c 1,76,77
 658 736 658 736 679 681.5 c 128,-1,78
 700 627 700 627 700 568 c 0,79,80
 700 458 700 458 600.5 366 c 128,-1,81
 501 274 501 274 362 274 c 0,82,83
 337 274 337 274 301 280 c 128,-1,84
 265 286 265 286 250 292 c 1,85,86
 220 275 220 275 198 250.5 c 128,-1,87
 176 226 176 226 176 204 c 0,88,89
 176 184 176 184 209.5 159 c 128,-1,90
 243 134 243 134 296 134 c 2,91,-1
 532 134 l 2,29,30
EndSplineSet
Fore
SplineSet
436.288085938 1009.5 m 0
 607.243164062 1009.5 679.28125 887.865234375 679.28125 887.865234375 c 1
 679.28125 986.5 l 1
 1156.12304688 986.5 l 1
 1156.12304688 815.548828125 l 1
 1050.00390625 815.548828125 l 1
 1049.7265625 130.349609375 l 2
 1049.7265625 -157.251953125 892.626953125 -296.895507812 569.560546875 -296.895507812 c 0
 438.228515625 -296.895507812 327.122070312 -258.9375 247.602539062 -186.899414062 c 1
 319.364257812 -107.65625 l 1
 364.25 -148.662109375 429.084960938 -172.768554688 494.474609375 -172.768554688 c 0
 657.115234375 -172.768554688 678.450195312 -19.2705078125 679.834960938 46.673828125 c 2
 679.834960938 105.135742188 l 1
 679.834960938 105.135742188 603.916992188 5.943359375 455.9609375 5.943359375 c 0
 221.557617188 5.943359375 70 188.811523438 70 471.702148438 c 0
 70 868.747070312 267.275390625 1009.5 436.288085938 1009.5 c 0
679.834960938 817.765625 m 1
 622.481445312 816.658203125 l 2
 544.901367188 816.658203125 482.006835938 753.762695312 482.006835938 676.181640625 c 2
 482.006835938 309.891601562 l 2
 482.006835938 232.311523438 545.178710938 169.416992188 622.481445312 169.416992188 c 2
 679.834960938 168.5859375 l 1
 679.834960938 817.765625 l 1
EndSplineSet
Colour: ffff00
EndChar
StartChar: h
Encoding: 104 104 71
Width: 1123
Flags: HW
LayerCount: 2
Back
SplineSet
475 876 m 0,0,1
 540 876 540 876 585 859 c 128,-1,2
 630 842 630 842 659 811 c 128,-1,3
 688 780 688 780 704.5 726 c 128,-1,4
 721 672 721 672 727 608 c 128,-1,5
 733 544 733 544 733 452 c 2,6,-1
 733 232 l 2,7,8
 733 116 733 116 743 84 c 0,9,10
 747 70 747 70 793.5 61 c 128,-1,11
 840 52 840 52 869 52 c 1,12,13
 875 44 875 44 875.5 23 c 128,-1,14
 876 2 876 2 869 -6 c 1,15,16
 664 4 664 4 655 4 c 0,17,18
 620 4 620 4 587.5 2.5 c 128,-1,19
 555 1 555 1 513 -2 c 128,-1,20
 471 -5 471 -5 443 -6 c 1,21,22
 436 2 436 2 436.5 23 c 128,-1,23
 437 44 437 44 443 52 c 1,24,25
 472 52 472 52 518.5 61 c 128,-1,26
 565 70 565 70 569 84 c 0,27,28
 579 116 579 116 579 232 c 2,29,-1
 579 432 l 2,30,31
 579 621 579 621 538.5 690.5 c 128,-1,32
 498 760 498 760 383 760 c 0,33,34
 349 760 349 760 302.5 736 c 128,-1,35
 256 712 256 712 224.5 686 c 128,-1,36
 193 660 193 660 193 650 c 2,37,-1
 193 232 l 2,38,39
 193 116 193 116 203 84 c 0,40,41
 207 70 207 70 253.5 61 c 128,-1,42
 300 52 300 52 329 52 c 1,43,44
 335 44 335 44 335.5 23 c 128,-1,45
 336 2 336 2 329 -6 c 1,46,47
 124 4 124 4 115 4 c 0,48,49
 80 4 80 4 47.5 2.5 c 128,-1,50
 15 1 15 1 -27 -2 c 128,-1,51
 -69 -5 -69 -5 -97 -6 c 1,52,53
 -104 2 -104 2 -103.5 23 c 128,-1,54
 -103 44 -103 44 -97 52 c 1,55,56
 -68 52 -68 52 -21.5 61 c 128,-1,57
 25 70 25 70 29 84 c 0,58,59
 39 116 39 116 39 232 c 2,60,-1
 39 1116 l 2,61,62
 39 1196 39 1196 29 1220 c 0,63,64
 14 1256 14 1256 -93 1256 c 0,65,66
 -94 1256 -94 1256 -95 1268.5 c 128,-1,67
 -96 1281 -96 1281 -95.5 1294 c 128,-1,68
 -95 1307 -95 1307 -91 1308 c 0,69,70
 47 1322 47 1322 193 1388 c 1,71,72
 200 1388 200 1388 207.5 1377.5 c 128,-1,73
 215 1367 215 1367 215 1356 c 1,74,75
 193 1292 193 1292 193 1182 c 2,76,-1
 193 730 l 2,77,78
 193 726 193 726 199 726 c 0,79,80
 201 726 201 726 205 730 c 0,81,82
 245 774 245 774 328 825 c 128,-1,83
 411 876 411 876 475 876 c 0,0,1
EndSplineSet
Fore
SplineSet
477.119140625 890.509765625 m 1
 477.119140625 890.509765625 549.712890625 1008.8203125 710.967773438 1009.09667969 c 0
 936.782226562 1009.09667969 1033.20410156 888.84765625 1033.20410156 607.619140625 c 2
 1032.92675781 0 l 5
 663.866210938 0 l 1
 663.866210938 666.081054688 l 2
 663.866210938 740.3359375 605.680664062 798.522460938 531.1484375 798.522460938 c 2
 476.288085938 799.352539062 l 1
 476.288085938 -0.5546875 l 1
 106.396484375 -0.5546875 l 1
 105.564453125 1111.890625 l 1
 0 1111.890625 l 1
 0 1289.47851562 l 1
 476.288085938 1289.47851562 l 1
 477.119140625 890.509765625 l 1
EndSplineSet
Colour: ffff00
EndChar
StartChar: k
Encoding: 107 107 74
Width: 1229
Flags: HW
LayerCount: 2
Back
SplineSet
193 232 m 2,0,1
 193 116 193 116 203 84 c 0,2,3
 207 70 207 70 253.5 61 c 128,-1,4
 300 52 300 52 329 52 c 1,5,6
 335 44 335 44 335.5 23 c 128,-1,7
 336 2 336 2 329 -6 c 1,8,9
 124 4 124 4 115 4 c 0,10,11
 80 4 80 4 47.5 2.5 c 128,-1,12
 15 1 15 1 -27 -2 c 128,-1,13
 -69 -5 -69 -5 -97 -6 c 1,14,15
 -104 2 -104 2 -103.5 23 c 128,-1,16
 -103 44 -103 44 -97 52 c 1,17,18
 -68 52 -68 52 -21.5 61 c 128,-1,19
 25 70 25 70 29 84 c 0,20,21
 39 116 39 116 39 232 c 2,22,-1
 39 1116 l 2,23,24
 39 1196 39 1196 29 1220 c 0,25,26
 14 1256 14 1256 -93 1256 c 0,27,28
 -94 1256 -94 1256 -95 1268.5 c 128,-1,29
 -96 1281 -96 1281 -95.5 1294 c 128,-1,30
 -95 1307 -95 1307 -91 1308 c 0,31,32
 47 1322 47 1322 193 1388 c 1,33,34
 200 1388 200 1388 207.5 1377.5 c 128,-1,35
 215 1367 215 1367 215 1356 c 1,36,37
 193 1292 193 1292 193 1182 c 2,38,-1
 193 470 l 1,39,40
 229 483 229 483 357 592 c 0,41,42
 382 613 382 613 415 640.5 c 128,-1,43
 448 668 448 668 467.5 683.5 c 128,-1,44
 487 699 487 699 505.5 715.5 c 128,-1,45
 524 732 524 732 532.5 742 c 128,-1,46
 541 752 541 752 541 758 c 128,-1,47
 541 764 541 764 537 769 c 128,-1,48
 533 774 533 774 525 777.5 c 128,-1,49
 517 781 517 781 509 783.5 c 128,-1,50
 501 786 501 786 490.5 787.5 c 128,-1,51
 480 789 480 789 472.5 789.5 c 128,-1,52
 465 790 465 790 456 791 c 128,-1,53
 447 792 447 792 445 792 c 1,54,55
 438 803 438 803 439.5 825 c 128,-1,56
 441 847 441 847 449 850 c 1,57,58
 546 840 546 840 641 840 c 0,59,60
 744 840 744 840 817 850 c 1,61,62
 823 841 823 841 822.5 819.5 c 128,-1,63
 822 798 822 798 817 792 c 1,64,65
 790 792 790 792 740.5 779 c 128,-1,66
 691 766 691 766 663 746 c 0,67,68
 442 585 442 585 339 498 c 1,69,70
 396 437 396 437 482.5 339.5 c 128,-1,71
 569 242 569 242 623.5 183 c 128,-1,72
 678 124 678 124 699 106 c 0,73,74
 735 77 735 77 786.5 63.5 c 128,-1,75
 838 50 838 50 883 52 c 1,76,77
 886 47 886 47 887.5 29.5 c 128,-1,78
 889 12 889 12 885 4 c 1,79,80
 857 -8 857 -8 755 -8 c 0,81,82
 675 -8 675 -8 606 21 c 128,-1,83
 537 50 537 50 509 80 c 0,84,85
 337 266 337 266 223 390 c 0,86,87
 219 394 219 394 211.5 398.5 c 0,88,89
 204 404 204 404 198 406 c 2,90,-1
 193 408 l 1,91,-1
 193 232 l 2,0,1
EndSplineSet
Fore
SplineSet
942.046875 986.930664062 m 5
 1159.27148438 986.930664062 l 5
 868.899414062 663.310546875 l 5
 1088.34082031 0 l 5
 721.7734375 0 l 5
 598.477539062 362.1328125 l 5
 475.456054688 217.77734375 l 5
 475.456054688 0 l 5
 105.564453125 0 l 5
 105.564453125 1113.27636719 l 5
 0 1113.27636719 l 5
 0 1289.47851562 l 5
 475.456054688 1289.47851562 l 5
 475.456054688 469.9140625 l 5
 942.046875 986.930664062 l 5
EndSplineSet
Colour: ffff00
EndChar
StartChar: l
Encoding: 108 108 75
Width: 565
Flags: HW
LayerCount: 2
Back
SplineSet
39 1116 m 2,0,1
 39 1196 39 1196 29 1220 c 0,2,3
 14 1256 14 1256 -93 1256 c 0,4,5
 -94 1256 -94 1256 -95 1268.5 c 128,-1,6
 -96 1281 -96 1281 -95.5 1294 c 128,-1,7
 -95 1307 -95 1307 -91 1308 c 0,8,9
 47 1322 47 1322 193 1388 c 1,10,11
 200 1388 200 1388 207.5 1377.5 c 128,-1,12
 215 1367 215 1367 215 1356 c 1,13,14
 193 1292 193 1292 193 1182 c 2,15,-1
 193 232 l 2,16,17
 193 116 193 116 203 84 c 0,18,19
 207 70 207 70 253.5 61 c 128,-1,20
 300 52 300 52 329 52 c 1,21,22
 335 44 335 44 335.5 23 c 128,-1,23
 336 2 336 2 329 -6 c 1,24,25
 124 4 124 4 115 4 c 0,26,27
 80 4 80 4 47.5 2.5 c 128,-1,28
 15 1 15 1 -27 -2 c 128,-1,29
 -69 -5 -69 -5 -97 -6 c 1,30,31
 -104 2 -104 2 -103.5 23 c 128,-1,32
 -103 44 -103 44 -97 52 c 1,33,34
 -68 52 -68 52 -21.5 61 c 128,-1,35
 25 70 25 70 29 84 c 0,36,37
 39 116 39 116 39 232 c 2,38,-1
 39 1116 l 2,0,1
EndSplineSet
Fore
SplineSet
105.841796875 0 m 5
 105.841796875 1113.27636719 l 5
 0 1113.27636719 l 5
 0 1289.47851562 l 5
 475.456054688 1289.47851562 l 5
 475.456054688 0 l 5
 105.841796875 0 l 5
EndSplineSet
Colour: ffff00
EndChar
StartChar: o
Encoding: 111 111 78
Width: 1198
Flags: HW
HStem: -23 137.429<492.962 704.049> 872.776 137.428<493.002 704.049>
VStem: 79.9974 363.796<292.604 694.367> 753.283 363.52<292.604 694.367>
LayerCount: 2
Back
SplineSet
425.805664062 812 m 0,0,1
 344.805664062 812 344.805664062 812 290.805664062 760 c 128,-1,2
 236.805664062 708 236.805664062 708 215.305664062 633 c 128,-1,3
 193.805664062 558 193.805664062 558 193.805664062 466 c 0,4,5
 193.805664062 365 193.805664062 365 224.805664062 272.5 c 128,-1,6
 255.805664062 180 255.805664062 180 320.805664062 116 c 128,-1,7
 385.805664062 52 385.805664062 52 471.805664062 52 c 0,8,9
 552.805664062 52 552.805664062 52 606.805664062 104 c 128,-1,10
 660.805664062 156 660.805664062 156 682.305664062 230.5 c 128,-1,11
 703.805664062 305 703.805664062 305 703.805664062 396 c 0,12,13
 703.805664062 496 703.805664062 496 672.305664062 589.5 c 128,-1,14
 640.805664062 683 640.805664062 683 575.805664062 747.5 c 128,-1,15
 510.805664062 812 510.805664062 812 425.805664062 812 c 0,0,1
447.805664062 878 m 0,16,17
 642.805664062 878 642.805664062 878 759.305664062 755.5 c 128,-1,18
 875.805664062 633 875.805664062 633 875.805664062 442 c 0,19,20
 875.805664062 248 875.805664062 248 754.305664062 117 c 128,-1,21
 632.805664062 -14 632.805664062 -14 451.805664062 -14 c 0,22,23
 256.805664062 -14 256.805664062 -14 139.305664062 110.5 c 128,-1,24
 21.8056640625 235 21.8056640625 235 21.8056640625 426 c 0,25,26
 21.8056640625 619 21.8056640625 619 143.805664062 748.5 c 128,-1,27
 265.805664062 878 265.805664062 878 447.805664062 878 c 0,16,17
EndSplineSet
Fore
SplineSet
598.403320312 1010.20410156 m 4
 884.341796875 1010.20410156 1116.80566406 778.293945312 1116.80566406 493.463867188 c 4
 1116.80566406 208.633789062 884.341796875 -23 598.403320312 -23 c 4
 312.463867188 -23 80 208.633789062 80 493.463867188 c 4
 80 778.293945312 312.741210938 1010.20410156 598.403320312 1010.20410156 c 4
753.286132812 269.03515625 m 6
 753.286132812 718.168945312 l 6
 753.286132812 803.23046875 684.018554688 872.776367188 598.680664062 872.776367188 c 4
 513.341796875 872.776367188 443.795898438 803.5078125 443.795898438 718.168945312 c 6
 443.795898438 269.03515625 l 6
 443.795898438 183.973632812 513.341796875 114.428710938 598.680664062 114.428710938 c 4
 684.018554688 114.428710938 753.286132812 183.696289062 753.286132812 269.03515625 c 6
EndSplineSet
Colour: ffff00
EndChar
StartChar: r
Encoding: 114 114 81
Width: 820
Flags: HW
LayerCount: 2
Back
SplineSet
467 874 m 0,0,1
 506 874 506 874 540.5 857 c 128,-1,2
 575 840 575 840 589 816 c 1,3,4
 597 792 597 792 597 762 c 0,5,6
 597 713 597 713 574 685.5 c 128,-1,7
 551 658 551 658 531 658 c 0,8,9
 518 658 518 658 506.5 663.5 c 128,-1,10
 495 669 495 669 477.5 681.5 c 128,-1,11
 460 694 460 694 457 696 c 0,12,13
 421 720 421 720 383 720 c 0,14,15
 325 720 325 720 274 651.5 c 128,-1,16
 223 583 223 583 223 540 c 2,17,-1
 223 232 l 2,18,19
 223 116 223 116 233 84 c 0,20,21
 237 70 237 70 303.5 61 c 128,-1,22
 370 52 370 52 405 52 c 1,23,24
 411 44 411 44 411.5 23 c 128,-1,25
 412 2 412 2 405 -6 c 1,26,27
 200 4 200 4 157 4 c 0,28,29
 138 4 138 4 -67 -6 c 1,30,31
 -74 2 -74 2 -73.5 23 c 128,-1,32
 -73 44 -73 44 -67 52 c 1,33,34
 -38 52 -38 52 8.5 61 c 128,-1,35
 55 70 55 70 59 84 c 0,36,37
 67 109 67 109 69 232 c 1,38,-1
 69 604 l 2,39,40
 69 684 69 684 59 708 c 0,41,42
 53 723 53 723 21 732 c 128,-1,43
 -11 741 -11 741 -32.5 742.5 c 128,-1,44
 -54 744 -54 744 -71 744 c 1,45,46
 -75 748 -75 748 -75.5 768 c 128,-1,47
 -76 788 -76 788 -71 796 c 1,48,49
 100 819 100 819 215 880 c 1,50,51
 222 880 222 880 229.5 868 c 128,-1,52
 237 856 237 856 237 848 c 1,53,54
 235 836 235 836 229 757.5 c 128,-1,55
 223 679 223 679 223 664 c 0,56,57
 223 660 223 660 225 658.5 c 128,-1,58
 227 657 227 657 228.5 657.5 c 128,-1,59
 230 658 230 658 231 660 c 0,60,61
 265 734 265 734 335 804 c 128,-1,62
 405 874 405 874 467 874 c 0,0,1
EndSplineSet
Fore
SplineSet
475.455078125 882.474609375 m 1
 475.455078125 882.474609375 530.038085938 1010.48242188 650.288085938 1010.48242188 c 0
 721.49609375 1010.48242188 761.1171875 984.4375 770.537109375 977.234375 c 1
 770.537109375 763.333984375 l 1
 748.92578125 774.416992188 695.728515625 798.24609375 634.495117188 798.24609375 c 0
 533.36328125 798.24609375 475.455078125 729.807617188 475.455078125 610.389648438 c 2
 475.455078125 0 l 1
 105.564453125 0 l 1
 105.564453125 815.701171875 l 1
 0 815.701171875 l 1
 0 986.5 l 5
 475.455078125 986.5 l 1
 475.455078125 882.474609375 l 1
EndSplineSet
Colour: ffff00
EndChar
StartChar: s
Encoding: 115 115 82
Width: 1035
Flags: HW
LayerCount: 2
Back
SplineSet
310 874 m 0,0,1
 355 874 355 874 421 862.5 c 128,-1,2
 487 851 487 851 514 848 c 1,3,4
 534 758 534 758 538 628 c 0,5,6
 538 618 538 618 518 618 c 0,7,8
 496 618 496 618 484 628 c 1,9,10
 466 695 466 695 420 753.5 c 128,-1,11
 374 812 374 812 316 812 c 0,12,13
 247 812 247 812 210.5 777 c 128,-1,14
 174 742 174 742 174 686 c 0,15,16
 174 661 174 661 181.5 639.5 c 128,-1,17
 189 618 189 618 198 604 c 128,-1,18
 207 590 207 590 228.5 573 c 128,-1,19
 250 556 250 556 262 548 c 128,-1,20
 274 540 274 540 305 522.5 c 128,-1,21
 336 505 336 505 348 498 c 0,22,23
 357 493 357 493 388 475 c 128,-1,24
 419 457 419 457 433.5 447.5 c 128,-1,25
 448 438 448 438 475.5 419.5 c 128,-1,26
 503 401 503 401 517 385.5 c 128,-1,27
 531 370 531 370 547.5 348.5 c 128,-1,28
 564 327 564 327 571 303.5 c 128,-1,29
 578 280 578 280 578 254 c 0,30,31
 578 135 578 135 486.5 56.5 c 128,-1,32
 395 -22 395 -22 270 -22 c 0,33,34
 229 -22 229 -22 193.5 -16.5 c 128,-1,35
 158 -11 158 -11 110.5 0 c 128,-1,36
 63 11 63 11 36 16 c 1,37,38
 24 47 24 47 13 115.5 c 128,-1,39
 2 184 2 184 2 224 c 1,40,41
 18 236 18 236 38 236 c 0,42,43
 50 236 50 236 56 232 c 1,44,45
 76 161 76 161 137 101.5 c 128,-1,46
 198 42 198 42 272 42 c 0,47,48
 335 42 335 42 375.5 80.5 c 128,-1,49
 416 119 416 119 416 186 c 0,50,51
 416 221 416 221 403.5 249 c 128,-1,52
 391 277 391 277 362 301 c 128,-1,53
 333 325 333 325 310 339.5 c 128,-1,54
 287 354 287 354 240 378.5 c 128,-1,55
 193 403 193 403 172 416 c 0,56,57
 102 456 102 456 61 506.5 c 128,-1,58
 20 557 20 557 20 630 c 0,59,60
 20 737 20 737 107 805.5 c 128,-1,61
 194 874 194 874 310 874 c 0,0,1
EndSplineSet
Fore
SplineSet
660.1015625 651.243164062 m 0
 941.606445312 575.87890625 975.1328125 466.159179688 975.1328125 331.223632812 c 0
 975.1328125 118.432617188 765.666015625 -23.15234375 516.578125 -23.15234375 c 0
 299.076171875 -23.15234375 202.931640625 65.2353515625 202.931640625 65.2353515625 c 1
 202.931640625 -0.431640625 l 1
 70.7685546875 -0.431640625 l 1
 70.7685546875 281.62890625 l 1
 203.208984375 281.62890625 l 1
 203.208984375 281.62890625 199.053710938 107.904296875 463.657226562 107.904296875 c 0
 572.26953125 107.904296875 634.056640625 149.1875 634.056640625 197.3984375 c 0
 634.056640625 272.485351562 546.224609375 294.373046875 412.122070312 333.440429688 c 0
 264.719726562 376.38671875 40.5673828125 437.34375 61.34765625 679.50390625 c 0
 77.41796875 870.9609375 251.419921875 1010.05175781 474.462890625 1010.05175781 c 0
 673.124023438 1010.05175781 767.329101562 922.219726562 767.329101562 922.219726562 c 1
 767.329101562 986.5 l 1
 898.9375 986.5 l 1
 898.9375 703.885742188 l 1
 767.60546875 703.885742188 l 1
 767.8828125 723.00390625 765.111328125 776.202148438 726.043945312 819.1484375 c 0
 690.580078125 858.215820312 635.165039062 878.165039062 561.186523438 878.165039062 c 0
 484.16015625 878.165039062 424.036132812 838.543945312 424.036132812 787.83984375 c 0
 424.036132812 718.848632812 538.189453125 683.936523438 660.1015625 651.243164062 c 0
EndSplineSet
Colour: ffff00
EndChar
StartChar: t
Encoding: 116 116 83
Width: 721
Flags: HW
LayerCount: 2
Back
SplineSet
180 864 m 1,0,-1
 438 864 l 2,1,2
 448 864 448 864 448 842 c 0,3,4
 448 810 448 810 420 782 c 1,5,-1
 180 782 l 1,6,-1
 180 258 l 2,7,8
 180 94 180 94 312 94 c 0,9,10
 378 94 378 94 442 140 c 1,11,12
 448 137 448 137 448 126 c 0,13,14
 448 104 448 104 440 96 c 0,15,16
 420 74 420 74 395.5 52.5 c 128,-1,17
 371 31 371 31 325 8.5 c 128,-1,18
 279 -14 279 -14 234 -14 c 0,19,20
 193 -14 193 -14 158 -4 c 128,-1,21
 123 6 123 6 92 29 c 128,-1,22
 61 52 61 52 43.5 96 c 128,-1,23
 26 140 26 140 26 202 c 2,24,-1
 26 782 l 1,25,-1
 -90 782 l 2,26,27
 -100 782 -100 782 -100 800 c 0,28,29
 -100 805 -100 805 -78 830.5 c 128,-1,30
 -56 856 -56 856 -48 864 c 1,31,-1
 26 864 l 1,32,-1
 26 990 l 1,33,34
 42 1009 42 1009 72 1041.5 c 128,-1,35
 102 1074 102 1074 124 1098 c 128,-1,36
 146 1122 146 1122 148 1124 c 0,37,38
 153 1129 153 1129 160.5 1131 c 128,-1,39
 168 1133 168 1133 174 1131.5 c 128,-1,40
 180 1130 180 1130 180 1126 c 2,41,-1
 180 864 l 1,0,-1
EndSplineSet
Fore
SplineSet
477.94921875 265.002929688 m 6
 477.94921875 138.658203125 552.205078125 128.9609375 574.647460938 128.68359375 c 4
 597.921875 128.68359375 622.303710938 136.99609375 639.205078125 149.741210938 c 5
 639.205078125 40.8515625 l 5
 622.581054688 30.0458984375 535.303710938 -23.15234375 414.5 -23.15234375 c 4
 332.486328125 -23.15234375 265.712890625 -2.9267578125 216.392578125 36.6953125 c 4
 120.803710938 113.444335938 108.611328125 253.643554688 108.611328125 367.243164062 c 6
 108.611328125 793.657226562 l 5
 0 793.657226562 l 5
 0 975.416992188 l 5
 108.611328125 975.416992188 l 5
 108.611328125 1097.05175781 l 5
 478.2265625 1243.06835938 l 5
 478.2265625 975.416992188 l 5
 581.297851562 975.416992188 l 5
 581.297851562 793.657226562 l 5
 478.2265625 793.657226562 l 5
 477.94921875 265.002929688 l 6
EndSplineSet
Colour: ffff00
EndChar
StartChar: u
Encoding: 117 117 84
Width: 1122
Flags: HW
LayerCount: 2
Back
SplineSet
559 640 m 2,0,1
 559 718 559 718 543 748 c 0,2,3
 521 788 521 788 431 788 c 1,4,5
 426 793 426 793 425.5 812.5 c 128,-1,6
 425 832 425 832 431 840 c 1,7,8
 595 846 595 846 705 880 c 1,9,10
 712 880 712 880 719.5 860.5 c 128,-1,11
 727 841 727 841 727 832 c 1,12,13
 713 804 713 804 713 702 c 2,14,-1
 713 610 l 1,15,-1
 713 282 l 2,16,17
 713 195 713 195 727 130 c 0,18,19
 730 117 730 117 749 109 c 128,-1,20
 768 101 768 101 787.5 98.5 c 128,-1,21
 807 96 807 96 825.5 95 c 128,-1,22
 844 94 844 94 845 94 c 0,23,24
 851 91 851 91 851 72 c 0,25,26
 851 66 851 66 846 53 c 128,-1,27
 841 40 841 40 835 40 c 0,28,29
 806 38 806 38 768.5 32 c 128,-1,30
 731 26 731 26 698.5 18 c 128,-1,31
 666 10 666 10 638 2 c 128,-1,32
 610 -6 610 -6 592 -11 c 2,33,-1
 575 -16 l 1,34,35
 568 -16 568 -16 563.5 -6 c 128,-1,36
 559 4 559 4 559 16 c 2,37,-1
 559 108 l 1,38,-1
 555 118 l 1,39,40
 509 69 509 69 426 27.5 c 128,-1,41
 343 -14 343 -14 271 -14 c 0,42,43
 210 -14 210 -14 164 12 c 128,-1,44
 118 38 118 38 91.5 77 c 128,-1,45
 65 116 65 116 48.5 172 c 128,-1,46
 32 228 32 228 26.5 277.5 c 128,-1,47
 21 327 21 327 21 384 c 2,48,-1
 21 640 l 2,49,50
 21 718 21 718 5 748 c 0,51,52
 -17 788 -17 788 -107 788 c 1,53,54
 -112 793 -112 793 -112.5 812.5 c 128,-1,55
 -113 832 -113 832 -107 840 c 1,56,57
 57 846 57 846 167 880 c 1,58,59
 174 880 174 880 181.5 864.5 c 128,-1,60
 189 849 189 849 189 840 c 1,61,62
 175 812 175 812 175 702 c 2,63,-1
 175 616 l 1,64,-1
 175 408 l 2,65,66
 175 248 175 248 223 173 c 128,-1,67
 271 98 271 98 375 98 c 0,68,69
 440 98 440 98 500 134.5 c 128,-1,70
 560 171 560 171 559 208 c 1,71,-1
 559 640 l 2,0,1
EndSplineSet
Fore
SplineSet
661.372070312 986.655273438 m 5
 1031.26269531 986.655273438 l 5
 1032.09375 0 l 5
 661.6484375 0 l 5
 661.372070312 99.74609375 l 5
 661.372070312 99.74609375 590.44140625 -22.443359375 426.967773438 -22.443359375 c 4
 201.154296875 -22.443359375 104.733398438 97.806640625 104.733398438 379.03515625 c 6
 105.009765625 815.977539062 l 5
 0 815.977539062 l 5
 0 986.932617188 l 5
 473.79296875 986.932617188 l 5
 473.79296875 320.295898438 l 6
 473.79296875 246.041015625 531.978515625 187.854492188 606.510742188 187.854492188 c 6
 661.372070312 187.024414062 l 5
 661.372070312 986.655273438 l 5
EndSplineSet
Colour: ffff00
EndChar
StartChar: v
Encoding: 118 118 85
Width: 1136
Flags: HW
LayerCount: 2
Back
SplineSet
65 850 m 0,0,1
 99 850 99 850 129.5 851.5 c 128,-1,2
 160 853 160 853 198.5 856 c 128,-1,3
 237 859 237 859 265 860 c 1,4,5
 269 851 269 851 266.5 826.5 c 128,-1,6
 264 802 264 802 257 802 c 0,7,8
 244 802 244 802 224.5 800 c 128,-1,9
 205 798 205 798 182 789.5 c 128,-1,10
 159 781 159 781 159 768 c 0,11,12
 159 764 159 764 161 760 c 2,13,-1
 381 220 l 1,14,15
 483 486 483 486 559 674 c 0,16,17
 571 703 571 703 571 738 c 0,18,19
 571 768 571 768 539 785 c 128,-1,20
 507 802 507 802 455 802 c 0,21,22
 448 802 448 802 448 827 c 128,-1,23
 448 852 448 852 455 860 c 1,24,25
 476 859 476 859 503 856 c 128,-1,26
 530 853 530 853 555 851.5 c 128,-1,27
 580 850 580 850 617 850 c 0,28,29
 651 850 651 850 678 851.5 c 128,-1,30
 705 853 705 853 739 856 c 128,-1,31
 773 859 773 859 803 860 c 1,32,33
 809 851 809 851 806 826.5 c 128,-1,34
 803 802 803 802 797 802 c 0,35,36
 771 802 771 802 728.5 786 c 128,-1,37
 686 770 686 770 671 734 c 0,38,39
 457 224 457 224 371 12 c 0,40,41
 367 1 367 1 348 -10.5 c 128,-1,42
 329 -22 329 -22 319 -22 c 0,43,44
 305 -22 305 -22 301 -14 c 0,45,46
 254 97 254 97 189 260 c 128,-1,47
 124 423 124 423 74 542.5 c 128,-1,48
 24 662 24 662 -25 762 c 0,49,50
 -44 802 -44 802 -135 802 c 1,51,52
 -147 831 -147 831 -135 860 c 1,53,54
 -106 859 -106 859 -69 856 c 128,-1,55
 -32 853 -32 853 -1.5 851.5 c 128,-1,56
 29 850 29 850 65 850 c 0,0,1
EndSplineSet
Fore
SplineSet
0 986.5 m 1
 408.90625 986.5 l 1
 644.748046875 294.8046875 l 1
 875.90625 986.5 l 1
 1046.90625 986.5 l 1
 712.90625 0 l 1
 372.108398438 0 l 1
 98.9140625 815.978515625 l 1
 0 816.809570312 l 1
 0 986.5 l 1
EndSplineSet
Colour: ffff00
EndChar
StartChar: w
Encoding: 119 119 86
Width: 1803
Flags: HW
LayerCount: 2
Back
SplineSet
62 850 m 0,0,1
 96 850 96 850 126.5 851.5 c 128,-1,2
 157 853 157 853 195.5 856 c 128,-1,3
 234 859 234 859 262 860 c 1,4,5
 265 851 265 851 264.5 828 c 128,-1,6
 264 805 264 805 258 802 c 1,7,8
 243 802 243 802 224 800 c 128,-1,9
 205 798 205 798 181.5 786.5 c 128,-1,10
 158 775 158 775 158 756 c 0,11,12
 158 754 158 754 168 726 c 0,13,14
 189 671 189 671 374 234 c 1,15,16
 398 295 398 295 429 373 c 128,-1,17
 460 451 460 451 476 490.5 c 128,-1,18
 492 530 492 530 507.5 571 c 128,-1,19
 523 612 523 612 529.5 630.5 c 128,-1,20
 536 649 536 649 536 654 c 0,21,22
 536 666 536 666 521 702 c 128,-1,23
 506 738 506 738 488 764 c 0,24,25
 462 802 462 802 400 802 c 1,26,27
 392 806 392 806 392 829 c 128,-1,28
 392 852 392 852 400 860 c 1,29,30
 425 859 425 859 480 854.5 c 128,-1,31
 535 850 535 850 582 850 c 0,32,33
 590 850 590 850 790 860 c 1,34,35
 794 850 794 850 794 829 c 128,-1,36
 794 808 794 808 788 802 c 1,37,38
 688 802 688 802 688 738 c 0,39,40
 688 734 688 734 693 716 c 0,41,42
 698 701 698 701 707 675 c 128,-1,43
 716 649 716 649 733 605.5 c 128,-1,44
 750 562 750 562 768 516.5 c 128,-1,45
 786 471 786 471 817 392 c 128,-1,46
 848 313 848 313 876 240 c 1,47,48
 1025 611 1025 611 1051 688 c 0,49,50
 1062 720 1062 720 1062 736 c 0,51,52
 1062 756 1062 756 1051.5 769.5 c 128,-1,53
 1041 783 1041 783 1017.5 789.5 c 128,-1,54
 994 796 994 796 982 798 c 128,-1,55
 970 800 970 800 942 802 c 1,56,57
 936 807 936 807 935.5 829.5 c 128,-1,58
 935 852 935 852 942 860 c 1,59,60
 970 859 970 859 1019.5 854.5 c 128,-1,61
 1069 850 1069 850 1116 850 c 0,62,63
 1150 850 1150 850 1176.5 851.5 c 128,-1,64
 1203 853 1203 853 1236.5 856 c 128,-1,65
 1270 859 1270 859 1300 860 c 1,66,67
 1303 857 1303 857 1302.5 832.5 c 128,-1,68
 1302 808 1302 808 1294 802 c 1,69,70
 1266 802 1266 802 1219.5 785 c 128,-1,71
 1173 768 1173 768 1158 730 c 0,72,73
 982 285 982 285 868 12 c 0,74,75
 864 0 864 0 849.5 -11 c 128,-1,76
 835 -22 835 -22 826 -22 c 0,77,78
 806 -22 806 -22 802 -14 c 2,79,-1
 580 564 l 1,80,-1
 364 16 l 2,81,82
 362 9 362 9 345 -6.5 c 128,-1,83
 328 -22 328 -22 314 -22 c 128,-1,84
 300 -22 300 -22 296 -14 c 0,85,86
 129 404 129 404 -28 758 c 0,87,88
 -47 802 -47 802 -136 802 c 1,89,90
 -140 811 -140 811 -140 831 c 128,-1,91
 -140 851 -140 851 -136 860 c 1,92,93
 -106 859 -106 859 -70 856 c 128,-1,94
 -34 853 -34 853 -4 851.5 c 128,-1,95
 26 850 26 850 62 850 c 0,0,1
EndSplineSet
Fore
SplineSet
1138.13964844 986.5 m 1
 1340.4765625 265.158203125 l 1
 1544.13964844 986.5 l 1
 1713.13964844 986.5 l 1
 1429.13964844 0 l 1
 1060.91015625 0 l 1
 881.08984375 632.833007812 l 1
 699.331054688 0 l 1
 329.993164062 0 l 1
 98.3603515625 814.869140625 l 1
 0 815.146484375 l 1
 0 986.5 l 5
 408.139648438 986.5 l 1
 610.66796875 261.279296875 l 1
 814.139648438 986.5 l 1
 1138.13964844 986.5 l 1
EndSplineSet
Colour: ffff00
EndChar
StartChar: x
Encoding: 120 120 87
Width: 1116
Flags: HW
HStem: 0 21G<36.572 247.029 587.666 1002.72> 815.146 171.354<0 91.987>
LayerCount: 2
Back
SplineSet
106 850 m 0,0,1
 198 850 198 850 308 860 c 1,2,3
 310 850 310 850 310 830 c 128,-1,4
 310 810 310 810 304 802 c 1,5,6
 224 802 224 802 224 768 c 0,7,8
 224 761 224 761 234 744 c 2,9,-1
 366 534 l 1,10,11
 382 560 382 560 423.5 617 c 128,-1,12
 465 674 465 674 486.5 710 c 128,-1,13
 508 746 508 746 508 764 c 0,14,15
 508 778 508 778 491.5 786.5 c 128,-1,16
 475 795 475 795 457 797.5 c 128,-1,17
 439 800 439 800 418 801 c 128,-1,18
 397 802 397 802 396 802 c 0,19,20
 393 804 393 804 392.5 829 c 128,-1,21
 392 854 392 854 396 860 c 1,22,23
 425 859 425 859 463 856 c 128,-1,24
 501 853 501 853 531.5 851.5 c 128,-1,25
 562 850 562 850 598 850 c 0,26,27
 688 850 688 850 758 860 c 1,28,29
 760 852 760 852 759.5 827 c 128,-1,30
 759 802 759 802 756 802 c 0,31,32
 631 795 631 795 602 758 c 1,33,34
 577 723 577 723 526 651.5 c 128,-1,35
 475 580 475 580 442.5 535 c 128,-1,36
 410 490 410 490 402 480 c 1,37,-1
 642 124 l 1,38,39
 692 52 692 52 796 52 c 0,40,41
 798 52 798 52 798.5 39 c 128,-1,42
 799 26 799 26 798 12 c 128,-1,43
 797 -2 797 -2 794 -6 c 1,44,45
 768 -5 768 -5 732 -2 c 128,-1,46
 696 1 696 1 667.5 2.5 c 128,-1,47
 639 4 639 4 606 4 c 0,48,49
 568 4 568 4 534 2.5 c 128,-1,50
 500 1 500 1 456.5 -2 c 128,-1,51
 413 -5 413 -5 384 -6 c 1,52,53
 380 4 380 4 380.5 28 c 128,-1,54
 381 52 381 52 386 52 c 0,55,56
 415 54 415 54 442.5 63 c 128,-1,57
 470 72 470 72 470 88 c 0,58,59
 470 92 470 92 466 100 c 0,60,61
 362 270 362 270 308 350 c 1,62,63
 297 334 297 334 246.5 259.5 c 128,-1,64
 196 185 196 185 164 134 c 0,65,66
 152 115 152 115 152 96 c 0,67,68
 152 84 152 84 160 75.5 c 128,-1,69
 168 67 168 67 186.5 62.5 c 128,-1,70
 205 58 205 58 215.5 56.5 c 128,-1,71
 226 55 226 55 251 53 c 0,72,73
 258 52 258 52 262 52 c 0,74,75
 264 52 264 52 265 39.5 c 128,-1,76
 266 27 266 27 265 13 c 128,-1,77
 264 -1 264 -1 260 -6 c 1,78,79
 232 -5 232 -5 197 -2 c 128,-1,80
 162 1 162 1 133.5 2.5 c 128,-1,81
 105 4 105 4 70 4 c 0,82,83
 36 4 36 4 7.5 2.5 c 128,-1,84
 -21 1 -21 1 -56 -2 c 128,-1,85
 -91 -5 -91 -5 -118 -6 c 1,86,87
 -121 6 -121 6 -119.5 25.5 c 128,-1,88
 -118 45 -118 45 -114 52 c 1,89,90
 -110 53 -110 53 -90 56 c 128,-1,91
 -70 59 -70 59 -63.5 60 c 128,-1,92
 -57 61 -57 61 -38.5 64.5 c 128,-1,93
 -20 68 -20 68 -11.5 71.5 c 128,-1,94
 -3 75 -3 75 12 81 c 128,-1,95
 27 87 27 87 36.5 93.5 c 128,-1,96
 46 100 46 100 57 109.5 c 128,-1,97
 68 119 68 119 76 130 c 0,98,99
 262 398 262 398 272 412 c 1,100,-1
 40 758 l 2,101,102
 25 781 25 781 -15.5 791.5 c 128,-1,103
 -56 802 -56 802 -94 802 c 0,104,105
 -96 802 -96 802 -96.5 814 c 128,-1,106
 -97 826 -97 826 -96 840 c 128,-1,107
 -95 854 -95 854 -92 860 c 1,108,109
 18 850 18 850 106 850 c 0,0,1
EndSplineSet
Fore
SplineSet
1026.72460938 986.5 m 5
 683.813476562 513.692382812 l 1
 1002.72460938 0 l 1
 600.137695312 0 l 1
 428.908203125 274.579101562 l 1
 232.740234375 0 l 1
 36.572265625 0 l 1
 336.087890625 423.366210938 l 1
 91.9873046875 814.869140625 l 1
 0 815.146484375 l 1
 0 986.5 l 1
 390.724609375 986.5 l 1
 592.657226562 661.37109375 l 1
 825.724609375 986.5 l 1
 1026.72460938 986.5 l 5
EndSplineSet
Colour: ffff00
EndChar
StartChar: y
Encoding: 121 121 88
Width: 1121
Flags: HW
LayerCount: 2
Back
SplineSet
63 850 m 0,0,1
 178 850 178 850 263 860 c 1,2,3
 267 851 267 851 264.5 826.5 c 128,-1,4
 262 802 262 802 255 802 c 0,5,6
 242 802 242 802 222.5 800 c 128,-1,7
 203 798 203 798 180 789.5 c 128,-1,8
 157 781 157 781 157 768 c 0,9,10
 157 764 157 764 159 760 c 2,11,-1
 371 220 l 1,12,13
 473 486 473 486 549 674 c 0,14,15
 561 703 561 703 561 738 c 0,16,17
 561 768 561 768 529 785 c 128,-1,18
 497 802 497 802 445 802 c 0,19,20
 438 802 438 802 438 827 c 128,-1,21
 438 852 438 852 445 860 c 1,22,23
 520 850 520 850 625 850 c 0,24,25
 693 850 693 850 793 860 c 1,26,27
 799 851 799 851 796 826.5 c 128,-1,28
 793 802 793 802 787 802 c 0,29,30
 761 802 761 802 718.5 786 c 128,-1,31
 676 770 676 770 661 734 c 0,32,33
 447 224 447 224 361 12 c 0,34,35
 351 -12 351 -12 318 -100 c 128,-1,36
 285 -188 285 -188 260 -242 c 128,-1,37
 235 -296 235 -296 202 -344 c 0,38,39
 126 -456 126 -456 28 -456 c 0,40,41
 -59 -456 -59 -456 -59 -370 c 0,42,43
 -59 -341 -59 -341 -35 -312 c 1,44,45
 45 -312 45 -312 90 -292.5 c 128,-1,46
 135 -273 135 -273 191 -198 c 0,47,48
 212 -170 212 -170 246.5 -94 c 128,-1,49
 281 -18 281 -18 287 4 c 1,50,51
 87 514 87 514 -27 762 c 0,52,53
 -46 802 -46 802 -137 802 c 0,54,55
 -140 802 -140 802 -140 829.5 c 128,-1,56
 -140 857 -140 857 -137 860 c 1,57,58
 -42 850 -42 850 63 850 c 0,0,1
EndSplineSet
Fore
SplineSet
661.372070312 986.5 m 1
 1031.54101562 986.5 l 1
 1031.54101562 106.51953125 l 2
 1031.54101562 -162.241210938 870.284179688 -298.284179688 552.205078125 -298.284179688 c 0
 420.595703125 -298.284179688 309.490234375 -260.6015625 229.970703125 -188.83984375 c 1
 301.177734375 -110.151367188 l 1
 346.063476562 -151.158203125 411.17578125 -175.263671875 477.119140625 -175.263671875 c 0
 639.206054688 -175.263671875 662.48046875 -47.810546875 662.48046875 38.6357421875 c 2
 662.756835938 112.614257812 l 1
 662.756835938 112.614257812 587.948242188 6.49609375 426.96875 6.49609375 c 0
 201.155273438 6.49609375 104.733398438 126.745117188 104.733398438 407.973632812 c 2
 105.010742188 814.715820312 l 1
 0 814.715820312 l 1
 0 986.5 l 1
 473.793945312 986.5 l 1
 473.793945312 349.510742188 l 2
 473.793945312 275.255859375 531.979492188 217.071289062 606.510742188 217.071289062 c 2
 661.372070312 216.239257812 l 1
 661.372070312 986.5 l 1
EndSplineSet
Colour: ffff00
EndChar
StartChar: z
Encoding: 122 122 89
Width: 1058
Flags: HW
LayerCount: 2
Back
SplineSet
238 862 m 2,0,-1
 494 862 l 2,1,2
 607 862 607 862 738 878 c 1,3,4
 744 868 744 868 744 830 c 1,5,6
 214 76 214 76 214 70 c 1,7,-1
 494 70 l 2,8,9
 579 70 579 70 636.5 123.5 c 128,-1,10
 694 177 694 177 714 250 c 1,11,12
 716 262 716 262 728 262 c 128,-1,13
 740 262 740 262 756 254.5 c 128,-1,14
 772 247 772 247 780 238 c 1,15,16
 720 92 720 92 690 0 c 1,17,-1
 40 0 l 1,18,19
 29 3 29 3 19.5 15.5 c 128,-1,20
 10 28 10 28 10 40 c 128,-1,21
 10 52 10 52 12 54 c 2,22,-1
 526 792 l 1,23,-1
 246 794 l 2,24,25
 219 794 219 794 196 785.5 c 128,-1,26
 173 777 173 777 159.5 766 c 128,-1,27
 146 755 146 755 133.5 737 c 128,-1,28
 121 719 121 719 115.5 707 c 128,-1,29
 110 695 110 695 103 676.5 c 128,-1,30
 96 658 96 658 94 654 c 0,31,32
 91 648 91 648 77.5 642 c 128,-1,33
 64 636 64 636 50 636 c 0,34,35
 28 636 28 636 28 642 c 1,36,37
 52 731 52 731 60 878 c 1,38,39
 166 862 166 862 238 862 c 2,0,-1
EndSplineSet
Fore
SplineSet
243.809570312 767.767578125 m 2
 243.533203125 699.331054688 l 1
 111.370117188 699.331054688 l 1
 111.370117188 986.5 l 5
 976.666015625 986.5 l 1
 976.666015625 835.927734375 l 1
 488.1875 171.5078125 l 1
 789.918945312 170.676757812 l 1
 838.961914062 176.21875 844.2265625 205.864257812 844.2265625 218.33203125 c 2
 844.50390625 287.046875 l 1
 976.666015625 287.046875 l 1
 976.666015625 0 l 1
 82 0 l 1
 82 193.120117188 l 1
 536.67578125 815.146484375 l 1
 298.116210938 815.423828125 l 1
 249.07421875 809.8828125 243.809570312 780.235351562 243.809570312 767.767578125 c 2
EndSplineSet
Colour: ffff00
EndChar
StartChar: braceleft
Encoding: 123 123 90
Width: 568
Flags: HW
LayerCount: 2
Back
SplineSet
59 766 m 0,0,1
 59 777 59 777 58 787.5 c 128,-1,2
 57 798 57 798 53.5 810.5 c 128,-1,3
 50 823 50 823 48 830.5 c 128,-1,4
 46 838 46 838 40 853.5 c 128,-1,5
 34 869 34 869 32 873 c 128,-1,6
 30 877 30 877 22 895.5 c 128,-1,7
 14 914 14 914 13 916 c 0,8,9
 -33 1016 -33 1016 -33 1082 c 0,10,11
 -33 1214 -33 1214 35.5 1311.5 c 128,-1,12
 104 1409 104 1409 181 1440 c 1,13,14
 193 1440 193 1440 203 1428 c 128,-1,15
 213 1416 213 1416 213 1402 c 1,16,17
 162 1377 162 1377 108.5 1312 c 128,-1,18
 55 1247 55 1247 55 1178 c 0,19,20
 55 1162 55 1162 56 1147.5 c 128,-1,21
 57 1133 57 1133 60.5 1118 c 128,-1,22
 64 1103 64 1103 66.5 1093 c 128,-1,23
 69 1083 69 1083 75.5 1066.5 c 128,-1,24
 82 1050 82 1050 84.5 1044 c 128,-1,25
 87 1038 87 1038 95 1019.5 c 128,-1,26
 103 1001 103 1001 105 996 c 0,27,28
 151 900 151 900 151 810 c 0,29,30
 151 723 151 723 103 659 c 128,-1,31
 55 595 55 595 5 576 c 1,32,33
 55 557 55 557 103 493 c 128,-1,34
 151 429 151 429 151 342 c 0,35,36
 151 252 151 252 105 156 c 0,37,38
 103 151 103 151 95 132.5 c 128,-1,39
 87 114 87 114 84.5 108 c 128,-1,40
 82 102 82 102 75.5 85.5 c 128,-1,41
 69 69 69 69 66.5 59 c 128,-1,42
 64 49 64 49 60.5 34 c 128,-1,43
 57 19 57 19 56 4.5 c 128,-1,44
 55 -10 55 -10 55 -26 c 0,45,46
 55 -95 55 -95 108.5 -160 c 128,-1,47
 162 -225 162 -225 213 -250 c 1,48,49
 213 -264 213 -264 203 -276 c 128,-1,50
 193 -288 193 -288 181 -288 c 1,51,52
 104 -257 104 -257 35.5 -159.5 c 128,-1,53
 -33 -62 -33 -62 -33 70 c 0,54,55
 -33 136 -33 136 13 236 c 0,56,57
 14 238 14 238 22 256.5 c 128,-1,58
 30 275 30 275 32 279 c 128,-1,59
 34 283 34 283 40 298.5 c 128,-1,60
 46 314 46 314 48 321.5 c 128,-1,61
 50 329 50 329 53.5 341.5 c 128,-1,62
 57 354 57 354 58 364.5 c 128,-1,63
 59 375 59 375 59 386 c 0,64,65
 59 515 59 515 -93 554 c 1,66,67
 -97 561 -97 561 -97 576 c 128,-1,68
 -97 591 -97 591 -93 598 c 1,69,70
 59 637 59 637 59 766 c 0,0,1
EndSplineSet
Fore
SplineSet
111.682617188 756.986328125 m 2
 111.60546875 723.391601562 108.772460938 603.97265625 0 604.055664062 c 1
 0 522.891601562 l 1
 108.772460938 522.891601562 111.622070312 403.47265625 111.682617188 369.877929688 c 2
 112.348632812 -70 l 2
 112.348632812 -397.483398438 167.580078125 -589.104492188 518.348632812 -589.104492188 c 1
 518.348632812 -445.569335938 l 1
 404.502929688 -445.569335938 315.771484375 -361.578125 315.771484375 -256.463867188 c 2
 315.771484375 -256.463867188 315.771484375 290.626953125 315.771484375 291.625 c 0
 315.771484375 540.35546875 203.984375 564.3046875 202.154296875 564.5546875 c 1
 260.94921875 572.788085938 315.771484375 630.001953125 315.771484375 835.239257812 c 0
 315.771484375 1302.359375 l 2
 315.771484375 1407.47363281 404.5859375 1491.46484375 518.348632812 1491.46484375 c 1
 518.348632812 1635 l 1
 167.580078125 1635 112.348632812 1443.37890625 112.348632812 1115.89550781 c 2
 111.682617188 756.986328125 l 2
EndSplineSet
Colour: ffff00
EndChar
StartChar: asciitilde
Encoding: 126 126 93
Width: 1065
Flags: HW
LayerCount: 2
Back
SplineSet
438.987304688 554 m 0,0,1
 391.987304688 571 391.987304688 571 365.987304688 580 c 128,-1,2
 339.987304688 589 339.987304688 589 295.487304688 597.5 c 128,-1,3
 250.987304688 606 250.987304688 606 208.987304688 606 c 0,4,5
 155.987304688 606 155.987304688 606 113.987304688 582.5 c 128,-1,6
 71.9873046875 559 71.9873046875 559 26.9873046875 518 c 1,7,8
 8.9873046875 527 8.9873046875 527 8.9873046875 552 c 0,9,10
 8.9873046875 606 8.9873046875 606 97.9873046875 657 c 128,-1,11
 186.987304688 708 186.987304688 708 268.987304688 708 c 0,12,13
 312.987304688 708 312.987304688 708 360.487304688 698.5 c 128,-1,14
 407.987304688 689 407.987304688 689 430.487304688 681 c 128,-1,15
 452.987304688 673 452.987304688 673 506.987304688 654 c 0,16,17
 553.987304688 637 553.987304688 637 580.487304688 628 c 128,-1,18
 606.987304688 619 606.987304688 619 651.987304688 610.5 c 128,-1,19
 696.987304688 602 696.987304688 602 740.987304688 602 c 0,20,21
 754.987304688 602 754.987304688 602 768.987304688 604.5 c 128,-1,22
 782.987304688 607 782.987304688 607 793.487304688 609 c 128,-1,23
 803.987304688 611 803.987304688 611 817.487304688 618 c 128,-1,24
 830.987304688 625 830.987304688 625 837.987304688 628.5 c 128,-1,25
 844.987304688 632 844.987304688 632 859.487304688 642.5 c 128,-1,26
 873.987304688 653 873.987304688 653 878.487304688 656.5 c 128,-1,27
 882.987304688 660 882.987304688 660 899.987304688 673.5 c 128,-1,28
 916.987304688 687 916.987304688 687 920.987304688 690 c 1,29,30
 938.987304688 681 938.987304688 681 938.987304688 656 c 0,31,32
 938.987304688 605 938.987304688 605 856.487304688 552.5 c 128,-1,33
 773.987304688 500 773.987304688 500 682.987304688 500 c 0,34,35
 636.987304688 500 636.987304688 500 590.987304688 508.5 c 128,-1,36
 544.987304688 517 544.987304688 517 515.487304688 526.5 c 128,-1,37
 485.987304688 536 485.987304688 536 438.987304688 554 c 0,0,1
EndSplineSet
Fore
SplineSet
821.952148438 653.928710938 m 6
 821.78515625 683.200195312 l 5
 1025.02832031 683.200195312 l 5
 1025.02832031 613.596679688 l 6
 1025.02832031 384.658203125 844.655273438 298.669921875 699.791015625 298.669921875 c 4
 558.91796875 298.669921875 381.954101562 407.193359375 381.954101562 407.193359375 c 5
 281.580078125 459.833984375 244.158203125 385.489257812 243.076171875 327.610351562 c 6
 243.243164062 298.420898438 l 5
 40 298.420898438 l 5
 40 368.025390625 l 6
 40 597.379882812 220.375 682.952148438 365.23828125 682.952148438 c 4
 493.387695312 682.952148438 683.075195312 574.427734375 683.075195312 574.427734375 c 5
 788.522460938 525.114257812 821.952148438 596.631835938 821.952148438 653.928710938 c 6
EndSplineSet
Colour: ffff00
EndChar
StartChar: exclamdown
Encoding: 161 161 94
Width: 505
Flags: HW
LayerCount: 2
Back
SplineSet
-34 748 m 128,-1,1
 -34 793 -34 793 -2.5 826.5 c 128,-1,2
 29 860 29 860 74 860 c 128,-1,3
 119 860 119 860 152.5 826.5 c 128,-1,4
 186 793 186 793 186 748 c 128,-1,5
 186 703 186 703 152.5 671.5 c 128,-1,6
 119 640 119 640 74 640 c 128,-1,7
 29 640 29 640 -2.5 671.5 c 128,-1,0
 -34 703 -34 703 -34 748 c 128,-1,1
66 -446 m 0,8,9
 23 -446 23 -446 0.5 -410.5 c 128,-1,10
 -22 -375 -22 -375 -22 -330 c 0,11,12
 -22 -314 -22 -314 -19 -273.5 c 128,-1,13
 -16 -233 -16 -233 -10 -157 c 128,-1,14
 -4 -81 -4 -81 3.5 1.5 c 128,-1,15
 11 84 11 84 23 224.5 c 128,-1,16
 35 365 35 365 46 494 c 1,17,18
 58 518 58 518 78 520 c 1,19,20
 99 512 99 512 106 498 c 1,21,22
 166 -192 166 -192 166 -330 c 0,23,24
 166 -375 166 -375 138.5 -410.5 c 128,-1,25
 111 -446 111 -446 66 -446 c 0,8,9
EndSplineSet
Fore
SplineSet
217.705078125 622.41796875 m 4
 319.666992188 622.41796875 402.7890625 705.26171875 402.7890625 807.501953125 c 4
 402.7890625 909.741210938 319.944335938 992.5859375 217.705078125 992.5859375 c 4
 115.46484375 992.5859375 32.6201171875 909.741210938 32.6201171875 807.501953125 c 4
 32.6201171875 705.26171875 115.46484375 622.41796875 217.705078125 622.41796875 c 4
394.754882812 -224.298828125 m 4
 462.08203125 -139.514648438 426.89453125 -19.8193359375 418.859375 3.1767578125 c 4
 345.435546875 220.401367188 321.330078125 400.499023438 316.896484375 492.209960938 c 5
 116.018554688 492.209960938 l 5
 111.5859375 400.499023438 89.1435546875 220.124023438 15.99609375 3.4541015625 c 4
 8.2373046875 -20.0966796875 -26.6728515625 -140.0703125 40.37890625 -224.298828125 c 4
 78.6142578125 -272.509765625 138.461914062 -296.892578125 217.427734375 -296.892578125 c 4
 296.670898438 -296.892578125 356.241210938 -272.509765625 394.754882812 -224.298828125 c 4
EndSplineSet
Colour: ffff00
EndChar
StartChar: cent
Encoding: 162 162 95
Width: 1112
Flags: HW
LayerCount: 2
Back
SplineSet
484 944 m 1,0,1
 540 944 540 944 540 932 c 1,2,-1
 374 -90 l 1,3,4
 318 -90 318 -90 318 -76 c 1,5,-1
 484 944 l 1,0,1
EndSplineSet
Fore
SplineSet
906.47265625 475.59375 m 1
 1032.59863281 349.3828125 l 1
 973.524414062 216.111328125 819.89453125 83.91796875 630.456054688 83.91796875 c 0
 326.936523438 83.91796875 80 279.090820312 80 641.186523438 c 0
 80 981.596679688 314.47265625 1200.03417969 621.3984375 1200.03417969 c 0
 784.25 1200.03417969 866.423828125 1122.51367188 866.838867188 1122.26367188 c 2
 866.838867188 1200.03417969 l 1
 1012.32519531 1200.03417969 l 1
 1012.32519531 807.112304688 l 1
 866.0078125 807.112304688 l 1
 866.0078125 807.112304688 864.180664062 1004.61132812 671.41796875 1004.61132812 c 0
 563.985351562 1004.61132812 476.826171875 921.939453125 476.826171875 816.916992188 c 2
 476.826171875 467.533203125 l 2
 476.826171875 362.510742188 564.982421875 277.346679688 671.41796875 277.346679688 c 0
 849.890625 277.346679688 900.739257812 453.076171875 906.47265625 475.59375 c 1
593.481445312 0 m 1
 593.481445312 1289.47851562 l 1
 738.053710938 1289.47851562 l 1
 738.053710938 0 l 1
 593.481445312 0 l 1
EndSplineSet
Colour: ffff00
EndChar
StartChar: currency
Encoding: 164 164 97
Width: 1434
Flags: HW
LayerCount: 2
Back
SplineSet
842.428710938 304 m 0,0,1
 931.428710938 304 931.428710938 304 987.928710938 388 c 128,-1,2
 1044.42871094 472 1044.42871094 472 1044.42871094 588 c 0,3,4
 1044.42871094 725 1044.42871094 725 973.928710938 825.5 c 128,-1,5
 903.428710938 926 903.428710938 926 808.428710938 926 c 0,6,7
 719.428710938 926 719.428710938 926 661.928710938 840 c 128,-1,8
 604.428710938 754 604.428710938 754 604.428710938 638 c 0,9,10
 604.428710938 501 604.428710938 501 675.928710938 402.5 c 128,-1,11
 747.428710938 304 747.428710938 304 842.428710938 304 c 0,0,1
1050.42871094 910 m 1,1,-1
 1168.42871094 1020 l 2,13,14
 1176.42871094 1028 1176.42871094 1028 1193.42871094 1015.5 c 128,-1,15
 1210.42871094 1003 1210.42871094 1003 1226.92871094 979 c 128,-1,16
 1243.42871094 955 1243.42871094 955 1250.42871094 932 c 1,17,-1
 1130.42871094 820 l 1,18,19
 1188.42871094 723 1188.42871094 723 1188.42871094 614 c 0,20,21
 1188.42871094 495 1188.42871094 495 1122.42871094 398 c 1,22,-1
 1230.42871094 282 l 2,23,24
 1238.42871094 274 1238.42871094 274 1225.92871094 257 c 128,-1,25
 1213.42871094 240 1213.42871094 240 1189.42871094 223.5 c 128,-1,26
 1165.42871094 207 1165.42871094 207 1142.42871094 200 c 1,27,-1
 1038.42871094 310 l 1,28,29
 943.428710938 240 943.428710938 240 826.428710938 240 c 0,30,31
 697.428710938 240 697.428710938 240 598.428710938 320 c 1,32,-1
 492.428710938 220 l 2,33,34
 484.428710938 212 484.428710938 212 467.428710938 224.5 c 128,-1,35
 450.428710938 237 450.428710938 237 433.928710938 261 c 128,-1,36
 417.428710938 285 417.428710938 285 410.428710938 308 c 1,37,-1
 518.428710938 410 l 1,38,39
 458.428710938 505 458.428710938 505 458.428710938 614 c 0,40,41
 458.428710938 745 458.428710938 745 534.428710938 846 c 1,42,-1
 430.428710938 958 l 2,43,44
 422.428710938 966 422.428710938 966 434.928710938 983 c 128,-1,45
 447.428710938 1000 447.428710938 1000 471.428710938 1016.5 c 128,-1,46
 495.428710938 1033 495.428710938 1033 518.428710938 1040 c 1,47,-1
 622.428710938 930 l 1,48,49
 712.428710938 992 712.428710938 992 826.428710938 992 c 0,50,51
 952.428710938 992 952.428710938 992 1050.42871094 910 c 1,1,-1
EndSplineSet
Fore
SplineSet
1161.74316406 494.051757812 m 4
 1161.74316406 407.649414062 1136.54589844 327.150390625 1093.63574219 258.791992188 c 5
 1352.42871094 0 l 5
 1068.10546875 0 l 5
 951.182617188 116.922851562 l 5
 883.241210938 74.59375 803.2421875 49.7294921875 717.420898438 49.7294921875 c 4
 631.516601562 49.7294921875 551.599609375 74.59375 483.575195312 116.922851562 c 5
 366.65234375 0 l 5
 82.3291015625 0 l 5
 341.122070312 258.791992188 l 5
 298.211914062 327.06640625 273.014648438 407.56640625 273.014648438 494.051757812 c 4
 273.014648438 579.956054688 297.87890625 659.873046875 340.20703125 727.8984375 c 5
 80 986.5 l 5
 364.407226562 986.5 l 5
 482.161132812 870.349609375 l 5
 550.435546875 913.260742188 630.934570312 938.458007812 717.420898438 938.458007812 c 4
 803.823242188 938.458007812 884.322265625 913.260742188 952.6796875 870.349609375 c 5
 1070.43359375 986.5 l 5
 1354.7578125 986.5 l 5
 1094.55078125 727.8984375 l 5
 1136.87890625 659.873046875 1161.74316406 579.873046875 1161.74316406 494.051757812 c 4
472.348632812 494.051757812 m 4
 472.348632812 358.916992188 582.286132812 248.979492188 717.420898438 248.979492188 c 4
 852.5546875 248.979492188 962.4921875 358.916992188 962.4921875 494.051757812 c 4
 962.4921875 629.186523438 852.5546875 739.124023438 717.420898438 739.124023438 c 4
 582.286132812 739.124023438 472.348632812 629.186523438 472.348632812 494.051757812 c 4
EndSplineSet
Colour: ffff00
EndChar
StartChar: brokenbar
Encoding: 166 166 99
Width: 282
Flags: HW
LayerCount: 2
Back
SplineSet
167 800 m 1,0,1
 166 790 166 790 126 780 c 128,-1,2
 86 770 86 770 75 770 c 0,3,4
 70 770 70 770 67.5 771.5 c 128,-1,5
 65 773 65 773 64.5 774.5 c 128,-1,6
 64 776 64 776 64.5 780.5 c 128,-1,7
 65 785 65 785 65 786 c 2,8,-1
 65 1514 l 1,9,10
 63 1526 63 1526 75 1530 c 0,11,12
 109 1540 109 1540 151 1540 c 0,13,14
 159 1540 159 1540 163 1537 c 128,-1,15
 167 1534 167 1534 167 1531 c 2,16,-1
 167 1528 l 1,17,-1
 167 800 l 1,0,1
65 -230 m 2,1,-1
 65 498 l 1,19,20
 63 510 63 510 75 514 c 0,21,22
 109 524 109 524 151 524 c 0,23,24
 159 524 159 524 163 521 c 128,-1,25
 167 518 167 518 167 515 c 2,26,-1
 167 512 l 1,27,-1
 167 -216 l 1,28,29
 166 -226 166 -226 126 -236 c 128,-1,30
 86 -246 86 -246 75 -246 c 0,31,32
 70 -246 70 -246 67.5 -244.5 c 128,-1,33
 65 -243 65 -243 64.5 -241.5 c 128,-1,34
 64 -240 64 -240 64.5 -235.5 c 128,-1,35
 65 -231 65 -231 65 -230 c 2,1,-1
EndSplineSet
Fore
SplineSet
40 1629.47851562 m 1
 40 629.884765625 l 1
 242.884765625 629.884765625 l 1
 242.884765625 1629.47851562 l 1
 40 1629.47851562 l 1
242.884765625 427 m 1
 40 427 l 1
 40 -595 l 1
 242.884765625 -595 l 1
 242.884765625 427 l 1
EndSplineSet
Colour: ffff00
EndChar
StartChar: section
Encoding: 167 167 100
Width: 931
UnlinkRmOvrlpSave: 1
Flags: HW
LayerCount: 2
Back
SplineSet
528 1306 m 0,0,1
 364 1306 364 1306 262 1221.5 c 128,-1,2
 160 1137 160 1137 160 1014 c 0,3,4
 160 988 160 988 167 961 c 128,-1,5
 174 934 174 934 182.5 913 c 128,-1,6
 191 892 191 892 210.5 864.5 c 128,-1,7
 230 837 230 837 241 822 c 128,-1,8
 252 807 252 807 280 778.5 c 128,-1,9
 308 750 308 750 317.5 741 c 128,-1,10
 327 732 327 732 359 703 c 128,-1,11
 391 674 391 674 396 670 c 0,12,13
 620 463 620 463 620 270 c 0,14,15
 620 245 620 245 616.5 224 c 128,-1,16
 613 203 613 203 603.5 181 c 128,-1,17
 594 159 594 159 588 146.5 c 128,-1,18
 582 134 582 134 564.5 106.5 c 128,-1,19
 547 79 547 79 540 66 c 1,20,21
 492 28 492 28 472 -6 c 0,22,23
 467 -16 467 -16 465 -26 c 128,-1,24
 463 -36 463 -36 462 -49 c 128,-1,25
 461 -62 461 -62 460 -70 c 1,26,27
 532 -20 532 -20 630 119 c 128,-1,28
 728 258 728 258 728 358 c 0,29,30
 728 419 728 419 707.5 479 c 128,-1,31
 687 539 687 539 650 592 c 128,-1,32
 613 645 613 645 577.5 684.5 c 128,-1,33
 542 724 542 724 496 766 c 0,34,35
 401 853 401 853 326.5 945 c 128,-1,36
 252 1037 252 1037 252 1098 c 0,37,38
 252 1133 252 1133 280.5 1159 c 128,-1,39
 309 1185 309 1185 344.5 1195.5 c 128,-1,40
 380 1206 380 1206 414 1206 c 0,41,42
 446 1206 446 1206 478 1190 c 0,43,44
 480 1189 480 1189 492 1182.5 c 128,-1,45
 504 1176 504 1176 509.5 1174 c 128,-1,46
 515 1172 515 1172 526.5 1169 c 128,-1,47
 538 1166 538 1166 550 1166 c 0,48,49
 573 1166 573 1166 597.5 1191 c 128,-1,50
 622 1216 622 1216 622 1238 c 0,51,52
 622 1266 622 1266 610 1290 c 1,53,54
 573 1306 573 1306 528 1306 c 0,0,1
196 -156 m 0,55,56
 360 -156 360 -156 462 -71.5 c 128,-1,57
 564 13 564 13 564 136 c 0,58,59
 564 162 564 162 557 189 c 128,-1,60
 550 216 550 216 541.5 237 c 128,-1,61
 533 258 533 258 513.5 285.5 c 128,-1,62
 494 313 494 313 483 328 c 128,-1,63
 472 343 472 343 444 371.5 c 128,-1,64
 416 400 416 400 406.5 409 c 128,-1,65
 397 418 397 418 365 447 c 128,-1,66
 333 476 333 476 328 480 c 0,67,68
 104 687 104 687 104 880 c 0,69,70
 104 905 104 905 107.5 926 c 128,-1,71
 111 947 111 947 120.5 969 c 128,-1,72
 130 991 130 991 136 1003.5 c 128,-1,73
 142 1016 142 1016 159.5 1043.5 c 128,-1,74
 177 1071 177 1071 184 1084 c 1,75,76
 232 1122 232 1122 252 1156 c 0,77,78
 257 1166 257 1166 259 1176 c 128,-1,79
 261 1186 261 1186 262 1199 c 128,-1,80
 263 1212 263 1212 264 1220 c 1,81,82
 192 1170 192 1170 94 1031 c 128,-1,83
 -4 892 -4 892 -4 792 c 0,84,85
 -4 731 -4 731 16.5 671 c 128,-1,86
 37 611 37 611 74 558 c 128,-1,87
 111 505 111 505 146.5 465.5 c 128,-1,88
 182 426 182 426 228 384 c 0,89,90
 323 297 323 297 397.5 205 c 128,-1,91
 472 113 472 113 472 52 c 0,92,93
 472 17 472 17 443.5 -9 c 128,-1,94
 415 -35 415 -35 379.5 -45.5 c 128,-1,95
 344 -56 344 -56 310 -56 c 0,96,97
 278 -56 278 -56 246 -40 c 0,98,99
 244 -39 244 -39 232 -32.5 c 128,-1,100
 220 -26 220 -26 214.5 -24 c 128,-1,101
 209 -22 209 -22 197.5 -19 c 128,-1,102
 186 -16 186 -16 174 -16 c 0,103,104
 151 -16 151 -16 126.5 -41 c 128,-1,105
 102 -66 102 -66 102 -88 c 0,106,107
 102 -116 102 -116 114 -140 c 1,108,109
 151 -156 151 -156 196 -156 c 0,55,56
EndSplineSet
Fore
SplineSet
533.095703125 885.59375 m 0
 703.158203125 751.706054688 844.364257812 654.575195312 854.67578125 537.319335938 c 0
 866.150390625 407.590820312 791.473632812 343.059570312 740.830078125 301.229492188 c 1
 748.23046875 272.622070312 751.05859375 241.853515625 747.3984375 207.17578125 c 0
 737.918945312 116.78125 684.03125 47.7578125 631.391601562 13.74609375 c 0
 581.495117188 -18.353515625 522.701171875 -35.984375 455.5078125 -35.984375 c 0
 221.829101562 -35.984375 60 117.779296875 60 117.779296875 c 1
 228.315429688 360.106445312 l 1
 228.315429688 360.106445312 378.501953125 237.6953125 432.389648438 290.002929688 c 0
 452.431640625 309.544921875 464.572265625 352.123046875 398.2109375 404.34765625 c 0
 228.149414062 538.151367188 86.9443359375 635.283203125 76.548828125 752.62109375 c 0
 65.072265625 882.266601562 139.750976562 946.8828125 190.39453125 988.711914062 c 1
 183.076171875 1017.31835938 180.249023438 1048.08789062 183.908203125 1082.765625 c 0
 193.387695312 1173.16015625 247.239257812 1242.23828125 299.916015625 1276.1953125 c 0
 350.227539062 1308.62792969 409.271484375 1324.72070312 477.212890625 1324.72070312 c 0
 706.733398438 1324.72070312 871.306640625 1172.16210938 871.306640625 1172.16210938 c 1
 702.9921875 929.833984375 l 1
 702.9921875 929.833984375 552.805664062 1052.24609375 498.91796875 999.938476562 c 0
 478.875976562 980.395507812 466.734375 937.818359375 533.095703125 885.59375 c 0
339.583007812 683.264648438 m 0
 460.99609375 582.309570312 576.255859375 509.7109375 659 433.536132812 c 1
 676.130859375 446.759765625 687.274414062 465.469726562 686.359375 492.4140625 c 0
 684.862304688 533.827148438 626.650390625 577.90234375 591.973632812 606.758789062 c 0
 470.4765625 707.797851562 355.216796875 780.313476562 272.639648438 856.487304688 c 1
 255.508789062 843.265625 244.365234375 824.553710938 245.280273438 797.611328125 c 0
 246.693359375 756.196289062 304.905273438 712.122070312 339.583007812 683.264648438 c 0
EndSplineSet
Colour: ffff00
EndChar
StartChar: ordfeminine
Encoding: 170 170 103
Width: 1053
Flags: HW
LayerCount: 2
Back
SplineSet
222 572 m 0,0,1
 255 572 255 572 298.5 599.5 c 128,-1,2
 342 627 342 627 342 640 c 2,3,-1
 342 810 l 1,4,5
 329 806 329 806 299.5 797 c 128,-1,6
 270 788 270 788 247.5 781 c 128,-1,7
 225 774 225 774 214 770 c 0,8,9
 128 736 128 736 128 670 c 0,10,11
 128 631 128 631 155.5 601.5 c 128,-1,12
 183 572 183 572 222 572 c 0,0,1
296 1112 m 0,13,14
 356 1112 356 1112 402 1057 c 128,-1,15
 448 1002 448 1002 448 924 c 2,16,-1
 448 638 l 2,17,18
 448 572 448 572 490 572 c 0,19,20
 498 572 498 572 506.5 574.5 c 128,-1,21
 515 577 515 577 520.5 580 c 0,22,23
 526 582 526 582 531 586 c 2,24,-1
 536 590 l 1,25,26
 542 590 542 590 542 580 c 0,27,28
 542 566 542 566 534 554 c 1,29,30
 519 539 519 539 484.5 519.5 c 128,-1,31
 450 500 450 500 430 500 c 0,32,33
 401 500 401 500 376.5 528 c 128,-1,34
 352 556 352 556 346 590 c 1,35,36
 327 571 327 571 267 534.5 c 128,-1,37
 207 498 207 498 176 498 c 0,38,39
 107 498 107 498 60.5 544 c 128,-1,40
 14 590 14 590 14 658 c 0,41,42
 14 697 14 697 36 727.5 c 128,-1,43
 58 758 58 758 84 768 c 0,44,45
 314 850 314 850 326 856 c 0,46,47
 337 861 337 861 339.5 866.5 c 128,-1,48
 342 872 342 872 342 890 c 2,49,-1
 342 928 l 2,50,51
 342 978 342 978 310 1015 c 128,-1,52
 278 1052 278 1052 224 1052 c 0,53,54
 189 1052 189 1052 171.5 1033.5 c 128,-1,55
 154 1015 154 1015 146 974 c 1,56,57
 135 908 135 908 82 908 c 0,58,59
 61 908 61 908 47.5 926 c 128,-1,60
 34 944 34 944 34 966 c 0,61,62
 34 990 34 990 44 1000 c 0,63,64
 85 1039 85 1039 156.5 1075.5 c 128,-1,65
 228 1112 228 1112 296 1112 c 0,13,14
EndSplineSet
Fore
SplineSet
912.396484375 587.982421875 m 5
 912.396484375 587.899414062 l 5
 1003.79199219 587.899414062 l 5
 1003.79199219 418.900390625 l 5
 580.709960938 419.149414062 l 5
 580.626953125 511.791992188 l 6
 579.795898438 510.62890625 515.736328125 418.983398438 362.0234375 418.983398438 c 4
 208.0625 418.983398438 60.0830078125 511.625976562 60 667.166015625 c 4
 59.9169921875 774.432617188 128.380859375 911.276367188 329.702148438 977.415039062 c 4
 461.063476562 1020.53710938 580.79296875 1022.19921875 580.79296875 1022.19921875 c 5
 580.79296875 1022.19921875 572.069335938 1146.24804688 417.27734375 1146.24804688 c 4
 346.984375 1146.24804688 254.840820312 1115.42285156 217.036132812 1031.67089844 c 5
 115.752929688 1134.53417969 l 5
 183.80078125 1259.08203125 319.482421875 1324.72070312 486.15625 1324.72070312 c 4
 830.553710938 1324.72070312 912.229492188 1145.99902344 912.229492188 926.647460938 c 6
 912.396484375 587.982421875 l 5
522.299804688 597.705078125 m 4
 560.685546875 597.705078125 580.044921875 616.8984375 580.626953125 617.479492188 c 6
 580.875976562 912.85546875 l 5
 580.875976562 912.85546875 407.306640625 867.407226562 407.306640625 733.220703125 c 4
 407.306640625 665.005859375 453.25390625 597.705078125 522.299804688 597.705078125 c 4
EndSplineSet
Colour: ffff00
EndChar
StartChar: guillemotleft
Encoding: 171 171 104
Width: 972
Flags: HW
LayerCount: 2
Back
SplineSet
274 492 m 0,0,1
 274 506 274 506 284 528 c 1,2,3
 536 680 536 680 702 846 c 1,4,5
 737 835 737 835 746 822 c 1,6,7
 738 792 738 792 632 676.5 c 128,-1,8
 526 561 526 561 450 494 c 1,9,10
 526 427 526 427 632 311.5 c 128,-1,11
 738 196 738 196 746 166 c 1,12,13
 737 153 737 153 702 142 c 1,14,15
 536 308 536 308 284 460 c 1,16,17
 274 475 274 475 274 492 c 0,0,1
-86 492 m 0,18,19
 -86 506 -86 506 -76 528 c 1,20,21
 176 680 176 680 342 846 c 1,22,23
 377 835 377 835 386 822 c 1,24,25
 378 792 378 792 272 676.5 c 128,-1,26
 166 561 166 561 90 494 c 1,27,28
 166 427 166 427 272 311.5 c 128,-1,29
 378 196 378 196 386 166 c 1,30,31
 377 153 377 153 342 142 c 1,32,33
 176 308 176 308 -76 460 c 1,34,35
 -86 475 -86 475 -86 492 c 0,18,19
EndSplineSet
Fore
SplineSet
567.650390625 986.5 m 5
 340.041015625 492.055664062 l 5
 567.650390625 0 l 5
 932.056640625 0 l 5
 601.329101562 492.055664062 l 5
 932.056640625 986.5 l 5
 567.650390625 986.5 l 5
281.081054688 986.5 m 5
 0 492.055664062 l 5
 281.081054688 0 l 5
 455.466796875 0 l 5
 227.859375 492.055664062 l 5
 455.466796875 986.5 l 5
 281.081054688 986.5 l 5
EndSplineSet
Colour: ffff00
EndChar
StartChar: logicalnot
Encoding: 172 172 105
Width: 1148
Flags: HW
LayerCount: 2
Back
SplineSet
972 840 m 1,0,-1
 972 338 l 1,1,2
 970 336 970 336 956 329.5 c 128,-1,3
 942 323 942 323 919 315.5 c 128,-1,4
 896 308 896 308 878 308 c 1,5,6
 858 310 858 310 852 322 c 1,7,-1
 852 728 l 1,8,-1
 42 728 l 2,9,10
 30 728 30 728 30 748 c 1,11,12
 40 840 40 840 60 840 c 2,13,-1
 972 840 l 1,0,-1
EndSplineSet
Fore
SplineSet
1068.52050781 594.759765625 m 5
 1068.52050781 0 l 5
 867.5234375 0 l 5
 867.5234375 393.6796875 l 5
 80 393.6796875 l 5
 80 594.759765625 l 5
 1068.52050781 594.759765625 l 5
EndSplineSet
Colour: ffff00
EndChar
StartChar: degree
Encoding: 176 176 108
Width: 0
Flags: HW
LayerCount: 2
Back
SplineSet
150 1072 m 128,-1,1
 150 1021 150 1021 186.5 984.5 c 128,-1,2
 223 948 223 948 274 948 c 128,-1,3
 325 948 325 948 360.5 984.5 c 128,-1,4
 396 1021 396 1021 396 1072 c 128,-1,5
 396 1123 396 1123 360.5 1158.5 c 128,-1,6
 325 1194 325 1194 274 1194 c 128,-1,7
 223 1194 223 1194 186.5 1158.5 c 128,-1,0
 150 1123 150 1123 150 1072 c 128,-1,1
76 1072 m 128,-1,9
 76 1153 76 1153 134.5 1210.5 c 128,-1,10
 193 1268 193 1268 274 1268 c 128,-1,11
 355 1268 355 1268 412.5 1210.5 c 128,-1,12
 470 1153 470 1153 470 1072 c 128,-1,13
 470 991 470 991 412.5 932.5 c 128,-1,14
 355 874 355 874 274 874 c 128,-1,15
 193 874 193 874 134.5 932.5 c 128,-1,8
 76 991 76 991 76 1072 c 128,-1,9
EndSplineSet
Fore
SplineSet
230 1716.42871094 m 4
 320.06640625 1716.42871094 393.432617188 1643.14453125 393.432617188 1552.91113281 c 4
 393.432617188 1462.84570312 320.1484375 1389.47851562 230 1389.47851562 c 4
 139.766601562 1389.47851562 66.482421875 1462.76269531 66.482421875 1552.91113281 c 4
 66.482421875 1643.06152344 139.849609375 1716.42871094 230 1716.42871094 c 4
316.192382812 1552.90429688 m 4
 316.192382812 1600.48925781 277.494140625 1639.09179688 230.006835938 1639.09179688 c 4
 182.421875 1639.09179688 143.72265625 1600.48925781 143.72265625 1552.90429688 c 4
 143.72265625 1505.41699219 182.421875 1466.81542969 230.006835938 1466.81542969 c 4
 277.494140625 1466.81542969 316.192382812 1505.41699219 316.192382812 1552.90429688 c 4
EndSplineSet
Colour: ffff00
EndChar
StartChar: plusminus
Encoding: 177 177 109
Width: 1148
Flags: HW
LayerCount: 2
Back
SplineSet
38 124 m 1,0,-1
 950 124 l 2,1,2
 957 124 957 124 962.5 117.5 c 128,-1,3
 968 111 968 111 968 100 c 0,4,5
 968 76 968 76 958.5 50.5 c 128,-1,6
 949 25 949 25 936 12 c 1,7,-1
 20 12 l 2,8,9
 8 12 8 12 8 32 c 0,10,11
 8 45 8 45 16.5 79.5 c 128,-1,12
 25 114 25 114 38 124 c 1,0,-1
38 722 m 1,13,-1
 430 722 l 1,14,-1
 430 1122 l 1,15,16
 489 1144 489 1144 516 1144 c 0,17,18
 525 1144 525 1144 531.5 1141 c 128,-1,19
 538 1138 538 1138 540 1135 c 2,20,-1
 542 1132 l 1,21,-1
 542 722 l 1,22,-1
 950 722 l 2,23,24
 957 722 957 722 962.5 715.5 c 128,-1,25
 968 709 968 709 968 698 c 0,26,27
 968 674 968 674 958.5 648.5 c 128,-1,28
 949 623 949 623 936 610 c 1,29,-1
 542 610 l 1,30,-1
 542 206 l 1,31,32
 513 184 513 184 456 184 c 0,33,34
 446 184 446 184 438 190 c 128,-1,35
 430 196 430 196 430 202 c 2,36,-1
 430 610 l 1,37,-1
 20 610 l 2,38,39
 8 610 8 610 8 630 c 0,40,41
 8 643 8 643 16.5 677.5 c 128,-1,42
 25 712 25 712 38 722 c 1,13,-1
EndSplineSet
Fore
SplineSet
674.841796875 752.090820312 m 5
 1068.60449219 752.090820312 l 5
 1068.60449219 551.010742188 l 5
 674.841796875 551.010742188 l 5
 674.841796875 317.665039062 l 5
 473.762695312 317.665039062 l 5
 473.762695312 551.010742188 l 5
 80 551.010742188 l 5
 80 752.090820312 l 5
 473.762695312 752.090820312 l 5
 473.762695312 985.438476562 l 5
 674.841796875 985.438476562 l 5
 674.841796875 752.090820312 l 5
80 0 m 5
 80 201.081054688 l 5
 1068.52148438 201.081054688 l 5
 1068.52148438 0 l 5
 80 0 l 5
EndSplineSet
Colour: ffff00
EndChar
StartChar: uni00B2
Encoding: 178 178 110
Width: 762
Flags: HW
LayerCount: 2
Back
SplineSet
581 720 m 1,0,1
 573 699 573 699 548 622 c 128,-1,2
 523 545 523 545 507 508 c 1,3,-1
 43 508 l 2,4,5
 34 508 34 508 25 517 c 128,-1,6
 16 526 16 526 19 532 c 1,7,8
 45 560 45 560 104.5 620 c 128,-1,9
 164 680 164 680 213.5 733.5 c 128,-1,10
 263 787 263 787 299 836 c 0,11,12
 395 965 395 965 395 1060 c 0,13,14
 395 1124 395 1124 360 1164 c 128,-1,15
 325 1204 325 1204 263 1204 c 0,16,17
 221 1204 221 1204 185 1187 c 128,-1,18
 149 1170 149 1170 131 1152.5 c 128,-1,19
 113 1135 113 1135 89 1106 c 0,20,21
 83 1100 83 1100 68 1116 c 128,-1,22
 53 1132 53 1132 55 1140 c 1,23,24
 91 1203 91 1203 156 1248.5 c 128,-1,25
 221 1294 221 1294 287 1294 c 0,26,27
 392 1294 392 1294 458.5 1234 c 128,-1,28
 525 1174 525 1174 525 1080 c 0,29,30
 525 988 525 988 433 878 c 0,31,32
 404 843 404 843 183 618 c 1,33,-1
 423 618 l 2,34,35
 446 618 446 618 465.5 627 c 128,-1,36
 485 636 485 636 498 651 c 128,-1,37
 511 666 511 666 519 679 c 128,-1,38
 527 692 527 692 534.5 708 c 128,-1,39
 542 724 542 724 543 726 c 0,40,41
 545 729 545 729 553 732 c 1,42,43
 572 732 572 732 581 720 c 1,0,1
EndSplineSet
Fore
SplineSet
569.008789062 581.0859375 m 6
 569.2578125 693.752929688 l 5
 672.53515625 693.752929688 l 5
 672.53515625 414.661132812 l 5
 94.1630859375 414.578125 l 5
 94.1630859375 414.578125 21.0458984375 570.284179688 207.078125 744.602539062 c 4
 308.943359375 840.153320312 364.280273438 916.926757812 386.215820312 983.645507812 c 4
 428.921875 1113.34472656 381.23046875 1193.52441406 284.100585938 1186.9609375 c 4
 196.775390625 1180.97851562 164.454101562 1078.61425781 218.544921875 976.084960938 c 5
 95.0771484375 976.084960938 l 5
 38.9921875 1157.71386719 159.801757812 1324.72070312 374.000976562 1324.72070312 c 4
 522.9765625 1324.72070312 672.53515625 1238.97363281 672.53515625 1054.27050781 c 4
 672.53515625 911.110351562 576.901367188 818.301757812 471.130859375 758.893554688 c 4
 329.466796875 679.377929688 242.805664062 623.044921875 185.974609375 551.922851562 c 5
 534.609375 551.922851562 l 6
 559.369140625 554.747070312 569.008789062 566.9609375 569.008789062 581.0859375 c 6
EndSplineSet
Colour: ffff00
EndChar
StartChar: uni00B3
Encoding: 179 179 111
Width: 657
Flags: HW
LayerCount: 2
Back
SplineSet
234 1292 m 0,0,1
 303 1292 303 1292 355.5 1251 c 128,-1,2
 408 1210 408 1210 408 1138 c 0,3,4
 408 1079 408 1079 371 1035 c 128,-1,5
 334 991 334 991 292 972 c 1,6,7
 343 972 343 972 407.5 916 c 128,-1,8
 472 860 472 860 472 772 c 0,9,10
 472 645 472 645 377.5 571.5 c 128,-1,11
 283 498 283 498 146 498 c 0,12,13
 110 498 110 498 68 506.5 c 128,-1,14
 26 515 26 515 12 528 c 0,15,16
 -12 550 -12 550 -12 576 c 0,17,18
 -12 605 -12 605 6.5 623.5 c 128,-1,19
 25 642 25 642 50 642 c 0,20,21
 65 642 65 642 76.5 634 c 128,-1,22
 88 626 88 626 102 608 c 128,-1,23
 116 590 116 590 122 584 c 0,24,25
 152 554 152 554 200 554 c 0,26,27
 265 554 265 554 304.5 600.5 c 128,-1,28
 344 647 344 647 344 736 c 0,29,30
 344 808 344 808 300.5 858 c 128,-1,31
 257 908 257 908 200 908 c 0,32,33
 184 908 184 908 167 904.5 c 128,-1,34
 150 901 150 901 135.5 896.5 c 128,-1,35
 121 892 121 892 120 892 c 0,36,37
 113 899 113 899 110 914 c 0,38,39
 107 926 107 926 110 934 c 1,40,41
 190 950 190 950 243 996.5 c 128,-1,42
 296 1043 296 1043 296 1112 c 0,43,44
 296 1151 296 1151 264.5 1182.5 c 128,-1,45
 233 1214 233 1214 194 1214 c 0,46,47
 182 1214 182 1214 170 1212 c 128,-1,48
 158 1210 158 1210 147.5 1206 c 128,-1,49
 137 1202 137 1202 127.5 1197.5 c 128,-1,50
 118 1193 118 1193 109 1187 c 128,-1,51
 100 1181 100 1181 93.5 1176 c 128,-1,52
 87 1171 87 1171 79.5 1164.5 c 128,-1,53
 72 1158 72 1158 68.5 1154.5 c 0,54,55
 66 1152 66 1152 60 1146 c 2,56,-1
 54 1140 l 1,57,58
 49 1142 49 1142 44.5 1149.5 c 128,-1,59
 40 1157 40 1157 37.5 1164 c 128,-1,60
 35 1171 35 1171 36 1172 c 0,61,62
 116 1292 116 1292 234 1292 c 0,0,1
EndSplineSet
Fore
SplineSet
376.784179688 869.81640625 m 5
 424.392578125 865.49609375 567.884765625 824.534179688 567.801757812 663.01171875 c 4
 567.801757812 533.809570312 467.431640625 414.912109375 258.30078125 414.912109375 c 4
 165.82421875 414.912109375 99.271484375 443.827148438 50 475.483398438 c 5
 50 587.900390625 l 5
 75.9228515625 568.125976562 111.319335938 552.08984375 158.263671875 552.08984375 c 4
 233.790039062 552.08984375 296.354492188 615.319335938 296.354492188 687.106445312 c 4
 296.354492188 833.922851562 137.740234375 819.1328125 137.740234375 819.1328125 c 5
 137.740234375 920.5 l 5
 137.740234375 920.5 296.354492188 921.995117188 296.354492188 1041.30859375 c 4
 296.354492188 1131.95800781 233.790039062 1187.54296875 158.263671875 1187.54296875 c 4
 111.319335938 1187.54296875 75.9228515625 1171.50683594 50 1151.73242188 c 5
 50 1264.14941406 l 5
 99.271484375 1295.72265625 165.82421875 1324.72070312 258.30078125 1324.72070312 c 4
 467.431640625 1324.72070312 567.801757812 1205.82226562 567.801757812 1076.62109375 c 4
 567.801757812 913.6875 424.392578125 874.13671875 376.784179688 869.81640625 c 5
EndSplineSet
Colour: ffff00
EndChar
StartChar: paragraph
Encoding: 182 182 114
Width: 1182
Flags: HW
LayerCount: 2
Back
SplineSet
584 666 m 1,0,-1
 584 1212 l 1,1,2
 574 1222 574 1222 526 1222 c 0,3,4
 482 1222 482 1222 470 1210 c 1,5,-1
 470 656 l 1,6,7
 488 656 488 656 533.5 659 c 128,-1,8
 579 662 579 662 584 666 c 1,0,-1
582 584 m 1,9,10
 574 583 574 583 550 581.5 c 128,-1,11
 526 580 526 580 505 578.5 c 128,-1,12
 484 577 484 577 470 576 c 1,13,-1
 470 232 l 2,14,15
 470 116 470 116 476 84 c 0,16,17
 478 72 478 72 526 72 c 0,18,19
 576 72 576 72 578 84 c 0,20,21
 584 116 584 116 584 232 c 2,22,-1
 582 584 l 1,9,10
662 598 m 1,10,-1
 662 232 l 2,24,25
 662 116 662 116 672 84 c 0,26,27
 676 69 676 69 726 57.5 c 128,-1,28
 776 46 776 46 802 46 c 0,29,30
 805 46 805 46 805 20.5 c 128,-1,31
 805 -5 805 -5 802 -8 c 1,32,33
 752 -6 752 -6 678 -1 c 128,-1,34
 604 4 604 4 534 4 c 0,35,36
 496 4 496 4 256 -8 c 1,37,38
 252 0 252 0 252.5 20.5 c 128,-1,39
 253 41 253 41 260 46 c 1,40,41
 281 46 281 46 329.5 58 c 128,-1,42
 378 70 378 70 382 84 c 0,43,44
 392 116 392 116 392 232 c 2,45,-1
 392 574 l 1,46,47
 301 574 301 574 225 611 c 128,-1,48
 149 648 149 648 103.5 704 c 128,-1,49
 58 760 58 760 33 821.5 c 128,-1,50
 8 883 8 883 8 938 c 0,51,52
 8 1043 8 1043 59.5 1128.5 c 128,-1,53
 111 1214 111 1214 189 1259 c 128,-1,54
 267 1304 267 1304 350 1304 c 0,55,56
 409 1304 409 1304 447 1300 c 128,-1,57
 485 1296 485 1296 544 1296 c 0,58,59
 604 1296 604 1296 664.5 1298.5 c 0,60,61
 726 1302 726 1302 756 1304 c 2,62,-1
 786 1306 l 1,63,64
 793 1298 793 1298 792.5 1275.5 c 128,-1,65
 792 1253 792 1253 784 1248 c 1,66,67
 756 1248 756 1248 716.5 1236 c 128,-1,68
 677 1224 677 1224 670 1208 c 1,69,70
 664 1187 664 1187 664 1080 c 2,71,-1
 664 678 l 1,72,73
 668 677 668 677 692.5 683.5 c 0,74,75
 718 690 718 690 740 697 c 2,76,-1
 762 704 l 1,77,78
 782 704 782 704 782 692 c 0,79,80
 781 678 781 678 758.5 650.5 c 128,-1,81
 736 623 736 623 724 618 c 0,82,83
 687 601 687 601 662 598 c 1,10,-1
EndSplineSet
Fore
SplineSet
501.2890625 1289.47851562 m 2
 1102.078125 1289.47851562 l 1
 1102.078125 0 l 1
 900.997070312 0 l 1
 900.997070312 1094.13476562 l 1
 700 1094.13476562 l 1
 700 0 l 1
 503.450195312 0 l 1
 501.2890625 501.456054688 l 1
 131.4765625 501.456054688 80 810.145507812 80 888.6484375 c 0
 80 1116.75488281 271.518554688 1289.47851562 501.2890625 1289.47851562 c 2
EndSplineSet
Colour: ffff00
EndChar
StartChar: uni00B9
Encoding: 185 185 117
Width: 478
Flags: HW
LayerCount: 2
Back
SplineSet
106 1036 m 2,0,1
 106 1099 106 1099 96.5 1118.5 c 128,-1,2
 87 1138 87 1138 68 1138 c 0,3,4
 47 1138 47 1138 -44 1106 c 1,5,6
 -62 1115 -62 1115 -62 1140 c 0,7,8
 -62 1153 -62 1153 -56 1156 c 0,9,10
 37 1195 37 1195 111 1232 c 128,-1,11
 185 1269 185 1269 214 1286.5 c 128,-1,12
 243 1304 243 1304 244 1304 c 2,13,-1
 248 1304 l 2,14,15
 257 1304 257 1304 272 1258 c 1,16,17
 254 1174 254 1174 254 1096 c 2,18,-1
 254 680 l 2,19,20
 254 623 254 623 270 586 c 0,21,22
 274 577 274 577 315.5 567.5 c 128,-1,23
 357 558 357 558 374 558 c 0,24,25
 378 558 378 558 378 535 c 128,-1,26
 378 512 378 512 374 506 c 1,27,28
 349 507 349 507 288 509.5 c 128,-1,29
 227 512 227 512 182 512 c 128,-1,30
 137 512 137 512 71 509.5 c 128,-1,31
 5 507 5 507 -18 506 c 1,32,33
 -26 510 -26 510 -26 533 c 128,-1,34
 -26 556 -26 556 -18 556 c 0,35,36
 4 556 4 556 47 565.5 c 128,-1,37
 90 575 90 575 94 584 c 0,38,39
 106 615 106 615 106 676 c 2,40,-1
 106 1036 l 2,0,1
EndSplineSet
Fore
SplineSet
253.749023438 1324.71679688 m 5
 388.100585938 1324.71679688 l 5
 388.100585938 440 l 5
 123.965820312 440 l 5
 123.965820312 1055.84570312 l 5
 0 1055.84570312 l 5
 0 1189.20019531 l 5
 0 1189.20019531 202.982421875 1200.00195312 253.749023438 1324.71679688 c 5
EndSplineSet
Colour: ffff00
EndChar
StartChar: ordmasculine
Encoding: 186 186 118
Width: 1068
Flags: HW
LayerCount: 2
Back
SplineSet
314 1060 m 0,0,1
 234 1060 234 1060 194 989 c 128,-1,2
 154 918 154 918 154 822 c 0,3,4
 154 712 154 712 205 627 c 128,-1,5
 256 542 256 542 348 542 c 0,6,7
 424 542 424 542 463 615 c 128,-1,8
 502 688 502 688 502 782 c 0,9,10
 502 851 502 851 483 912 c 128,-1,11
 464 973 464 973 420 1016.5 c 128,-1,12
 376 1060 376 1060 314 1060 c 0,0,1
332 1108 m 0,13,14
 462 1108 462 1108 551 1019.5 c 128,-1,15
 640 931 640 931 640 806 c 0,16,17
 640 680 640 680 550.5 587 c 128,-1,18
 461 494 461 494 332 494 c 0,19,20
 202 494 202 494 109 583.5 c 128,-1,21
 16 673 16 673 16 798 c 0,22,23
 16 926 16 926 107.5 1017 c 128,-1,24
 199 1108 199 1108 332 1108 c 0,13,14
EndSplineSet
Fore
SplineSet
534.489257812 1324.72070312 m 4
 785.497070312 1324.72070312 988.977539062 1122.90136719 988.977539062 871.89453125 c 4
 988.977539062 620.88671875 785.497070312 418.984375 534.489257812 418.984375 c 4
 283.481445312 418.984375 80 620.969726562 80 871.89453125 c 4
 80 1122.81835938 283.481445312 1324.72070312 534.489257812 1324.72070312 c 4
662.610351562 677.551757812 m 6
 662.610351562 1066.31933594 l 6
 662.610351562 1137.109375 605.279296875 1194.43945312 534.489257812 1194.43945312 c 4
 463.698242188 1194.43945312 406.3671875 1137.109375 406.3671875 1066.31933594 c 6
 406.3671875 677.551757812 l 6
 406.3671875 606.76171875 463.698242188 549.431640625 534.489257812 549.431640625 c 4
 605.279296875 549.431640625 662.610351562 606.76171875 662.610351562 677.551757812 c 6
EndSplineSet
Colour: ffff00
EndChar
StartChar: guillemotright
Encoding: 187 187 119
Width: 982
Flags: HW
LayerCount: 2
Back
SplineSet
504 492 m 0,0,1
 504 475 504 475 494 460 c 1,2,3
 242 308 242 308 76 142 c 1,4,5
 41 153 41 153 32 166 c 1,6,7
 40 196 40 196 146 311.5 c 128,-1,8
 252 427 252 427 328 494 c 1,9,10
 252 561 252 561 146 676.5 c 128,-1,11
 40 792 40 792 32 822 c 1,12,13
 41 835 41 835 76 846 c 1,14,15
 242 680 242 680 494 528 c 1,16,17
 504 506 504 506 504 492 c 0,0,1
864 492 m 0,18,19
 864 475 864 475 854 460 c 1,20,21
 602 308 602 308 436 142 c 1,22,23
 401 153 401 153 392 166 c 1,24,25
 400 196 400 196 506 311.5 c 128,-1,26
 612 427 612 427 688 494 c 1,27,28
 612 561 612 561 506 676.5 c 128,-1,29
 400 792 400 792 392 822 c 1,30,31
 401 835 401 835 436 846 c 1,32,33
 602 680 602 680 854 528 c 1,34,35
 864 506 864 506 864 492 c 0,18,19
EndSplineSet
Fore
SplineSet
364.40625 986.5 m 5
 592.015625 492.055664062 l 5
 364.40625 0 l 5
 0 0 l 5
 330.727539062 492.055664062 l 5
 0 986.5 l 5
 364.40625 986.5 l 5
650.975585938 986.5 m 5
 932.056640625 492.055664062 l 5
 650.975585938 0 l 5
 476.58984375 0 l 5
 704.197265625 492.055664062 l 5
 476.58984375 986.5 l 5
 650.975585938 986.5 l 5
EndSplineSet
Colour: ffff00
EndChar
StartChar: questiondown
Encoding: 191 191 123
Width: 808
Flags: HW
LayerCount: 2
Back
SplineSet
436 748 m 128,-1,1
 436 703 436 703 402.5 671.5 c 128,-1,2
 369 640 369 640 324 640 c 128,-1,3
 279 640 279 640 247.5 671.5 c 128,-1,4
 216 703 216 703 216 748 c 128,-1,5
 216 793 216 793 247.5 826.5 c 128,-1,6
 279 860 279 860 324 860 c 128,-1,7
 369 860 369 860 402.5 826.5 c 128,-1,0
 436 793 436 793 436 748 c 128,-1,1
370 498 m 1,8,9
 386 431 386 431 386 316 c 0,10,11
 386 276 386 276 375.5 241.5 c 128,-1,12
 365 207 365 207 352.5 185 c 128,-1,13
 340 163 340 163 315 140 c 128,-1,14
 290 117 290 117 274.5 106 c 128,-1,15
 259 95 259 95 230 77 c 0,16,17
 220 71 220 71 216 68 c 0,18,19
 175 42 175 42 158.5 31 c 128,-1,20
 142 20 142 20 113.5 -2.5 c 128,-1,21
 85 -25 85 -25 73.5 -41.5 c 128,-1,22
 62 -58 62 -58 52 -83 c 128,-1,23
 42 -108 42 -108 42 -136 c 0,24,25
 42 -211 42 -211 86 -255.5 c 128,-1,26
 130 -300 130 -300 190 -300 c 128,-1,27
 250 -300 250 -300 296.5 -279 c 128,-1,28
 343 -258 343 -258 362 -258 c 0,29,30
 389 -258 389 -258 419.5 -286 c 128,-1,31
 450 -314 450 -314 450 -358 c 0,32,33
 450 -407 450 -407 432 -432 c 1,34,35
 404 -446 404 -446 336 -446 c 0,36,37
 295 -446 295 -446 244 -430.5 c 128,-1,38
 193 -415 193 -415 140 -383 c 128,-1,39
 87 -351 87 -351 42.5 -308 c 128,-1,40
 -2 -265 -2 -265 -30 -204 c 128,-1,41
 -58 -143 -58 -143 -58 -76 c 0,42,43
 -58 27 -58 27 -12.5 96.5 c 128,-1,44
 33 166 33 166 144 230 c 0,45,46
 186 255 186 255 238.5 296.5 c 128,-1,47
 291 338 291 338 300 354 c 0,48,49
 306 365 306 365 309 384.5 c 128,-1,50
 312 404 312 404 312.5 417.5 c 128,-1,51
 313 431 313 431 312.5 459 c 128,-1,52
 312 487 312 487 312 494 c 1,53,54
 324 518 324 518 344 520 c 1,55,56
 363 512 363 512 370 498 c 1,8,9
EndSplineSet
Fore
SplineSet
326.092773438 622.416015625 m 4
 223.852539062 622.416015625 141.008789062 705.260742188 141.008789062 807.5 c 4
 141.008789062 909.740234375 223.852539062 992.5859375 326.092773438 992.5859375 c 4
 428.33203125 992.5859375 511.176757812 909.740234375 511.176757812 807.5 c 4
 511.176757812 705.260742188 428.33203125 622.416015625 326.092773438 622.416015625 c 4
384.000976562 -296.892578125 m 4
 138.237304688 -296.892578125 -6.9482421875 -130.373046875 0.255859375 32.26953125 c 4
 5.2431640625 136.725585938 67.583984375 204.884765625 109.69921875 240.627929688 c 4
 273.172851562 379.717773438 226.624023438 491.100585938 226.624023438 491.100585938 c 5
 427.500976562 491.100585938 l 6
 427.500976562 490.546875 493.721679688 382.489257812 395.638671875 183.828125 c 4
 289.795898438 -30.0712890625 361.28125 -105.159179688 455.208984375 -102.665039062 c 4
 559.6640625 -99.89453125 589.865234375 8.1640625 548.58203125 128.135742188 c 5
 715.102539062 55.8203125 l 5
 743.086914062 -146.99609375 579.336914062 -296.892578125 384.000976562 -296.892578125 c 4
EndSplineSet
Colour: ffff00
EndChar
StartChar: Eth
Encoding: 208 208 140
Width: 1420
Flags: HW
LayerCount: 2
Back
SplineSet
730 622 m 1,0,-1
 98 622 l 2,1,2
 94 622 94 622 92 636 c 128,-1,3
 90 650 90 650 92 670 c 0,4,5
 94 688 94 688 100 696 c 1,6,-1
 730 696 l 2,7,8
 736 696 736 696 736 666 c 128,-1,9
 736 636 736 636 730 622 c 1,0,-1
EndSplineSet
Fore
SplineSet
140 417 m 5
 140 570.96484375 l 5
 882 570.96484375 l 5
 882 417 l 5
 140 417 l 5
EndSplineSet
Colour: ffff00
EndChar
StartChar: multiply
Encoding: 215 215 147
Width: 1116
Flags: HW
LayerCount: 2
Back
SplineSet
338 494 m 1,0,-1
 50 782 l 1,1,2
 50 803 50 803 67.5 830.5 c 128,-1,3
 85 858 85 858 98 858 c 0,4,5
 108 858 108 858 112 854 c 0,6,7
 406 570 406 570 410 566 c 1,8,-1
 700 854 l 2,9,10
 704 858 704 858 712 858 c 0,11,12
 724 858 724 858 740 826.5 c 128,-1,13
 756 795 756 795 756 778 c 1,14,15
 482 506 482 506 476 500 c 1,16,-1
 756 210 l 1,17,18
 756 186 756 186 742 158 c 128,-1,19
 728 130 728 130 712 130 c 0,20,21
 702 130 702 130 698 134 c 2,22,-1
 404 428 l 1,23,-1
 106 132 l 2,24,25
 102 128 102 128 94 128 c 0,26,27
 82 128 82 128 66 160.5 c 128,-1,28
 50 193 50 193 50 210 c 1,29,30
 330 486 330 486 338 494 c 1,0,-1
EndSplineSet
Fore
SplineSet
682.243164062 494.051757812 m 1
 1036.171875 0 l 1
 788.6875 0 l 1
 558.168945312 321.163085938 l 1
 327.733398438 0 l 1
 80.2490234375 0 l 1
 434.177734375 494.051757812 l 1
 80 986.5 l 5
 327.483398438 986.5 l 5
 558.168945312 664.920898438 l 5
 788.9375 986.5 l 5
 1036.42089844 986.5 l 5
 682.243164062 494.051757812 l 1
EndSplineSet
Colour: ffff00
EndChar
StartChar: Oslash
Encoding: 216 216 148
Width: 1297
Flags: HW
LayerCount: 2
Back
SplineSet
1070 1334 m 1,0,1
 1086 1330 1086 1330 1110 1314 c 128,-1,2
 1134 1298 1134 1298 1128 1290 c 2,3,-1
 292 -26 l 1,4,5
 275 -20 275 -20 252 -4 c 128,-1,6
 229 12 229 12 234 20 c 2,7,-1
 1070 1334 l 1,0,1
EndSplineSet
Fore
SplineSet
1064.75292969 1112.45214844 m 1
 1157.47851562 999.536132812 1217.21875 834.108398438 1217.21875 672.336914062 c 0
 1217.21875 491.5390625 1159.97167969 326.942382812 1066.74804688 201.646484375 c 0
 962.306640625 61.228515625 812.166992188 -35.984375 644.74609375 -35.984375 c 0
 548.03125 -35.984375 446.83203125 -1.419921875 368.729492188 52.669921875 c 1
 309.74609375 -35.984375 l 1
 80.74609375 -35.984375 l 1
 227.314453125 184.696289062 l 1
 136.083007812 299.689453125 80 450.41015625 80 615.920898438 c 0
 80 796.719726562 137.247070312 961.315429688 230.470703125 1086.61230469 c 0
 334.995117188 1226.94628906 470.84375 1324.57421875 652.555664062 1324.57421875 c 0
 755.500976562 1324.57421875 843.490234375 1293.74902344 919.682617188 1243.48144531 c 1
 972.942382812 1324.57421875 l 1
 1204.17382812 1324.65722656 l 1
 1064.75292969 1112.45214844 l 1
500.671875 971.120117188 m 1
 500.754882812 971.120117188 l 1
 500.754882812 601.712890625 l 1
 782.171875 1034.01757812 l 1
 758.493164062 1084.11914062 707.809570312 1119.09960938 648.651367188 1119.09960938 c 0
 566.893554688 1119.09960938 500.671875 1052.87792969 500.671875 971.120117188 c 1
648.651367188 169.159179688 m 0
 730.325195312 169.159179688 796.62890625 235.379882812 796.62890625 317.138671875 c 2
 796.62890625 704.159179688 l 1
 509.645507812 267.202148438 l 1
 509.645507812 267.202148438 l 1
 530.583984375 209.622070312 588.827148438 169.159179688 648.651367188 169.159179688 c 0
EndSplineSet
Colour: ffff00
EndChar
StartChar: ae
Encoding: 230 230 162
Width: 1696
Flags: HW
LayerCount: 2
Back
SplineSet
282 388 m 0,0,1
 226 368 226 368 193 327.5 c 128,-1,2
 160 287 160 287 160 232 c 0,3,4
 160 176 160 176 199 134 c 128,-1,5
 238 92 238 92 294 92 c 0,6,7
 352 92 352 92 415 128.5 c 128,-1,8
 478 165 478 165 478 208 c 1,9,10
 454 260 454 260 442 386 c 0,11,12
 438 430 438 430 438 440 c 1,13,14
 411 431 411 431 354.5 412.5 c 128,-1,15
 298 394 298 394 282 388 c 0,0,1
806 804 m 0,16,17
 759 804 759 804 720 780 c 128,-1,18
 681 756 681 756 658.5 721.5 c 128,-1,19
 636 687 636 687 621.5 652.5 c 128,-1,20
 607 618 607 618 601.5 594 c 128,-1,21
 596 570 596 570 598 570 c 2,22,-1
 924 570 l 2,23,24
 967 570 967 570 970 616 c 0,25,26
 971 636 971 636 962 666 c 128,-1,27
 953 696 953 696 935 728 c 128,-1,28
 917 760 917 760 883 782 c 128,-1,29
 849 804 849 804 806 804 c 0,16,17
840 876 m 0,30,31
 908 876 908 876 963 855 c 128,-1,32
 1018 834 1018 834 1050 803.5 c 128,-1,33
 1082 773 1082 773 1103 734 c 128,-1,34
 1124 695 1124 695 1132 663 c 128,-1,35
 1140 631 1140 631 1140 604 c 0,36,37
 1140 558 1140 558 1129.5 534.5 c 128,-1,38
 1119 511 1119 511 1092 510 c 0,39,40
 1051 507 1051 507 832.5 501.5 c 128,-1,41
 614 496 614 496 588 496 c 1,42,43
 584 313 584 313 678.5 212.5 c 128,-1,44
 773 112 773 112 914 112 c 0,45,46
 986 112 986 112 1044.5 147 c 128,-1,47
 1103 182 1103 182 1134 218 c 0,48,49
 1135 218 1135 218 1139 214.5 c 128,-1,50
 1143 211 1143 211 1146.5 204 c 128,-1,51
 1150 197 1150 197 1150 190 c 0,52,53
 1150 174 1150 174 1138 154 c 0,54,55
 1122 128 1122 128 1098 102 c 128,-1,56
 1074 76 1074 76 1038 48 c 128,-1,57
 1002 20 1002 20 951.5 2 c 128,-1,58
 901 -16 901 -16 846 -16 c 0,59,60
 749 -16 749 -16 657 28 c 128,-1,61
 565 72 565 72 516 154 c 1,62,63
 472 109 472 109 374 46.5 c 128,-1,64
 276 -16 276 -16 228 -16 c 0,65,66
 129 -16 129 -16 61.5 50.5 c 128,-1,67
 -6 117 -6 117 -6 214 c 0,68,69
 -6 271 -6 271 20.5 311.5 c 128,-1,70
 47 352 47 352 86 372 c 0,71,72
 143 400 143 400 275.5 453.5 c 128,-1,73
 408 507 408 507 418 512 c 0,74,75
 433 518 433 518 438 523 c 128,-1,76
 443 528 443 528 446 540 c 0,77,78
 450 558 450 558 450 604 c 0,79,80
 450 677 450 677 407.5 736.5 c 128,-1,81
 365 796 365 796 296 796 c 0,82,83
 246 796 246 796 221.5 764.5 c 128,-1,84
 197 733 197 733 186 670 c 0,85,86
 177 620 177 620 154 598 c 128,-1,87
 131 576 131 576 92 576 c 0,88,89
 62 576 62 576 43 602 c 128,-1,90
 24 628 24 628 24 660 c 0,91,92
 24 689 24 689 38 708 c 1,93,94
 91 759 91 759 196.5 815.5 c 128,-1,95
 302 872 302 872 398 872 c 0,96,97
 458 872 458 872 507 836.5 c 128,-1,98
 556 801 556 801 584 748 c 1,99,100
 631 798 631 798 697.5 837 c 128,-1,101
 764 876 764 876 840 876 c 0,30,31
EndSplineSet
Fore
SplineSet
1261.38574219 168.584960938 m 0
 1399.3671875 168.584960938 1467.25 265.005859375 1497.17480469 328.455078125 c 1
 1615.48339844 210.145507812 l 1
 1523.49609375 55.2626953125 1377.75683594 -23.1494140625 1182.41992188 -23.1494140625 c 0
 1021.1640625 -23.1494140625 902.299804688 20.626953125 817.515625 88.787109375 c 1
 740.489257812 30.3251953125 619.686523438 -23.7041015625 432.662109375 -23.7041015625 c 0
 256.998046875 -23.7041015625 60.27734375 82.1376953125 60 259.46484375 c 0
 60 381.930664062 137.857421875 537.922851562 367.2734375 613.008789062 c 0
 517.169921875 662.049804688 653.766601562 663.990234375 653.766601562 663.990234375 c 1
 653.766601562 663.990234375 643.791015625 805.57421875 467.295898438 805.57421875 c 0
 387.22265625 805.57421875 282.211914062 770.384765625 238.989257812 674.795898438 c 1
 123.44921875 792.274414062 l 1
 201.029296875 934.412109375 355.913085938 1009.22167969 545.985351562 1009.22167969 c 0
 694.21875 1009.22167969 802 981.514648438 879.580078125 933.858398438 c 1
 879.580078125 933.858398438 998.998046875 1009.5 1165.79589844 1009.5 c 0
 1343.12207031 1009.5 1471.40722656 950.482421875 1547.32421875 834.112304688 c 0
 1610.77441406 737.137695312 1616.03808594 631.294921875 1616.31542969 601.094726562 c 2
 1616.87011719 456.185546875 l 1
 1048.31738281 456.185546875 l 1
 1048.31738281 376.943359375 l 2
 1048.31738281 261.95703125 1143.90722656 168.584960938 1261.38574219 168.584960938 c 0
1225 818.318359375 m 0
 1015.53320312 818.318359375 1048.31738281 620 1048.31738281 620 c 1
 1361 620 l 1
 1361 620 1380 818.318359375 1225 818.318359375 c 0
654.04296875 202.94140625 m 1
 654.04296875 539.583984375 l 1
 654.04296875 539.583984375 456.212890625 487.771484375 456.212890625 334.828125 c 0
 456.212890625 256.970703125 508.580078125 180.221679688 587.268554688 180.221679688 c 0
 631.876953125 180.221679688 654.04296875 202.94140625 654.04296875 202.94140625 c 1
EndSplineSet
Colour: ffff00
EndChar
StartChar: divide
Encoding: 247 247 179
Width: 1147
Flags: HW
LayerCount: 2
Back
SplineSet
71.6220703125 438 m 2,0,1
 59.6220703125 438 59.6220703125 438 59.6220703125 458 c 0,2,3
 59.6220703125 472 59.6220703125 472 69.6220703125 506 c 128,-1,4
 79.6220703125 540 79.6220703125 540 93.6220703125 550 c 1,5,-1
 1001.62207031 550 l 2,6,7
 1007.62207031 550 1007.62207031 550 1013.62207031 544 c 128,-1,8
 1019.62207031 538 1019.62207031 538 1019.62207031 526 c 0,9,10
 1019.62207031 502 1019.62207031 502 1009.62207031 476 c 128,-1,11
 999.622070312 450 999.622070312 450 987.622070312 438 c 1,12,-1
 71.6220703125 438 l 2,0,1
EndSplineSet
Fore
SplineSet
80 393.720703125 m 1
 80 594.627929688 l 1
 1067.66308594 594.627929688 l 1
 1067.66308594 393.720703125 l 1
 80 393.720703125 l 1
573.791015625 657.306640625 m 4
 482.892578125 657.306640625 409.193359375 731.005859375 409.193359375 821.903320312 c 4
 409.193359375 912.80078125 482.892578125 986.5 573.791015625 986.5 c 4
 664.6875 986.5 738.38671875 912.80078125 738.38671875 821.903320312 c 4
 738.38671875 731.005859375 664.6875 657.306640625 573.791015625 657.306640625 c 4
573.791015625 329.412109375 m 0
 664.770507812 329.412109375 738.469726562 255.712890625 738.38671875 164.815429688 c 0
 738.38671875 73.91796875 664.6875 0.21875 573.791015625 0.21875 c 0
 482.892578125 0.21875 409.193359375 73.91796875 409.193359375 164.815429688 c 0
 409.193359375 255.712890625 482.892578125 329.412109375 573.791015625 329.412109375 c 0
EndSplineSet
Colour: ffff00
EndChar
StartChar: thorn
Encoding: 254 254 186
Width: 1164
Flags: HW
LayerCount: 2
Back
SplineSet
411 876 m 0,0,1
 499 876 499 876 571 836.5 c 128,-1,2
 643 797 643 797 685.5 734 c 128,-1,3
 728 671 728 671 750.5 601 c 128,-1,4
 773 531 773 531 773 464 c 0,5,6
 773 370 773 370 731.5 280.5 c 128,-1,7
 690 191 690 191 624 126.5 c 128,-1,8
 558 62 558 62 473.5 23 c 128,-1,9
 389 -16 389 -16 305 -16 c 0,10,11
 235 -16 235 -16 165 6 c 1,12,13
 157 -4 157 -4 157 -20 c 2,14,-1
 157 -214 l 2,15,16
 157 -330 157 -330 167 -362 c 0,17,18
 171 -376 171 -376 217.5 -385 c 128,-1,19
 264 -394 264 -394 293 -394 c 1,20,21
 299 -402 299 -402 299.5 -423 c 128,-1,22
 300 -444 300 -444 293 -452 c 1,23,24
 88 -442 88 -442 79 -442 c 0,25,26
 44 -442 44 -442 11.5 -443.5 c 128,-1,27
 -21 -445 -21 -445 -63 -448 c 128,-1,28
 -105 -451 -105 -451 -133 -452 c 1,29,30
 -140 -444 -140 -444 -139.5 -423 c 128,-1,31
 -139 -402 -139 -402 -133 -394 c 1,32,33
 -104 -394 -104 -394 -57.5 -385 c 128,-1,34
 -11 -376 -11 -376 -7 -362 c 0,35,36
 3 -330 3 -330 3 -214 c 2,37,-1
 3 1116 l 2,38,39
 3 1196 3 1196 -7 1220 c 0,40,41
 -22 1256 -22 1256 -129 1256 c 0,42,43
 -130 1256 -130 1256 -131 1268.5 c 128,-1,44
 -132 1281 -132 1281 -131.5 1294 c 128,-1,45
 -131 1307 -131 1307 -127 1308 c 0,46,47
 11 1322 11 1322 157 1388 c 1,48,49
 164 1388 164 1388 171.5 1377.5 c 128,-1,50
 179 1367 179 1367 179 1356 c 1,51,52
 157 1292 157 1292 157 1182 c 2,53,-1
 157 768 l 2,54,55
 157 758 157 758 161 758 c 0,56,57
 163 758 163 758 167 762 c 0,58,59
 214 802 214 802 285.5 839 c 128,-1,60
 357 876 357 876 411 876 c 0,0,1
325 758 m 0,61,62
 267 758 267 758 212 730.5 c 128,-1,63
 157 703 157 703 157 680 c 2,64,-1
 157 200 l 2,65,66
 157 130 157 130 217.5 92 c 128,-1,67
 278 54 278 54 343 54 c 0,68,69
 422 54 422 54 483.5 105 c 128,-1,70
 545 156 545 156 575 231.5 c 128,-1,71
 605 307 605 307 605 390 c 0,72,73
 605 562 605 562 524.5 660 c 128,-1,74
 444 758 444 758 325 758 c 0,61,62
EndSplineSet
Fore
SplineSet
475.427734375 883.864257812 m 1
 475.427734375 883.864257812 574.384765625 989.884765625 718.708007812 989.884765625 c 0
 988.991210938 989.884765625 1084.875 700.323242188 1084.875 452.390625 c 0
 1084.875 166.65234375 926.259765625 -32.8408203125 699.182617188 -32.8408203125 c 0
 553.280273438 -32.8408203125 475.427734375 66.19921875 475.427734375 66.19921875 c 1
 475.344726562 -296.892578125 l 1
 105.603515625 -296.892578125 l 1
 105.521484375 1112.4375 l 1
 0 1112.4375 l 1
 0 1290.30957031 l 5
 475.344726562 1289.47851562 l 5
 475.427734375 883.864257812 l 1
673.092773438 290.370117188 m 1
 673.17578125 290.370117188 l 1
 673.17578125 656.620117188 l 2
 673.17578125 734.057617188 610.1953125 797.038085938 532.922851562 797.038085938 c 2
 475.427734375 798.034179688 l 1
 475.427734375 149.204101562 l 1
 532.7578125 150.03515625 l 2
 610.112304688 150.03515625 673.092773438 213.015625 673.092773438 290.370117188 c 1
EndSplineSet
Colour: ffff00
EndChar
StartChar: aogonek
Encoding: 263 261 193
Width: 1188
Flags: HW
LayerCount: 2
Back
SplineSet
294 92 m 0,0,1
 343 92 343 92 405.5 124.5 c 128,-1,2
 468 157 468 157 468 174 c 2,3,-1
 468 446 l 1,4,5
 313 400 313 400 282 388 c 0,6,7
 225 366 225 366 192.5 326.5 c 128,-1,8
 160 287 160 287 160 232 c 0,9,10
 160 176 160 176 199 134 c 128,-1,11
 238 92 238 92 294 92 c 0,0,1
474 118 m 1,12,13
 445 89 445 89 359.5 36.5 c 128,-1,14
 274 -16 274 -16 228 -16 c 0,15,16
 129 -16 129 -16 61.5 50.5 c 128,-1,17
 -6 117 -6 117 -6 214 c 0,18,19
 -6 271 -6 271 25.5 315.5 c 128,-1,20
 57 360 57 360 94 374 c 0,21,22
 127 386 127 386 214 416 c 128,-1,23
 301 446 301 446 359.5 467 c 128,-1,24
 418 488 418 488 444 500 c 0,25,26
 459 506 459 506 463.5 515 c 128,-1,27
 468 524 468 524 468 550 c 2,28,-1
 468 604 l 2,29,30
 468 675 468 675 417.5 735.5 c 128,-1,31
 367 796 367 796 296 796 c 0,32,33
 246 796 246 796 221.5 765.5 c 128,-1,34
 197 735 197 735 186 672 c 0,35,36
 169 576 169 576 92 576 c 0,37,38
 62 576 62 576 43 602 c 128,-1,39
 24 628 24 628 24 660 c 0,40,41
 24 668 24 668 28.5 684.5 c 128,-1,42
 33 701 33 701 38 708 c 1,43,44
 100 766 100 766 202.5 819 c 128,-1,45
 305 872 305 872 402 872 c 0,46,47
 489 872 489 872 554.5 792 c 128,-1,48
 620 712 620 712 620 598 c 2,49,-1
 620 186 l 2,50,51
 620 92 620 92 682 92 c 0,52,53
 691 92 691 92 699.5 93.5 c 128,-1,54
 708 95 708 95 714 97.5 c 128,-1,55
 720 100 720 100 726.5 103.5 c 128,-1,56
 733 107 733 107 736.5 109.5 c 128,-1,57
 740 112 740 112 743.5 115 c 128,-1,58
 747 118 747 118 748 118 c 0,59,60
 756 118 756 118 756 102 c 0,61,62
 756 81 756 81 746 64 c 1,63,64
 686 22 686 22 674 14 c 0,65,66
 671 12 671 12 643.5 -7.5 c 128,-1,67
 616 -27 616 -27 606 -34 c 128,-1,68
 596 -41 596 -41 570 -61.5 c 128,-1,69
 544 -82 544 -82 532 -94 c 128,-1,70
 520 -106 520 -106 500.5 -127 c 128,-1,71
 481 -148 481 -148 472 -164.5 c 128,-1,72
 463 -181 463 -181 455.5 -201.5 c 128,-1,73
 448 -222 448 -222 448 -242 c 0,74,75
 448 -273 448 -273 466.5 -300.5 c 128,-1,76
 485 -328 485 -328 530 -328 c 0,77,78
 565 -328 565 -328 596.5 -316 c 128,-1,79
 628 -304 628 -304 645 -290 c 128,-1,80
 662 -276 662 -276 675.5 -264 c 128,-1,81
 689 -252 689 -252 692 -252 c 0,82,83
 693 -252 693 -252 695.5 -255 c 128,-1,84
 698 -258 698 -258 700 -264.5 c 128,-1,85
 702 -271 702 -271 702 -278 c 0,86,87
 702 -301 702 -301 692 -314 c 0,88,89
 592 -446 592 -446 482 -446 c 0,90,91
 430 -446 430 -446 396 -417.5 c 128,-1,92
 362 -389 362 -389 351 -356.5 c 128,-1,93
 340 -324 340 -324 340 -292 c 0,94,95
 340 -230 340 -230 403 -145.5 c 128,-1,96
 466 -61 466 -61 546 2 c 1,97,98
 519 18 519 18 498 50.5 c 128,-1,99
 477 83 477 83 474 118 c 1,12,13
EndSplineSet
Fore
SplineSet
1031.13769531 557.192382812 m 2
 1031.13769531 171.784179688 l 1
 1136.70410156 171.784179688 l 1
 1136.70410156 0 l 1
 1054.04785156 0 l 1
 917.752929688 0 l 1
 798.047851562 -74 796.047851562 -296.892578125 981.047851562 -296.892578125 c 0
 1081.99902344 -296.892578125 1138 -212.392578125 1138 -212.392578125 c 1
 1138.08300781 -108.782226562 l 1
 1138.08300781 -108.782226562 1030.65136719 -212.55859375 968.584960938 -146.337890625 c 0
 934.012695312 -109.451171875 936.047851562 0 1054.04785156 0 c 2
 917.752929688 0 l 1
 661.247070312 0 l 1
 661.247070312 98.9150390625 l 1
 661.247070312 98.9150390625 592.533203125 -22.9970703125 402.184570312 -22.9970703125 c 0
 236.495117188 -22.9970703125 60 75.36328125 60 257.123046875 c 0
 60 650.842773438 661.80078125 661.09375 661.80078125 661.09375 c 1
 661.80078125 661.09375 654.043945312 817.639648438 465.633789062 817.639648438 c 0
 386.9453125 817.639648438 279.995117188 783.837890625 232.338867188 689.91015625 c 1
 125.666015625 798.522460938 l 1
 202.692382812 935.396484375 351.479492188 1010.48242188 545.430664062 1010.48242188 c 0
 881.243164062 1010.48242188 1031.13769531 870.560546875 1031.13769531 557.192382812 c 2
661.5234375 197.275390625 m 1
 661.5234375 549.7109375 l 1
 653.211914062 547.494140625 l 2
 650.99609375 546.940429688 447.624023438 492.080078125 447.624023438 333.594726562 c 0
 447.624023438 255.18359375 501.099609375 170.399414062 587.268554688 170.399414062 c 0
 635.202148438 170.399414062 659.307617188 195.05859375 659.584960938 195.334960938 c 2
 661.5234375 197.275390625 l 1
EndSplineSet
LCarets2: 1 0
Ligature2: "Latin composition subtable" a uni0328
Colour: ffff00
EndChar
StartChar: Dcroat
Encoding: 274 272 204
Width: 1219
VWidth: 0
Flags: HW
LayerCount: 2
Fore
SplineSet
576.478515625 1289.47851562 m 6
 880.150390625 1289.47851562 1139.21289062 1007.43457031 1139.21289062 668.297851562 c 4
 1139.21289062 299.791992188 877.083007812 0 570.106445312 0 c 6
 106.564453125 0 l 5
 106.564453125 1098.86914062 l 5
 1 1098.86914062 l 5
 1 1289.47851562 l 5
 576.478515625 1289.47851562 l 6
742.72265625 373.770507812 m 6
 742.72265625 909.905273438 l 6
 742.72265625 1014.91503906 654.3359375 1098.86914062 547.940429688 1098.86914062 c 6
 490.033203125 1098.86914062 l 5
 490.033203125 183.975585938 l 5
 547.940429688 183.975585938 l 6
 655.444335938 183.975585938 742.72265625 268.759765625 742.72265625 373.770507812 c 6
EndSplineSet
Refer: 140 208 N 0.822102 0 0 1 -115.094 169.869 2
Colour: 100feff
EndChar
StartChar: eogonek
Encoding: 283 281 213
Width: 1134
Flags: HW
LayerCount: 2
Back
SplineSet
616 51 m 0,0,1
 523 -28 523 -28 471.5 -96.5 c 128,-1,2
 420 -165 420 -165 420 -244 c 0,3,4
 420 -275 420 -275 438.5 -302.5 c 128,-1,5
 457 -330 457 -330 502 -330 c 0,6,7
 537 -330 537 -330 568.5 -318 c 128,-1,8
 600 -306 600 -306 617 -292 c 128,-1,9
 634 -278 634 -278 647.5 -266 c 128,-1,10
 661 -254 661 -254 664 -254 c 0,11,12
 665 -254 665 -254 667 -257 c 128,-1,13
 669 -260 669 -260 670.5 -266.5 c 128,-1,14
 672 -273 672 -273 672 -280 c 0,15,16
 672 -305 672 -305 664 -316 c 0,17,18
 564 -448 564 -448 454 -448 c 0,19,20
 402 -448 402 -448 368 -419.5 c 128,-1,21
 334 -391 334 -391 323 -358.5 c 128,-1,22
 312 -326 312 -326 312 -294 c 0,23,24
 312 -237 312 -237 358.5 -156.5 c 128,-1,25
 405 -76 405 -76 468 -12 c 1,26,27
 438 -16 438 -16 420 -16 c 0,28,29
 245 -16 245 -16 132.5 102.5 c 128,-1,30
 20 221 20 221 20 400 c 0,31,32
 20 497 20 497 57 587 c 128,-1,33
 94 677 94 677 151 739 c 128,-1,34
 208 801 208 801 278 838.5 c 128,-1,35
 348 876 348 876 414 876 c 0,36,37
 482 876 482 876 537 855 c 128,-1,38
 592 834 592 834 624 803.5 c 128,-1,39
 656 773 656 773 677 734 c 128,-1,40
 698 695 698 695 706 663 c 128,-1,41
 714 631 714 631 714 604 c 0,42,43
 714 558 714 558 703.5 534.5 c 128,-1,44
 693 511 693 511 666 510 c 0,45,46
 625 507 625 507 406.5 501.5 c 128,-1,47
 188 496 188 496 162 496 c 1,48,49
 158 313 158 313 252.5 212.5 c 128,-1,50
 347 112 347 112 488 112 c 0,51,52
 560 112 560 112 618.5 147 c 128,-1,53
 677 182 677 182 708 218 c 0,54,55
 709 218 709 218 713 214.5 c 128,-1,56
 717 211 717 211 720.5 204 c 128,-1,57
 724 197 724 197 724 190 c 0,58,59
 724 174 724 174 712 154 c 0,60,61
 686 111 686 111 616 51 c 0,0,1
172 570 m 2,1,-1
 498 570 l 2,63,64
 541 570 541 570 544 616 c 0,65,66
 545 636 545 636 536 666 c 128,-1,67
 527 696 527 696 509 728 c 128,-1,68
 491 760 491 760 457 782 c 128,-1,69
 423 804 423 804 380 804 c 0,70,71
 333 804 333 804 294 780 c 128,-1,72
 255 756 255 756 232.5 721.5 c 128,-1,73
 210 687 210 687 195.5 652.5 c 128,-1,74
 181 618 181 618 175.5 594 c 128,-1,75
 170 570 170 570 172 570 c 2,1,-1
EndSplineSet
Fore
SplineSet
699.583984375 169.734375 m 0
 837.094726562 169.734375 904.810546875 265.700195312 934.47265625 329.345703125 c 1
 1052.62402344 211.194335938 l 1
 994.877929688 113.982421875 917.024414062 44.0224609375 816.987304688 10.6220703125 c 0
 698.918945312 -28.845703125 683.879882812 -106.44921875 723.513671875 -144.501953125 c 0
 788.903320312 -207.233398438 892.762695312 -107.03125 892.762695312 -107.03125 c 1
 892.6796875 -210.474609375 l 1
 892.6796875 -210.474609375 836.76171875 -294.80859375 735.9765625 -294.80859375 c 0
 567.724609375 -294.80859375 554.4296875 -110.104492188 643.749023438 -21.3671875 c 0
 643.916015625 -21.3671875 80 -62.4951171875 80 493.858398438 c 0
 80 848.227539062 351.61328125 1009.5 604.200195312 1009.5 c 0
 781.176757812 1009.5 909.296875 950.590820312 985.072265625 834.435546875 c 0
 1048.38574219 737.637695312 1053.703125 631.951171875 1053.95214844 601.7890625 c 2
 1054.53417969 457.133789062 l 1
 486.879882812 457.133789062 l 1
 486.879882812 378.034179688 l 2
 486.879882812 263.540039062 582.264648438 169.983398438 699.583984375 169.734375 c 0
659 818.6484375 m 1
 468 818.6484375 486.879882812 620 486.879882812 620 c 1
 801 620 l 1
 801 620 805 818.6484375 659 818.6484375 c 1
EndSplineSet
LCarets2: 1 10
Ligature2: "Latin composition subtable" e uni0328
Colour: ffff00
EndChar
